<svg id="BDDZ_Keyvisual_mit_UZ" data-name="BDDZ Keyvisual mit UZ" xmlns="http://www.w3.org/2000/svg" width="1000" height="800" viewBox="0 0 1000 800">
  <rect id="Rectangle_440" data-name="Rectangle 440" width="1000" height="800" fill="#fff"/>
  <path id="Path_3027" data-name="Path 3027" d="M67.033,175.156,37.846,186.579l-18.012,2.789V366.637H729.828V175.156Z" transform="translate(132.256 189.741)"/>
  <path id="Path_3028" data-name="Path 3028" d="M41.5,293.771l43.917-66.442H45.942V203.618H120.5v17.124L76.438,287.184H120.65V310.82H41.5Z" transform="translate(143.551 204.578)" fill="#fff"/>
  <path id="Path_3029" data-name="Path 3029" d="M100.2,203.618h28.348v58.843c0,19.121,4.935,26.128,16.136,26.128s16.555-6.884,16.555-26.128V203.618H188.6v55.389c0,36.689-13.891,53.811-43.917,53.811s-44.607-17.049-44.607-53.811V203.618Z" transform="translate(174.087 204.578)" fill="#fff"/>
  <path id="Path_3030" data-name="Path 3030" d="M165.2,203.618h28.348v40.019h.692l27.138-40.019h30.989l-32.073,43.67,38.291,63.777H227.642l-23.735-41.3L193.669,284.37v26.845H165.344v-107.6Z" transform="translate(208.031 204.578)" fill="#fff"/>
  <path id="Path_3031" data-name="Path 3031" d="M228.92,203.618h28.348v58.843c0,19.121,4.935,26.128,16.136,26.128s16.555-6.884,16.555-26.128V203.618h27.362v55.389c0,36.689-13.891,53.811-43.917,53.811s-44.73-17.049-44.73-53.811V203.618Z" transform="translate(241.121 204.578)" fill="#fff"/>
  <path id="Path_3032" data-name="Path 3032" d="M293.854,203.618h29.137l23.636,47.987,10.24,24.153h.666a400.517,400.517,0,0,1-3.653-41V203.618h27.14V311.065H351.956l-23.709-48.036L318.058,239h-.715c1.258,12.336,3.651,27.829,3.651,41.029v31.037h-27.14Z" transform="translate(275.099 204.578)" fill="#fff"/>
  <path id="Path_3033" data-name="Path 3033" d="M358.418,203.618h70.02v23.735H386.914v20.5h35.651v23.735H386.914v39.228H358.565v-107.2Z" transform="translate(308.755 204.578)" fill="#fff"/>
  <path id="Path_3034" data-name="Path 3034" d="M437.869,227.353H409.521V203.618h85.093v23.735H466.365v83.465H438.016V227.353Z" transform="translate(335.395 204.578)" fill="#fff"/>
  <path id="Path_3035" data-name="Path 3035" d="M344.342,83.751h14.606c15,0,25.389,7.031,25.389,24.672s-10.387,24.993-24.672,24.993H344.243V83.751Zm13.768,39.056c7.155,0,12.78-2.96,12.78-14.483s-5.626-14.038-12.78-14.038h-.715v28.521Z" transform="translate(301.366 142.093)"/>
  <rect id="Rectangle_437" data-name="Rectangle 437" width="13.051" height="49.591" transform="translate(690.759 225.844)"/>
  <path id="Path_3036" data-name="Path 3036" d="M415.05,133.342l-8.536-16.628h-5.058v16.579H388.4V83.751h18.651c10.66,0,19.739,3.653,19.739,16.013A15.271,15.271,0,0,1,418.8,114.1l10.658,19.244Zm-13.594-26.991h4.762c5.181,0,7.845-2.245,7.845-6.587s-2.787-5.626-7.845-5.626h-4.762Z" transform="translate(324.387 142.093)"/>
  <path id="Path_3037" data-name="Path 3037" d="M343.247,126.5h14.606c15,0,25.389,7.007,25.389,24.672s-10.387,25.018-24.672,25.018H343.124V126.5Zm13.891,39.032c7.155,0,12.78-2.936,12.78-14.458s-5.6-14.038-12.78-14.038h-.616V165.41Z" transform="translate(300.783 164.378)"/>
  <path id="Path_3038" data-name="Path 3038" d="M372.819,126.5h32.073v10.955h-18.8v7.722h15.989v10.93H385.945v8.857h19.737v10.88H372.819Z" transform="translate(316.262 164.378)"/>
  <rect id="Rectangle_438" data-name="Rectangle 438" width="13.051" height="49.344" transform="translate(727.939 290.88)"/>
  <path id="Path_3039" data-name="Path 3039" d="M412.942,126.5h13.273l10.93,22.057,4.786,11.078h.272c-.569-5.3-1.678-12.78-1.678-18.8V126.5h12.459v49.344H439.662l-10.979-22.2L424,142.539h-.248c.569,5.6,1.678,12.78,1.678,18.8v14.334H412.966Z" transform="translate(337.178 164.378)"/>
  <path id="Path_3040" data-name="Path 3040" d="M445.216,126.5h32.073v10.955H458.342v7.722h16.136v10.93H458.342v8.857h19.737v10.88H445.216Z" transform="translate(354.002 164.378)"/>
  <path id="Path_3041" data-name="Path 3041" d="M375.387,224.519a15.3,15.3,0,0,0-2.665-4.762,46.957,46.957,0,0,0-4.786-6.464c-1.949-2.122-3.651-4.071-5.329-5.9a111.645,111.645,0,0,0-10.634-9.573,118.306,118.306,0,0,1-10.238-9.869,81.606,81.606,0,0,0-6.193-6.169c-1.258-.986-1.949-1.553-3.207-2.688a69.972,69.972,0,0,1-7.574-6.391,65.294,65.294,0,0,0-15.026-16.728c-.567-.567-3.5-3.379-6.044-5.9-2.936-2.813-6.021-5.747-6.859-6.612l-5.329-4.935c-.987-.838-1.678-1.553-2.468-2.1-.271-.149-.42-.444-.715-.567a2.242,2.242,0,0,1-.84-.84,2.479,2.479,0,0,1-.123-1.135c2.468-3.5,7.155-10.682,7.7-12.064s2.468-4.935,3.948-7.722,2.1-3.948,2.468-4.638a11.209,11.209,0,0,1,2.468-3.8l.148-.148.148-.272c.272-.418.717-.986,1.111-1.553a15.893,15.893,0,0,0,1.432-1.95,41.512,41.512,0,0,0,5.6-7.179l.84-1.258a14.641,14.641,0,0,0,1.43-1.826c1.432-1.827,2.813-3.653,4.071-5.478a53.666,53.666,0,0,0,3.923-6.464c.838-1.678,1.678-3.5,2.467-5.3a26.012,26.012,0,0,1,2.96-4.638,34.3,34.3,0,0,0,2.1-3.231,4.634,4.634,0,0,1,1.555-1.826l.123-.149.149-.148c.986-.987,1.826-1.973,2.664-2.936s1.678-1.826,2.665-2.813l.148-.148.148-.148a67.75,67.75,0,0,1,4.935-5.749c1.826-1.826,3.651-3.948,5.6-6.193l7.4-9.252c2.468-3.084,4.613-6.192,7.155-9.572v-.3l.271-.42a52.91,52.91,0,0,0,2.468-4.934c.715-1.555,1.431-3.11,2.1-4.368a7.89,7.89,0,0,0,.3-7.4,13.4,13.4,0,0,0-.715-2.122c-.123-.37-.271-.739-.42-1.111V6.615a10.212,10.212,0,0,0-4.243-5.058A10.733,10.733,0,0,0,357.524,0h-.444a13.475,13.475,0,0,0-4.934.84,7.868,7.868,0,0,0-1.975.715,6.78,6.78,0,0,0-.986.42,15.64,15.64,0,0,0-8.142,5.057l-.125.149V7.4a63.192,63.192,0,0,1-4.489,5.749c-1.678,1.973-3.38,3.8-5.058,5.747-.691.814-1.357,1.654-1.973,2.468l-.123.148a18.886,18.886,0,0,0-2.245,3.356v.3a34.731,34.731,0,0,1-2.738,4.638,46.832,46.832,0,0,0-2.962,5.057,10.9,10.9,0,0,0-1.529,2.468c-.42.715-.715,1.432-.987,1.826l-2.468,3.653-1.109,1.973L314.1,46.755c-1.678,2.936-3.653,6.021-5.749,9.4s-4.071,6.193-6.046,9.129c-1.258,1.826-2.466,3.651-3.5,5.477s-2.244,3.653-3.231,5.331v.394c-.543,1.282-1.258,2.468-1.826,3.651S292.34,82.6,291.5,84.085c-1.678,2.665-3.356,5.182-4.935,7.722l-.567.987c-.418.691-.986,1.53-1.43,2.245,0-.715-.125-1.258-.125-1.973v-.272a22.232,22.232,0,0,1,.543-9,5.736,5.736,0,0,0,.149-2.245v-.42l.148-.271v-.3a36.791,36.791,0,0,1,.148-6.587v-.3l-.148-.271a8.874,8.874,0,0,1,.148-1.135,10.252,10.252,0,0,0,.84-3.651,38.571,38.571,0,0,0,.418-5.6V57.464c0-2.468-.148-4.638-.271-6.761a16.2,16.2,0,0,1,.691-5.749,40.724,40.724,0,0,0,.987-4.489,10.777,10.777,0,0,1,.986-3.5v-.3a11.418,11.418,0,0,0,.42-6.735,21.634,21.634,0,0,0-2.468-5.083,11.952,11.952,0,0,0-3.231-3.356,16.086,16.086,0,0,1-2.813-2.468l-.123-.148h-.3a3.848,3.848,0,0,1-1.949-2.468c-.148-.715-.3-1.43-.42-1.973a3.28,3.28,0,0,0-2.466-2.468,2.84,2.84,0,0,0-1.678-1.529,7.632,7.632,0,0,0-1.284-.42,9.179,9.179,0,0,0-1.406-.84l-.148-.148-.272-.3h-.3a2.476,2.476,0,0,0-1.678-.567,2.3,2.3,0,0,0-.987.149,6.331,6.331,0,0,0-3.479-.913,11.856,11.856,0,0,0-2.1.271,5.353,5.353,0,0,0-4.219,2.813l-.149.271-.148.272c-.42,1.135-.691,2.468-1.258,4.219a22.441,22.441,0,0,0-.987,4.935c-.123,2.664-.271,5.3-.42,8.142s-.418,5.477-.715,8.289c-.123,3.38-.42,6.612-.42,9.7s0,6.341.149,9.549c0,4.366,0,8.437.148,12.336s.123,7.87,0,11.793-.3,7.4-.42,10.832-.3,7.4-.444,10.806a40.652,40.652,0,0,0,.149,5.478c.148,1.676.148,3.379.148,5.329V113a8.779,8.779,0,0,1,.271,1.8c0,.444.149.863.149,1.282a3.47,3.47,0,0,0,.148.691c-.148,3.528.123,14.212.271,21.934.149,3.651.149,7.155.149,7.87v.123a22.664,22.664,0,0,0,.271,5.331,18.688,18.688,0,0,1,.148,4.071v12.779a49.11,49.11,0,0,1,.42,6.341v6.12l-.42,12.336c-.148,3.231-.271,6.464-.148,9.7s.148,5.9.148,9.4c0,3.084,0,6.046.149,9.277,0,1.111,0,1.407-.149,1.678a9.407,9.407,0,0,0-.024,3.257,78.927,78.927,0,0,1,.3,9.671,81.364,81.364,0,0,0,.271,10.117,22.707,22.707,0,0,0,.567,5.624,16.637,16.637,0,0,0,2.468,5.478,8.068,8.068,0,0,0,4.368,3.651,7.023,7.023,0,0,0,2.466.42,6.65,6.65,0,0,0,3.529-1.111c1.676-1.135,3.627-2.468,5.6-3.8A34.076,34.076,0,0,0,280.1,252.4a14.249,14.249,0,0,0,2.936-4.934l.148-.149v-.592a38.5,38.5,0,0,0,.42-9.869c-.148-1.432-.148-2.96-.271-4.515a10.768,10.768,0,0,1,.271-3.651v-.272a49.36,49.36,0,0,0,.567-7.87v-.272a3.987,3.987,0,0,0,.567-2.466,12.306,12.306,0,0,0-.148-3.923,18.175,18.175,0,0,1-.3-2.813c.148-2.813.148-5.626.148-8.56s.149-5.773.149-8.586a214.444,214.444,0,0,0-1.258-21.762c-.3-4.366-.716-8.017-.716-10.263v-.272c2.467,2.468,5.6,5.749,8.982,9.129,6.587,6.736,14.162,14.458,19.367,19.737,2.468,2.468,29.038,26.845,32.839,30.2s7.278,6.464,10.634,9.7a11.316,11.316,0,0,0,4.491,3.651,22.867,22.867,0,0,0,2.664,1.432,5.9,5.9,0,0,0,1.826.418,3.527,3.527,0,0,0,2.468-.838,2.3,2.3,0,0,0,.963-.715,2.476,2.476,0,0,0,.567-1.678,1.565,1.565,0,0,0,.986.271h1.258l.567-1.135.149-.271a.6.6,0,0,0,.271-.148c1.135-.543,2.467-1.111,2.467-2.665a3.683,3.683,0,0,1,.148-.715h.272a1.782,1.782,0,0,0,.715-.149l1.949-.567Z" transform="translate(254.062 98.434)" fill="#fbb900"/>
  <path id="Path_3042" data-name="Path 3042" d="M252.99,155.847l-2.468-.3h-.149a2.445,2.445,0,0,0-.418-.691,2.316,2.316,0,0,0-1.678-.715.788.788,0,0,0-.567.148l-.715.123h-.272a21.375,21.375,0,0,0-4.786,1.282,40.49,40.49,0,0,0-4.194,2.245l-2.665,1.53c-.148-1.26-.3-2.468-.444-3.653a64.845,64.845,0,0,0-.691-6.882v-.272c-.148-.838-.3-1.555-.418-2.468a18.466,18.466,0,0,0-.567-2.813,26.34,26.34,0,0,1-.84-4.342,40.117,40.117,0,0,1-.567-4.491v-.172a44.063,44.063,0,0,1-1.258-8.98,17.251,17.251,0,0,0-.567-4.935,43.334,43.334,0,0,0-.543-4.342c-.3-1.407-.444-2.962-.715-4.638s-.3-2.962-.42-4.368a36.909,36.909,0,0,0-.838-4.935,9.662,9.662,0,0,1-.444-2.664,12.814,12.814,0,0,0-.469-4.614,10.692,10.692,0,0,1-.272-3.651,29.011,29.011,0,0,0-.418-4.935,18.377,18.377,0,0,1-.567-3.75,32.662,32.662,0,0,1-.149-3.8c0-1.407-.123-2.813-.123-4.22V74.28l-.246-1.308v-.838a5.564,5.564,0,0,1-.148-1.555v-.345a20.177,20.177,0,0,0-.3-3.231,12.113,12.113,0,0,0-.271-2.962,25.509,25.509,0,0,0-.567-5.624,29.486,29.486,0,0,1-.42-4.935,23.757,23.757,0,0,0-1.111-6.587,22.871,22.871,0,0,0-2.813-5.921l-.321-.345a11.279,11.279,0,0,0-.715-3.356c-.271-.838-.691-1.826-1.111-2.813a16.452,16.452,0,0,0-6.464-8.857,18.706,18.706,0,0,0-4.614-2.665,23.888,23.888,0,0,0-4.934-1.43,9.15,9.15,0,0,0-1.826,0,10.664,10.664,0,0,0-5.478,1.529,20.747,20.747,0,0,0-4.934,4.071,9.487,9.487,0,0,0-2.1,2.468,3.2,3.2,0,0,1-1.43,1.258,9.868,9.868,0,0,0-3.233,3.8v.3c-.42,1.111-.987,2.245-1.406,3.233l-.567,1.258a40,40,0,0,0-1.975,4.934,91.888,91.888,0,0,0-3.577,9.4c-1.111,3.231-2.245,6.192-3.356,9a78,78,0,0,0-3.084,7.476c-.717,2.468-1.678,4.935-2.665,7.722A118.349,118.349,0,0,0,161.456,91.6c-.987,4.491-1.975,9.129-3.233,13.471a78.752,78.752,0,0,0-1.678,8.439c-.418,2.811-.986,5.477-1.43,8.166-.42,1.973-.84,3.8-1.258,5.624a47.641,47.641,0,0,0-1.111,5.9v.272a21.834,21.834,0,0,1-.444,4.219v.567a32.765,32.765,0,0,0-.715,3.776c-.717,3.528-1.432,7.179-2.245,11.25-.717,3.5-1.432,7.155-2.245,11.226-.838,6.044-1.973,12.09-3.233,18.109s-2.466,12.336-3.231,18.406a.514.514,0,0,1,0,.418c-.987.3-1.975.567-3.11.987a22.565,22.565,0,0,1-2.936.987h-.271a14.781,14.781,0,0,1-3.38.987,32.754,32.754,0,0,0-4.614.838l-6.587,1.258a1.73,1.73,0,0,0-.838.3c.418-1.432.691-2.96.987-4.368a39.484,39.484,0,0,0-.444-14.038v-1.282a4.736,4.736,0,0,0,.691-3.651,14.824,14.824,0,0,0-1.258-3.5c-.567-1.407-1.26-2.936-1.827-4.491a27.525,27.525,0,0,0-2.466-4.491,1.7,1.7,0,0,1,0-2.245,1.6,1.6,0,0,0-.272-2.244,1.433,1.433,0,0,1-.567-1.432,8.085,8.085,0,0,0,.149-1.555,1.808,1.808,0,0,1,.123-.961c.148-.3.3-.444.3-.717a2.246,2.246,0,0,0-1.553-1.826c-.987-.271-1.26-.987-.987-2.245l-.717-.567c-1.8-.715-3.5-1.406-4.934-2.1a14.578,14.578,0,0,0-5.329-1.555,39.788,39.788,0,0,1-4.935-.987c0-.418.148-.715.567-.715a42.3,42.3,0,0,0,6.316-4.762c1.949-1.826,4.071-3.651,6.167-5.773a8.973,8.973,0,0,0,2.1-2.468,7.4,7.4,0,0,1,2.468-2.245c.42,0,.543-.418.543-.986a33.541,33.541,0,0,1,4.416-8.61,34.574,34.574,0,0,0,4.243-7.4,21.853,21.853,0,0,1,4.614-7.031,15.921,15.921,0,0,0,2.813-4.368c.691-1.676,1.406-3.231,1.949-4.934s1.258-3.233,1.826-4.638a23.809,23.809,0,0,0,1.258-4.935,49.621,49.621,0,0,0-2.1-22.475,36.486,36.486,0,0,0-8.414-12.51,12.233,12.233,0,0,1-1.258-1.036,5.1,5.1,0,0,0-1.258-1.258c-2.468-1.432-4.614-2.665-6.884-3.8a35.223,35.223,0,0,0-7.4-2.468,57.381,57.381,0,0,0-6.464-.838,38.471,38.471,0,0,0-6.736.148A13.32,13.32,0,0,0,90.547,50a44.388,44.388,0,0,1-4.342,1.111A85.854,85.854,0,0,0,59.954,61.944c-1.678.838-3.084,1.826-4.491,2.664a26.547,26.547,0,0,1-4.489,2.665c-.987.838-1.53.42-1.826-1.135-.149-1.111-.272-1.678-.567-1.949a5.317,5.317,0,0,1-1.8-2.245c-.149-.715-.444-1.7-.567-2.69a1.209,1.209,0,0,1-.3-1.111,1.651,1.651,0,0,0-.543-1.135c-.42,1.555-1.258,1.975-2.468,1.258A4.392,4.392,0,0,1,40.956,55.8a.837.837,0,0,0-.838.691c-.149.444-.3.567-.3.444-.42-1.7-1.111-2.69-2.1-2.813a12.094,12.094,0,0,1-2.936-.84,4.491,4.491,0,0,0-5.058,1.26,3.8,3.8,0,0,1-2.245.986,5.727,5.727,0,0,0-5.329,4.343c.148,1.135-.148,1.43-.838.715a1.8,1.8,0,0,0-1.8-.222,1.877,1.877,0,0,1-1.678-.42,2.984,2.984,0,0,0-3.651-.418,10.329,10.329,0,0,0-3.233,2.787,15.3,15.3,0,0,0-2.245,4.194,48.471,48.471,0,0,0-1.553,5.206c-1.407,9.4-2.665,18.554-3.5,27.386-.84,7.18-1.555,14.212-1.975,21.366S.987,134.776.717,141.932c-.567,7.722-.717,14.8-.717,22.2s.149,14.655.42,22.057c.271,3.651.42,7.4.715,10.953s.42,7.4.42,10.979a45.277,45.277,0,0,0,.543,6.316,29.432,29.432,0,0,1,.567,6.046,82.651,82.651,0,0,0,.987,11.817c.567,3.923.986,7.722,1.258,11.375.418,4.934.838,9.869,1.553,15.024a139.534,139.534,0,0,0,2.468,14.8c.42,1.678.84,3.356,1.111,5.181a10.855,10.855,0,0,0,2.468,4.935c.715-.987,1.555-.864,2.468.418.271.42.715.84,1.109,1.407a8.477,8.477,0,0,1,1.555,1.7c0,.271.567.418,1.407.838a20.486,20.486,0,0,1,3.108,1.111c.987.42,1.53,1.555,1.678,3.231a9.843,9.843,0,0,0,.567,2.245c.271.567.543,1.284.838,1.826a8.528,8.528,0,0,0,3.085,3.948c.271,0,.418.42.715.691s.543.149.987-.271a1.9,1.9,0,0,0,0-1.973,4.928,4.928,0,0,1,0-3.923,2.213,2.213,0,0,0,0-1.258,3.883,3.883,0,0,1-.3-1.284c.148-.271.3-.418.148-.691s0-.418.42-.715a.74.74,0,0,1,.592.863v0a.765.765,0,0,0,.543.838v-5.083a10.464,10.464,0,0,1,1.135-4.638h.246a2.466,2.466,0,0,0,2.122,1.258,3.655,3.655,0,0,1,2.468.864,2.468,2.468,0,0,1,2.468-.444,6.015,6.015,0,0,0,2.1.3,62.545,62.545,0,0,1,6.613-1.258,22.4,22.4,0,0,0,6.167-2.271,38.182,38.182,0,0,1,5.182-2.935,29.968,29.968,0,0,0,5.182-2.962,64.962,64.962,0,0,0,12.631-9.869A122.539,122.539,0,0,0,88.13,253.252c1.135-1.406,2.245-3.084,3.38-4.638a24.156,24.156,0,0,1,4.071-4.762,29.551,29.551,0,0,0,4.194-4.219c1.258-1.407,2.468-2.936,3.5-4.343a1.182,1.182,0,0,0,.148-.986,9.867,9.867,0,0,1,2.813-6.884,7.415,7.415,0,0,0,2.245-2.813,8.584,8.584,0,0,1,2.245-2.813,7.352,7.352,0,0,0,1.109.84c.3.148.3.3.3.3a4.064,4.064,0,0,0,2.468,1.949l.715.3a2.219,2.219,0,0,0,.864.272,5.622,5.622,0,0,0,2.936.838h.567a6.34,6.34,0,0,0,1.678.148,2.8,2.8,0,0,0,1.109-.148h.567a3.6,3.6,0,0,1,1.26.148,23.461,23.461,0,0,0,4.366.567,17.986,17.986,0,0,0,2.813-.3,10.09,10.09,0,0,0,2.1.148h2.1c-.42,3.8-.961,8.019-1.826,12.336-.543,2.96-1.111,5.9-1.53,8.586s-.986,5.749-1.258,8.56a19.133,19.133,0,0,1-1.282,5.206,6.545,6.545,0,0,0-.691,1.95s0,.148-.3.418l-.148.42v.814a4.119,4.119,0,0,0,1.555,4.194,8,8,0,0,0,1.135,1.135,6.281,6.281,0,0,0,1.529,1.135,7,7,0,0,0,3.923,1.258,8.606,8.606,0,0,0,4.614-1.553,10.5,10.5,0,0,0,4.168-4.343,32.238,32.238,0,0,0,2.468-5.329v-.271c.42-1.432.717-2.468.987-3.528s.543-1.975.838-3.356a47.318,47.318,0,0,0,2.245-13.348v-.42a51.174,51.174,0,0,0,1.284-5.773,25.841,25.841,0,0,1,.986-4.934v-2.245a15.1,15.1,0,0,1,.272-3.528,30.607,30.607,0,0,1,.271-3.356v-.567c2.122-1.678,4.491-3.38,6.761-4.934a29.833,29.833,0,0,0,4.071-2.665,37.986,37.986,0,0,1,3.5-2.468,5.781,5.781,0,0,0,1.406-.567l1.135-.42,1.826-.418.272-.149.271-.148a19.871,19.871,0,0,1,4.368-1.8c1.85-.517,3.675-1.135,5.477-1.826a30.363,30.363,0,0,1,6.169-2.245,36.265,36.265,0,0,0,6.735-2.468,7.869,7.869,0,0,0,1.975-.715c.418,0,.986-.42,1.406-.543h.567a4.937,4.937,0,0,0,2.936-.986h.148c.3,2.664.567,5.18.84,7.574s.715,5.477,1.135,8.29a67.741,67.741,0,0,0,1.109,7.722,60.838,60.838,0,0,1,.987,7.031c.272,1.826.567,3.5.987,5.206a24.046,24.046,0,0,1,.567,4.638v.272c.543,4.219,1.258,8.413,2.1,12.508s1.555,7.994,2.468,12.065a11.291,11.291,0,0,0,1.284,3.38l.123.123.148.148c.838.987,1.678,2.122,2.468,3.231s1.7,2.468,2.468,3.653a7.672,7.672,0,0,0,6.735,3.38h1.555a3.43,3.43,0,0,0,2.664-1.135,4.291,4.291,0,0,0,1.111-3.085l.272-.418a3.227,3.227,0,0,0,1.553-.717,3.425,3.425,0,0,0,2.245-2.466c.148,0,.272.148.42.148l2.147.567.444-2.245a2.818,2.818,0,0,0,0-1.432c0-.148.418-.271.543-.567a3.965,3.965,0,0,0,.567-1.109l.418-.444a2.2,2.2,0,0,0,.567-1.678l.272-.567a14.342,14.342,0,0,0,1.135-2.665,1.6,1.6,0,0,1,.715-.986,3.86,3.86,0,0,0,1.258-1.407,2.466,2.466,0,0,0,0-2.468,8.754,8.754,0,0,0,.148-1.973,5.528,5.528,0,0,0,1.975-4.762,17.432,17.432,0,0,0-.567-4.071l-3.356-14.212-3.429-18.208a71.487,71.487,0,0,1-1.826-13.915c-.149-2.466-.444-5.18-.717-7.722a60.007,60.007,0,0,1-.418-7.574v-1.135a2.644,2.644,0,0,0-.567-2.245v-.567a2.463,2.463,0,0,0,1.553-1.406l.42-.715v-.272c.123-.148.42-.3.543-.444.864-.542,1.555-1.109,2.122-1.406a15.4,15.4,0,0,0,2.468-1.826,6.391,6.391,0,0,1,1.973-1.555,14.409,14.409,0,0,0,3.084-2.468h.543l1.406-.444.149-1.529c0-.3,0-.42.148-.567A9.407,9.407,0,0,0,252,163.815l.148-.148v-.149a5.163,5.163,0,0,0,.148-3.231,1.975,1.975,0,0,1,.125-.84ZM27.929,261.937l.148,1.258a1.431,1.431,0,0,1-.148-1.159Zm.715-1.678a11.622,11.622,0,0,1-.986-7.722,28.1,28.1,0,0,0,.691-7.722,66.883,66.883,0,0,1,.567,7.722,28.931,28.931,0,0,1-.3,7.722Zm1.258,2.1a2,2,0,0,1,.149-1.407c.123.717.123,1.284-.173,1.407Zm1.26-21.071a28.175,28.175,0,0,0-.149,5.773,16.967,16.967,0,0,1-.418-11.1,10.055,10.055,0,0,1,.567,5.329m1.553,24.45a10.069,10.069,0,0,1,0-8.585,21.408,21.408,0,0,1,0,8.585M46.459,151.11a17.824,17.824,0,0,1,.567-3.8c.418-3.8.838-7.574,1.258-11.522s.838-7.87,1.111-11.793v-.271a71.886,71.886,0,0,0,1.43-9.7,67.719,67.719,0,0,1,1.432-9.7c.271-1.135.543-1.676.691-1.676a35.131,35.131,0,0,1,2.96-3.38l2.936-2.96c1.975-1.53,3.923-2.936,5.9-4.2s3.923-2.688,5.9-4.219a44.8,44.8,0,0,0,3.923-2.468c1.258-.838,2.468-1.676,3.651-2.466s2.813-1.95,4.22-2.789a47.474,47.474,0,0,1,4.613-2.468,45,45,0,0,1,5.6-2.936,24.936,24.936,0,0,0,5.477-3.38,2.9,2.9,0,0,1,1.975-.271,18,18,0,0,0,3.651,1.826,29.673,29.673,0,0,1,3.651,1.8,10.538,10.538,0,0,1,4.146,5.921,10.362,10.362,0,0,1-.519,7.9,85.039,85.039,0,0,1-4.219,7.4,63.692,63.692,0,0,1-4.935,6.612c-3.922,4.194-7.722,8.142-11.645,11.793s-7.87,7.4-11.793,11.226c-1.826,1.555-3.5,3.233-5.329,4.935s-3.5,3.356-5.329,4.935c-4.762,3.922-9.523,8.166-14.162,12.631a21.76,21.76,0,0,0-2.665,2.468c-.715.838-1.676,1.826-2.664,2.813a4.137,4.137,0,0,0-.84,1.111c-.148.3-.567.418-1.258.418a37.838,37.838,0,0,0,.248-3.8Zm53.169,46.457a46.46,46.46,0,0,1-5.6,10.535c-2.245,3.085-4.614,6.316-7.007,9.4a184.014,184.014,0,0,1-12.78,13.915c-4.489,4.343-8.98,8.833-13.471,13.348a27.641,27.641,0,0,1-3.651,3.356,26.308,26.308,0,0,0-3.651,3.38A31.328,31.328,0,0,1,47.3,255.99c-2.122,1.258-4.366,2.468-6.612,3.948a26.365,26.365,0,0,0-2.468,1.678,27.332,27.332,0,0,1-2.813,1.678c-.148-4.935-.3-9.869-.42-14.8s-.3-9.869-.715-14.8l.42.3a1.8,1.8,0,0,1,.715,2.1,2.468,2.468,0,0,0,.42,2.468,2.472,2.472,0,0,1,.42,2.468,6.471,6.471,0,0,1-.84,2.468c-.148.715,0,1.135.42,1.282l.567-.715,1.111-7.031c.3-.987.3-1.555-.272-1.975a1.628,1.628,0,0,1-1.43-1.678V231.54a32.7,32.7,0,0,0,.444-4.638,23.236,23.236,0,0,1,.418-4.342c.272-1.826.42-3.528.691-4.935s.444-3.231.717-4.934.418-3.38.715-4.935a41.219,41.219,0,0,0,.715-4.934,50.259,50.259,0,0,1,1.53-6.613c.567-2.1,1.282-4.342,1.826-6.587a1.851,1.851,0,0,1,1.826-1.555,5.758,5.758,0,0,0,2.245-.986,73.978,73.978,0,0,1,7.4-3.923c2.468-1.258,5.206-2.245,7.724-3.233s5.477-2.466,8.14-3.5a20.285,20.285,0,0,1,8.76-2.048,46.9,46.9,0,0,0,6.44.149,35.286,35.286,0,0,1,6.464.567,10.9,10.9,0,0,1,6.834,5.747,17.738,17.738,0,0,1,.84,16.728Zm101.575-22.2a83.866,83.866,0,0,1-9.1,3.38,87.351,87.351,0,0,0-9.7,3.651h-.3a37.967,37.967,0,0,1-4.762,2.245c-1.678.715-3.5,1.555-5.182,2.468a19.178,19.178,0,0,1-2.466,1.111c-.84.3-1.53.567-2.468.863a7.822,7.822,0,0,0-4.614,2.665L159.8,193c.272-2.1.717-4.071.987-5.9.42-2.468.838-4.787,1.258-6.761a14.225,14.225,0,0,0,.567-4.194,22.065,22.065,0,0,1,.222-3.455v-.567a13.31,13.31,0,0,1,1.135-7.031v-.271c.543-2.1.987-4.368,1.406-6.612s.987-4.343,1.432-6.316a41.572,41.572,0,0,0,1.407-6.464,36.97,36.97,0,0,1,1.282-5.9v-.222a17.663,17.663,0,0,1,.543-2.813c.3-.84.567-1.826.986-2.813v-.272c.149-.986.42-1.973.567-2.811l.272-1.407.838-3.849a45.787,45.787,0,0,0,1.432-6.044,41.95,41.95,0,0,1,1.258-5.478v-.271a5.172,5.172,0,0,1,.3-1.258V112a39.454,39.454,0,0,0,2.466-10.535V101.2a14.154,14.154,0,0,1,.567-3.653c.543-1.973.987-3.946,1.407-5.773a42.6,42.6,0,0,1,1.282-5.3c.543-1.975,1.111-3.8,1.678-5.478s1.111-3.38,1.678-5.329a21.359,21.359,0,0,0,2.245-7.4,19.673,19.673,0,0,1,.493-2.96c.271-.987.543-2.1.963-3.233l.443-1.258c0,2.468-.148,4.762-.148,7.031s0,4.935.148,7.4.272,4.491.543,6.589.567,4.366.987,6.612c.42,4.491.715,9.548.838,15.026,0,1.826.149,3.528.3,5.206s.271,3.084.543,4.934c.418,3.233.838,6.613,1.282,9.87s.84,6.464,1.258,9.7c.272,2.789.567,5.6.987,8.265s.838,5.206,1.258,8.019c.42,3.38.838,6.736,1.407,9.869s.986,6.464,1.43,9.7a15.737,15.737,0,0,0,.567,3.528l.42,1.53.567,1.258Z" transform="translate(121.917 109.622)" fill="#fbb900"/>
  <path id="Path_3043" data-name="Path 3043" d="M278.057,159.762a4.687,4.687,0,0,0-4.342,3.084,4.929,4.929,0,0,0-.567,1.258.149.149,0,0,1-.149.149l-.172.2c-.42.84-.987,1.827-1.407,2.665a3.829,3.829,0,0,1-1.258,1.406l-.3.149-.149.271c-.542.864-1.109,1.555-1.529,2.122l-1.555,1.973a99.3,99.3,0,0,0-9.869,18.529c-.963,2.122-1.949,4.071-2.936,6.044a40.946,40.946,0,0,1-3.207,5.428,25.27,25.27,0,0,0-2.468,3.5,20.637,20.637,0,0,1-2.122,2.936c-2.1,2.468-4.194,5.206-6.316,8.019l-.543.715c-1.826,2.468-3.8,4.935-5.624,7.574a33.138,33.138,0,0,1-4.491,5.28,15.385,15.385,0,0,1-4.935,3.233h-.271c-1.135-.987-2.468-1.975-3.5-2.936a26.988,26.988,0,0,1-3.231-3.677l-1.038-1.06-.715-1.135a3.849,3.849,0,0,1-.567-1.53v-.3l-.271-.84-.84-2.468a34.275,34.275,0,0,1-1.135-3.379c-.418-1.678-.838-3.233-1.406-4.935a35.153,35.153,0,0,1-.987-4.786,13.614,13.614,0,0,0-.567-1.95,4.4,4.4,0,0,1-.271-1.135,3.331,3.331,0,0,0-1.258-2.121,26.519,26.519,0,0,0-.567-3.085,4.932,4.932,0,0,1-.149-2.466l.149-.692-.272-.567a7.765,7.765,0,0,1-.444-4.489,17.25,17.25,0,0,0-.123-6.046,107.177,107.177,0,0,1-.567-13.5c.148-4.342.42-8.833.84-13.051.418-3.11.715-6.046.838-9.006a34.587,34.587,0,0,0-.838-9.277,8.868,8.868,0,0,1,.271-3.774v-.3c.148-1.8.444-3.5.444-4.934s.271-3.233.42-4.762.418-2.96.691-4.638a16.642,16.642,0,0,1,1.135-4.22,30.183,30.183,0,0,0,1.826-9.7c.148-1.826.418-3.776.567-5.6a47.081,47.081,0,0,1,.961-5.773,22.323,22.323,0,0,0,.717-3.084,21.106,21.106,0,0,1,.715-2.813V89.94c.148-1.555.42-3.231.715-4.786s.716-2.936,1.111-4.491v-.271c.42-1.975.838-3.677,1.282-5.206l1.678-5.058c1.258-3.5,2.468-6.884,3.923-10.115s2.813-6.464,4.342-9.7a27.237,27.237,0,0,0,2.468-4.342,28.22,28.22,0,0,0,1.678-5.058c.543-1.432,1.111-1.7,1.111-1.7l.567-.271.271-.42a9.026,9.026,0,0,1,1.135-1.432,3.127,3.127,0,0,0,1.407-.987l.986.3.567-2.122a.588.588,0,0,1,.149-.271,4.343,4.343,0,0,0,2.244-1.135,1.614,1.614,0,0,0,.84.148h.123a.346.346,0,0,1,.3.149c.418.123.418.123.418.418v.3l.149.271a22.677,22.677,0,0,1,.838,3.38l.715,4.342.272,1.432c.271,1.826.418,3.774.567,5.626v.271a49.32,49.32,0,0,1,.542,10.264,6.687,6.687,0,0,1-.691,3.084l-1.553,2.468-.42.715a19.731,19.731,0,0,0-1.975,3.776v.3a11.229,11.229,0,0,1-1.109,3.084,6.14,6.14,0,0,0,.567,6.316v.3c0,.148,0,.271.271.838A5.258,5.258,0,0,0,241,82.81a14.059,14.059,0,0,0,1.555,2.245,3.4,3.4,0,0,0,2.468,1.406,3.58,3.58,0,0,0,1.258-.271.148.148,0,0,1,.148.148l.149.149h.123a3.831,3.831,0,0,0,2.122.567,3.535,3.535,0,0,0,2.664-1.135c.148,0,.42-.272.567-.42h.123l1.826.567.567-2.1c.149-.715.42-.863.42-.863l1.258-.691v-.3a4.384,4.384,0,0,0,1.135-1.826,3.386,3.386,0,0,0,.717-.84c.986-1.406,1.826-2.664,2.664-3.774s1.678-2.69,2.467-3.948l3.8-8.166v-.271c.42-1.258.987-2.468,1.407-3.5a20.618,20.618,0,0,0,1.282-4.368,32.65,32.65,0,0,0,.272-10.387,22.427,22.427,0,0,0-1.555-5.624l-2.1-4.638V34.5a19.066,19.066,0,0,0-2.466-3.38,14.27,14.27,0,0,1-1.8-2.244,8.766,8.766,0,0,0-4.368-3.8,9.674,9.674,0,0,1-1.949-1.53,19.9,19.9,0,0,0-8.439-5.9,26.192,26.192,0,0,0-8.833-1.43h-.838a7.556,7.556,0,0,0-1.826.271v-.075a5.224,5.224,0,0,0-2.665-.567,4.473,4.473,0,0,0-1.406.149h-.3a28.141,28.141,0,0,1-3.5.961,12.336,12.336,0,0,0-4.342,1.555,37.012,37.012,0,0,0-8.586,4.071v.148l-.148.149-.567.542-.567.149a4.933,4.933,0,0,0-3.653,2.96,16.146,16.146,0,0,1-1.949,3.084c-.838.987-1.678,2.245-2.664,3.651l-1.678,2.468-1.7,2.468a32.917,32.917,0,0,1-3.5,4.342l-.148.149v.148a64.054,64.054,0,0,0-6.613,12.213c-.838,1.973-1.529,4.071-2.468,6.193a38.221,38.221,0,0,0-1.973,6.587c-1.111,3.231-2.1,6.612-2.936,10.115a64.77,64.77,0,0,0-1.826,10.412c-.3,1.258-.42,2.468-.567,3.233a19.586,19.586,0,0,1-.567,2.468v.3c-.272,1.258-.543,2.468-.716,3.651s-.418,2.1-.691,3.38c-.567,2.936-1.135,6.02-1.826,9.549l-.42,1.949c-.443,2.468-.838,5.058-1.43,7.746a39.56,39.56,0,0,0-1.111,7.007,56.933,56.933,0,0,1-.715,6.761c-.567,3.651-.987,7.4-1.432,11.078s-.543,7.6-.715,11.4c.148,3.5.148,7.006,0,10.535s0,7.155.148,10.658l.3,8.586a90.446,90.446,0,0,0,1.826,12.064v.272c.838,3.108,1.678,6.192,2.22,9.277a87.089,87.089,0,0,0,2.468,9.7c.84,2.468,1.555,4.935,2.245,7.4s1.678,5.206,2.665,7.722a12.749,12.749,0,0,0,5.747,7.031c.3.271.444.271.444.42a3.243,3.243,0,0,0,.691.838,46.93,46.93,0,0,0,5.206,6.046,36.635,36.635,0,0,0,6.169,4.637,10.579,10.579,0,0,0,2.467,1.26,4.248,4.248,0,0,0,1.258.271,2.741,2.741,0,0,0,2.245-.987h.271a37.431,37.431,0,0,0,8.289.717h.691c1.135,0,2.122.148,3.11.148h.543a11.275,11.275,0,0,0,3.5-.715l7.031-2.665-2.122-.42.864-.418a33.7,33.7,0,0,1,3.354-1.975,41.812,41.812,0,0,0,8.291-7.4v-.3c.838-1.258,1.826-2.664,2.936-4.194s2.1-2.96,3.084-4.366l.148-.149v-.123a15.649,15.649,0,0,1,1.555-2.813,21.829,21.829,0,0,0,1.406-3.528s.149,0,.149-.271a6.2,6.2,0,0,0,1.406-2.468v-.3a8.2,8.2,0,0,1,1.135-2.466,30.412,30.412,0,0,0,1.555-2.936,3.046,3.046,0,0,1,.418-.717,3.716,3.716,0,0,0,2.1-1.678l.148-.148.123-.148.444-.987.543-1.406a5.275,5.275,0,0,1,.987-1.432l.42-.42.148-.567a4.935,4.935,0,0,1,.987-2.245,23.414,23.414,0,0,0,1.973-3.084c1.529-2.468,2.789-4.934,4.194-7.574s2.468-5.083,4.071-8.289c.567-1.432,1.432-2.96,2.1-4.638A31.967,31.967,0,0,1,276.847,178l.149-.148v-.567a7.918,7.918,0,0,1,.986-2.245,12.009,12.009,0,0,0,1.258-3.11v-.567a18.649,18.649,0,0,1,.42-3.084,2.938,2.938,0,0,0,.567-2.245,3.333,3.333,0,0,1,.42-2.466l1.529-2.122-2.466-.987a1.992,1.992,0,0,0-1.654-.691" transform="translate(211.772 106.692)" fill="#fbb900"/>
  <path id="Path_3044" data-name="Path 3044" d="M82.028,389.039H58.638l-4.687,18.21H36.409l23.982-76.238H80.967l23.98,76.238H86.691Zm-3.5-13.447-1.876-7.006c-2.121-7.6-4.1-16.6-6.217-24.672h-.443c-1.777,8.067-3.875,16.973-5.971,24.672l-1.876,7.006Z" transform="translate(140.896 270.986)"/>
  <path id="Path_3045" data-name="Path 3045" d="M93.221,396.788l33.7-51.343H96.379V330.962h51.812v10.387l-33.678,51.343h33.925v14.581H93.221Z" transform="translate(170.511 270.961)"/>
  <path id="Path_3046" data-name="Path 3046" d="M146.594,330.962h17.271v42.683c0,14.951,4.687,20.108,13.223,20.108s13.57-5.157,13.57-20.108V330.962h16.6v40.932c0,25.609-10.412,36.712-30.175,36.712s-30.494-11.2-30.494-36.712Z" transform="translate(198.334 270.961)"/>
  <path id="Path_3047" data-name="Path 3047" d="M207.476,330.962h26.079c15.913,0,28.2,4.317,28.2,18.923a16.776,16.776,0,0,1-12.879,16.506v.469c10.88,1.975,16.6,7.722,16.6,17.887,0,15.545-13.1,22.453-29.607,22.453h-28.4ZM232.742,361.7c8.413,0,12.163-3.627,12.163-9.351s-3.972-8.067-11.916-8.067h-8.069V361.7Zm1.628,32.073c9.376,0,14.285-3.528,14.285-10.412s-4.934-9.6-14.285-9.6h-9.45v20.01Z" transform="translate(230.071 270.961)"/>
  <rect id="Rectangle_439" data-name="Rectangle 439" width="17.271" height="76.311" transform="translate(522.938 601.923)"/>
  <path id="Path_3048" data-name="Path 3048" d="M361.27,389.065H337.88L333.193,407.2H315.651l23.982-76.238H360.21L384.19,407.2H365.908Zm-3.5-13.447-1.876-7.006c-2.1-7.6-4.1-16.6-6.192-24.672h-.469c-1.753,8.067-3.875,16.973-5.971,24.672l-1.876,7.006Z" transform="translate(294.068 270.961)"/>
  <path id="Path_3049" data-name="Path 3049" d="M375.625,330.962h27.83c16.6,0,29.829,6.068,29.829,24.672,0,17.887-13.693,25.831-29.829,25.831H392.945v25.807h-17.27ZM402.419,367.8c9.449,0,14.014-4.219,14.014-12.163s-4.935-10.882-14.014-10.882h-9.475V367.8Z" transform="translate(325.331 270.961)"/>
  <path id="Path_3050" data-name="Path 3050" d="M431.82,330.962h27.855c16.6,0,29.8,6.068,29.8,24.672,0,17.887-13.669,25.831-29.8,25.831H449.14v25.807H431.87ZM458.614,367.8c9.475,0,14.038-4.219,14.038-12.163s-4.935-10.882-14.038-10.882H449.14V367.8Z" transform="translate(347.019 270.961)"/>
</svg>
