<svg xmlns="http://www.w3.org/2000/svg" xmlns:xlink="http://www.w3.org/1999/xlink" width="1024" height="1024" viewBox="0 0 1024 1024"><defs><clipPath id="a"><rect width="392" height="325" transform="translate(0.173 -0.239)"/></clipPath><clipPath id="c"><rect width="1024" height="1024"/></clipPath></defs><g id="b" clip-path="url(#c)"><circle cx="512" cy="512" r="512" fill="#fff"/><g transform="translate(388.827 83.239)" clip-path="url(#a)"><path d="M2007.924,0C3116.871,0,4015.849,744.45,4015.849,1662.778S3116.871,3325.555,2007.924,3325.555,0,2581.105,0,1662.778,898.977,0,2007.924,0Z" fill="#fff"/><g transform="translate(164.713 136.403)"><path d="M1725.6,2.024c-241.781,12.659-478.2,64.56-695.8,152.751C737.079,273.892,482.751,460.893,299.3,691.717A1313.59,1313.59,0,0,0,185.237,855.578c-98.926,165.093-157.987,339.444-180.133,532C-1.539,1444.669-.433,1603.591,6.948,1665c42.821,357.033,218.9,671.165,524.162,934.708,381.674,329.571,981.138,501.454,1539.623,441.9,362.8-38.132,703.827-164.411,980.04-362.9,55-39.5,165.736-132.074,211.879-177.128,91.914-89.8,157.987-173.423,224.06-282.357,105.938-175.277,169.419-357.962,193.792-555.455,8.859-72.211,8.859-212.615,0-280.815-45.417-347.78-224.444-674.571-500.549-913.108C2870.628,202.915,2448.717,37.5,1993.216,5.421,1928.249.806,1787.243-1.061,1725.6,2.024Zm196.745,21.6C2314.355,40.9,2675.73,151.379,2975.087,345.787c117.381,76.221,241.41,181.447,326.68,277.729,107.106,122.082,192.275,256.377,252.849,398.7,52.258,123.094,86.467,250.943,101.89,380.8,5.538,49.364,5.538,190.706,0,240.7-35.068,309.5-173.858,601.133-389.427,818.372-328.523,330.805-769.627,526.763-1272.008,564.406-64.226,4.937-231.072,4.937-295.306,0-350.669-26.231-691.742-133.308-957.882-300.563-182.717-115.1-358.054-282.666-478.019-457.326C31.313,1930.385-34.76,1527.678,81.143,1151.51A1078.425,1078.425,0,0,1,146.11,983.329c89.329-190.4,227.382-365.057,409.362-517.809C888.791,185.326,1338.766,27.021,1817.88,21.159c19.2-.309,66.442.926,104.463,2.468Z" transform="translate(-0.709 -0.508)"/><path d="M1665.116,14.472C1318.992,39.125,997.568,140.82,725.168,311.547,566.028,412.9,427.413,534.616,314.54,672.107,140.541,885.979,42.5,1117.413,15.6,1376.277c-5.53,54.235-4.424,191.989,1.843,248.384,39.809,346.075,219.323,663.812,524.9,929.441,207.895,180.892,495.408,316.49,810.2,382.747C1523.2,2972.6,1682.811,2987.7,1851.265,2984c47.551-1.234,103.945-3.391,125.327-5.238,335.8-27.735,642.85-126.657,912.3-294.3,133.805-82.9,286.039-209.864,381.51-317.415,258.395-290.911,383.353-684.447,329.535-1036.992-42.025-275.813-177.305-548.233-375.615-756.554-267.983-281.363-654.273-471.5-1091.075-537.451-112.793-16.949-183.2-22.191-311.464-23.412-63.767-.617-134.174.309-156.657,1.848Zm246.967,21.262c515.315,27.735,979.389,225.579,1290.86,550.7,43.5,45.3,117.217,137.445,152.6,190.45,134.543,201.852,215.267,434.531,228.166,657.018,19.169,338.372-118.691,696.464-368.607,955.945-142.28,147.614-305.208,267.184-493.934,362.407-65.611,32.973-190.569,84.763-259.869,107.243-334.7,109.4-695.562,132.2-1048.67,66.872-341.339-63.169-651.7-207.4-870.659-404.63C257.408,2265.655,94.115,1977.826,46.564,1650.548c-8.11-56.395-11.059-199.387-5.53-261.329,17.326-187.062,72.983-359.943,169.191-522.966,91.415-154.395,194.624-274.579,343.543-399.388,91.415-76.426,165.889-128.2,265.4-183.669,243.28-135.594,517.523-218.8,801.719-242.528a2141.414,2141.414,0,0,1,291.2-4.93Z" transform="translate(32.371 26.311)"/><path d="M505.395,34.105c-8.628,2.6-5.49,8.769,9.02,18.836l14.118,10.068-6.275,74.37c-9.8,116.914-8.628,111.718-24.707,119.187-27.844,13.64-7.451,23.058,47.061,21.434,26.276-.65,32.158-1.949,33.335-6.5.784-3.248-3.137-7.47-10.2-10.392-6.275-2.6-12.55-7.794-13.726-11.691-1.961-6.5,3.137-82.489,8.236-123.085,1.569-11.367,4.706-21.434,7.451-22.084,5.49-1.624,22.746,17.537,92.161,102.949,68.238,83.139,79.219,92.232,98.828,80.216,5.883-3.572,7.844-13.965,12.157-77.293,10.2-136.4,9.412-133.152,22.746-143.544,14.118-11.042,11.765-16.888-7.843-19.486-19.217-2.923-53.728-2.923-61.571-.325-8.628,2.6-7.844,10.068,1.569,14.289a32.039,32.039,0,0,1,11.373,9.093c4.706,7.145-2.353,114.316-7.452,118.863-1.961,1.3-7.844-3.572-14.118-11.367-16.079-21.434-109.024-124.059-117.652-129.9a77.7,77.7,0,0,0-21.177-8.769c-14.9-3.572-65.493-6.82-73.337-4.871Z" transform="translate(1293.085 73.689)"/><path d="M512.132,39.747c-44.658,13.458-80.676,41.523-99.612,77.618-6.667,12.016-8.628,21.759-9.02,43.193,0,24.357,1.569,30.2,12.55,49.364,60.395,105.872,236.088,106.522,295.7,1.3,35.688-63,2.353-134.451-78.042-166.278-30.2-12.016-89.415-14.614-121.573-5.2Zm79.611,19.81c40.394,15.589,65.885,61.055,65.493,117.564,0,32.151-8.236,53.261-27.452,69.174-18.432,15.913-36.472,22.409-62.355,22.409-44.316,0-81.964-32.476-95.3-82.489-7.451-27.28-3.53-65.6,8.628-87.686,20.785-37.672,69.807-54.885,110.985-38.971Zm484.725,4.871c-4.706,4.547-3.922,6.5,5.49,13.64,12.942,9.743,12.942,8.769-8.236,102.949-20.393,92.557-20.393,91.907-31.374,95.8-5.04,1.769-8.606,5.583-9.412,10.068,0,7.47,6.275,9.093,72.552,19.81,63.532,10.392,113.73,12.016,139.614,4.871,83.925-22.409,127.848-101.326,92.552-165.3-22.354-39.946-65.492-62.354-145.888-75.345-70.983-11.367-108.24-13.64-115.3-6.5Zm147.065,37.023c19.827,9.33,36.124,23.05,47.061,39.621,11.765,17.862,10.589,73.721-1.961,96.454-11.373,21.109-44.708,47.74-65.493,52.611-18.824,4.222-52.551,4.547-65.885.325-18.824-5.846-19.217-11.042-4.314-78.592,17.648-80.866,23.922-106.846,27.452-114.316,2.745-5.2,6.275-5.846,25.491-4.222a137.645,137.645,0,0,1,37.648,8.119Z" transform="translate(1053.723 74.867)"/><path d="M819.864,57.078c-23.922,6.82-31.766,10.392-32.55,15.589-.784,4.871,2.353,7.794,11.373,10.717,11.373,3.9,12.157,5.2,9.8,16.563C804.177,121.706,755.94,200.3,746.528,200.3c-2.745,0-16.471-34.425-27.452-68.849-3.922-12.341-3.529-16.888.392-23.383,6.667-10.068,3.137-18.187-8.236-18.187-11.765,0-73.728,15.589-84.317,21.434-12.942,6.82-10.981,13.965,5.1,19.486,16.471,5.846,20,12.016,49.806,88.01,34.511,87.686,35.688,92.557,29.021,103.6-12.55,20.46,2.745,22.733,54.512,7.145,19.216-5.521,37.256-12.016,40.394-14.289,7.451-5.521,2.745-13.64-8.236-14.939-9.8-.974-23.138-20.135-31.374-45.791-4.314-13.965-3.922-14.939,9.02-30.2,7.451-8.444,15.295-15.913,17.648-16.563,5.49-1.624,39.609,17.862,69.022,38.647,19.609,13.965,22.354,17.537,23.53,29.553,1.177,11.691,2.353,13.64,10.981,14.614,5.49.325,27.452-3.9,49.022-9.743,32.55-9.093,39.609-12.016,40.394-17.862,1.177-5.521-1.961-8.119-12.157-11.691-7.059-2.6-31.374-17.537-53.728-32.8a816.323,816.323,0,0,0-69.807-43.518c-23.138-12.016-28.629-16.238-27.06-21.759,3.53-12.016,39.217-74.7,49.022-85.087,19.609-22.084.392-25.981-52.159-11.042ZM1929.713,93.127c-1.177,1.949-.392,8.119,2.353,13.965,5.49,12.99,2.745,20.785-43.139,118.538-29.021,61.38-38.041,75.02-50.2,75.345-2.745,0-5.1,2.6-5.1,6.17a11.933,11.933,0,0,0,5.1,9.093c6.275,4.547,68.238,24.032,81.964,25.981,13.726,2.273,18.04-5.846,9.412-16.888a28.618,28.618,0,0,1-6.275-14.614c0-8.444,46.669-112.692,66.669-148.091,12.55-22.733,17.256-28.254,27.452-30.852,25.491-7.47,11.765-18.187-44.708-34.1C1943.439,89.23,1933.242,88.255,1929.713,93.127Zm106.671,51.312c-7.844,6.82-14.51,15.264-14.51,19.161,0,7.47,9.8,11.042,21.57,7.145,20-6.5,61.571,1.3,70.591,13.315,2.353,2.923-53.728,93.206-86.278,139.323-18.432,25.656-26.668,32.8-39.217,32.8-16.471,0-12.157,11.042,9.02,22.084,32.943,17.537,67.061,30.852,72.944,28.9,7.059-2.273,8.628-13.64,2.353-16.888-7.844-3.9-3.53-16.238,17.256-50.338,30.982-50.663,81.18-124.708,85.886-127.306,10.981-5.846,37.257,13.965,49.414,37.023,12.942,25.007,30.2,18.187,37.256-13.965,3.53-16.563-3.137-21.759-60.395-47.09-27.06-11.691-66.669-29.553-88.631-38.971-47.845-21.434-57.649-21.759-77.258-5.2ZM402.2,203.221c-16.863,4.547-35.3,12.99-102.357,47.74-35.688,18.511-67.846,36.373-71.768,39.946-8.628,8.119-5.1,13.315,9.02,13.315a33.115,33.115,0,0,1,20.785,8.769c15.687,13.64,64.316,72.746,96.867,117.239,26.668,36.373,28.629,40.6,24.315,48.065-5.883,11.042.784,18.836,12.942,15.589,9.8-2.6,75.3-38.647,78.827-43.518,4.314-5.846-5.883-12.99-15.687-11.042-6.667,1.3-11.765-1.3-23.138-12.341-20.785-20.135-41.963-49.688-39.217-55.534,3.137-6.82,31.374-25.007,38.825-25.007,9.412,0,43.923,15.264,71.375,31.177,23.138,13.64,24.315,15.264,23.53,26.63-.784,10.717,0,12.016,8.236,11.367,10.589-.974,75.689-34.749,80.4-41.569s0-11.367-11.765-11.367c-5.49,0-25.1-8.444-45.492-19.81-19.609-10.717-46.276-24.032-59.218-29.553-13.334-5.521-24.707-10.392-25.1-10.717-.784-.65,1.961-9.418,6.667-19.486,10.2-22.084,10.2-35.074.784-52.287-12.157-22.084-49.806-35.4-78.827-27.6Zm12.157,39.3c10.589,4.871,19.217,20.46,19.217,35.074,0,19.81-29.413,51.637-61.571,66.9-4.706,2.273-44.708-45.142-52.159-61.7-4.706-9.743,6.667-21.434,32.943-33.775C373.964,238.945,399.847,236.022,414.357,242.517Z" transform="translate(542.837 106.575)"/><path d="M2428.075,118.516c-56.308,12.536-94.451,54.729-97.357,108.538-1.09,19.567,0,30.878,4.706,42.8,40.688,106.093,212.514,122.6,274.631,26.6,11.989-18.651,12.35-20.177,12.35-54.423,0-33.938-.365-35.772-12.35-55.95-13.44-22.318-41.413-46.766-66.116-57.483-35.926-14.736-77.041-18.316-115.883-10.09Zm112.252,31.5c18.526,7.95,35.6,25.072,40.323,40.358,16.71,51.962-67.567,140.336-134.045,140.336-18.526,0-48.316-12.536-59.575-25.072-30.515-33.632-14.53-88.358,38.143-129.33,39.217-30.878,81.737-40.358,115.157-26.306Zm-1042.219-3.67c-151.485,6.726-338.567,42.8-484.239,93.252-155.842,53.81-318.585,148.286-447.547,259.575C437.72,610.149,334.916,746.2,278.243,879.506c-17.075,40.053-52.673,151.953-63.924,201.791-42.5,185.28-25.064,371.17,52.312,561.954,32.331,80.106,71.2,152.258,86.823,160.818,8.353,4.281,41.049,5.2,325.111,6.421l316.044,1.53,2.181,7.645c1.455,4.28,3.631,11.311,5.1,15.913l2.181,8.561h-304.8c-205.608,0-308.416.916-315.307,3.365-5.447,1.53-70.113,33.327-143.492,70.321-150.755,76.131-147.488,73.99-131.5,99.377,24.338,38.523,96.267,121.685,158.022,181.915,125.691,123.52,260.826,216.466,439.19,302.677,209.962,101.176,411.213,154.375,682.938,180.658,62.846,5.81,259.01,4.891,332.39-1.835,120.6-11.006,241.935-31.8,343.288-58.7,156.206-41.569,345.112-120.769,472.25-198.429,149.669-91.112,292.431-212.186,402.5-341.513,47.951-56.255,61.03-78.881,52.312-89.887-1.451-1.835-63.924-35.467-138.77-74.906l-136.225-71.545-316.77-.916c-174.368-.305-317.134-1.53-317.134-2.446a54.392,54.392,0,0,1,8.718-11.312,72.753,72.753,0,0,0,11.263-16.816l2.181-6.726h311.322c357.818,0,328.394,2.445,348.375-29.047,48.677-76.436,104.985-222.887,126.056-329.282,23.248-115.569,21.432-240.619-5.1-370.877-13.8-67.265-45.045-162.653-73.019-222.273-90.455-192.311-263.007-375.749-464.623-493.465C2113.831,225.2,1893.689,159.767,1623.4,147.231c-62.846-2.751-82.1-3.056-125.327-.916Zm167.1,19.262c124.966,8.561,255.379,32.713,363.27,67.875,95.9,31.177,220.142,88.985,317.86,147.367,160.56,96.6,299.326,231.743,397.04,387.06,71.563,113.735,120.6,256.211,139.131,405.107,6.9,55.339,6.177,181-1.455,227.778-20.342,122.3-66.116,254.376-120.6,346.712-15.259,25.682-24.707,38.218-30.88,40.663-6.9,3.056-77.375,3.67-314.228,3.056l-304.781-.61-2.181-9.171c-3.632-14.065-19.609-33.327-40.323-47.694-29.06-20.785-43.229-37.913-43.229-52.894,0-17.427,14.169-40.663,34.146-56.564,18.891-14.981,34.872-38.523,34.872-51.364,0-16.205-16.71-39.134-46.861-64.816-33.421-29.047-39.609-40.663-32.7-62.37,5.447-17.732,11.624-27.212,36.327-55.95,39.609-46.473,46.135-64.205,32.7-90.5-8.353-16.206-46.135-57.785-67.932-74.3-18.891-14.065-24.338-28.128-21.071-51.962,2.906-20.177,11.263-30.878,40.323-52.287,47.951-35.467,47.951-55.034,0-100.283-9.083-8.255-9.8-8.561-5.812-1.835a76.083,76.083,0,0,0,12.349,15.286c7.628,7.031,11.624,25.072,9.444,41.894-.365,4.586-21.8,25.377-26.154,25.377-1.455,0-6.9-6.421-11.624-14.676-4.706-7.95-11.263-14.676-14.53-15.286-5.447-.916-6.177.916-4,15.589,2.906,19.872-2.181,35.159-18.161,53.81-19.981,23.847-32.331,32.1-58.849,39.442-34.872,9.477-65.387,12.23-142.751,12.536-36.692.305-67.932.916-69.383,1.835s-8.353-.305-14.9-2.751c-22.522-7.95-55.218-11.311-126.782-13.757-74.121-2.445-95.176-5.81-87.184-14.065,6.177-6.421,23.978-9.785,79.191-15.286,49.041-4.586,119.154-6.115,134.409-2.751,10.173,2.445,10.173,9.477.365,18.346-9.083,8.255-6.537,13.452,6.9,13.452,26.883,0,131.868-14.065,175.1-23.542,74.834-16.511,85-19.567,86.458-27.822,1.455-8.866-6.177-8.866-37.417.916-21.071,6.726-32.331,7.95-86.823,9.785-65.026,1.835-89.364.305-89.364-6.115,0-2.14,13.079-8.866,29.06-14.981,18.526-7.031,29.06-12.841,29.06-15.913,0-5.5-16.346-7.031-19.981-2.14-1.09,1.53-11.259,5.2-22.887,7.95-22.522,5.5-54.853,6.115-293.157,5.2-116.248-.305-244.845-4.891-263.371-9.171-4.706-1.224-13.44-7.95-19.252-15.286-7.267-9.171-12.714-12.841-18.891-12.841-11.263,0-17.436,9.785-14.53,21.707,3.631,13.146-5.812,14.371-24.338,3.365a101.214,101.214,0,0,0-30.15-11.617c-24.338-3.365-48.316-10.717-54.853-16.816-10.173-9.477-9.083-33.938,2.181-44.638,4.706-4.586,1.451-2.445-7.993,4.891-13.44,10.717-17.8,16.816-20.707,28.433-5.1,19.872.725,31.5,29.805,57.785,45.41,41.274,62.481,65.124,61.03,85.912-.365,6.115,1.09,11.925,2.906,12.841,5.812,3.056,14.9-7.336,14.9-16.816,0-12.536,10.173-32.408,17.8-34.243,3.271-.611,18.162.61,33.056,2.751q22,3.115,44.316,4.281c22.522,0,28.334,2.445,28.334,11.006,0,13.452,14.9,41.274,23.248,44.028a270.276,270.276,0,0,1,31.605,14.371c23.613,12.231,76.65,28.433,92.27,28.433,14.169,0,14.169-5.81.365-10.7a46.489,46.489,0,0,1-14.53-7.336c-1.455-1.53-12.714-5.81-25.428-9.477-30.515-8.561-56.669-27.212-56.669-40.358v-9.477l41.049,2.14c89.729,4.28,114.428,8.561,99.173,18.037-5.447,3.365-5.812,5.5-2.541,10.392,7.267,11.925,56.669,12.231,128.6.611,18.165-2.751,50.131-.305,95.9,8.255,29.06,5.5,34.511,4.28,54.12-11.617l11.263-8.866,94.086-1.224c51.947-.61,100.627-2.445,108.632-4.28,29.8-6.726,35.237-5.2,64.661,18.037a243.878,243.878,0,0,1,42.139,42.5c22.522,31.8,23.248,35.159,14.9,49.529-11.259,18.346-15.256,16.511-43.594-17.732-10.9-13.146-28.334-19.262-41.774-14.981-3.959.939-6.964,3.618-7.8,6.957s.627,6.788,3.806,8.956c4.706,2.751,5.812,6.115,4,14.676a31,31,0,0,1-7.628,14.371c-3.632,2.445-27.974,3.975-75.925,4.586-53.037.611-73.729,2.14-83.533,5.81-17.075,5.81-27.609,5.81-36.692,0a29.376,29.376,0,0,0-13.44-4.586c-10.173,0-35.237,13.452-53.4,29.047l-15.985,13.76-58.485-.305c-31.966,0-61.03-1.224-65.026-2.445-3.632-1.224-10.9-7.645-16.346-14.065-11.263-14.065-25.064-18.346-45.77-13.757a182.922,182.922,0,0,1-62.12,1.53c-18.165-2.751-26.884,3.056-26.884,18.346a29.142,29.142,0,0,1-6.537,17.121l-6.9,6.726-36.692-6.421c-19.981-3.365-39.609-5.5-43.229-4.891-7.628,1.835-18.165-11.006-14.169-16.511,1.09-1.835,14.169-4.891,28.7-6.726,36.327-5.2,36.327-5.2,31.966-11.311-2.906-4.891-10.173-5.5-62.846-5.81a1117.6,1117.6,0,0,1-146.4-9.171,53.593,53.593,0,0,1-21.8-7.337,52.859,52.859,0,0,0-17.8-7.95,117.4,117.4,0,0,1-19.609-6.115c-10.534-4.586-17.436-3.056-30.15,7.031-5.1,3.975-10.173,6.115-11.624,4.891-5.447-4.28-2.541-29.352,4-35.467,6.177-5.81,6.177-6.115-5.447-.916-16.346,7.031-36.692,22.626-43.229,32.713-12.714,21.109-.365,49.529,34.146,77.046l18.526,14.676-2.18-11.006c-1.816-9.171-1.09-10.717,5.1-10.717,9.083,0,15.985,6.421,27.974,26.906,5.447,8.866,11.989,16.816,14.9,17.732,7.267,2.445,19.981-4.28,19.981-11.006,0-8.866,5.1-9.785,22.522-4.586,41.774,13.146,54.12,14.676,104.62,12.536a762.8,762.8,0,0,0,76.285-6.421q26.437-4.672,53.4-6.726c22.523-1.224,26.884-2.75,31.966-8.866,10.173-13.146,21.432-15.286,70.838-13.452,41.049,1.224,46.5,2.14,57.395,9.171,11.624,7.336,13.079,7.336,65.387,6.115,83.925-2.445,186.357-1.835,203.432,1.224l15.985,2.445-1.451-13.146L1819.67,1384l30.88.916c38.143,1.224,47.586,6.115,31.605,17.121-5.447,3.67-19.252,11.311-30.515,17.121-24.338,12.536,5.1,11.006-259.01,11.925l-183.086.611-14.9,10.09c-30.515,21.109-33.786,21.707-102.079,21.707H1230.38l-22.522-9.785c-24.338-10.7-36.692-10.09-36.692,2.14,0,14.981,40.688,25.377,128.962,33.327,65.752,5.81,77.74,6.115,83.533,1.224a15.013,15.013,0,0,0,5.447-7.031c0-12.23,48.316-15.286,253.563-16.816l183.086-1.53,11.624-8.561c13.8-10.09,77.74-26.906,114.067-29.963l22.522-2.14v10.717a72.16,72.16,0,0,0,4,21.109c6.177,14.981,30.15,40.663,44.315,47.09,24.707,11.006,38.508,53.5,26.884,82.246-7.267,17.732-34.872,47.694-53.763,58.09-24.112,13.524-52.278,21.249-81.372,22.318-39.959,1.835-45.045,3.056-49.767,11.617-5.812,10.7-10.9,11.006-28.334,1.224-18.891-10.717-22.158-11.006-35.237-1.835-7.993,5.81-17.8,7.95-46.135,11.006-21.432,2.14-37.417,2.445-39.958.61-2.181-1.53-40.688-4.28-85.733-6.115s-91.545-3.975-103.534-4.891a135.109,135.109,0,0,0-40.688,3.056c-30.88,7.645-49.767,8.866-130.048,7.95l-76.285-.61-52.673-14.981c-29.06-7.95-57.4-15.286-63.571-15.913-8.718-.61-10.9-2.445-10.9-8.561,0-7.645.365-7.645,30.515-7.645,28.335,0,30.88-.611,34.146-7.031,5.1-9.477,19.252-8.255,18.165,1.835-1.816,11.617,11.989,13.452,85,12.23,55.943-1.224,67.568-2.14,73.379-6.726,5.812-4.28,9.083-4.586,22.523-1.835,33.421,7.336,35.962,7.336,46.135-.61a187.356,187.356,0,0,1,27.244-16.205c9.443-4.586,16.346-9.171,15.256-10.393-1.455-.916-17.436-1.835-35.6-1.835-29.06-.305-36.327-1.53-54.489-8.866-19.981-7.95-21.8-8.255-34.511-3.975a38.981,38.981,0,0,0-18.161,12.231c-3.271,5.81-8.353,8.561-18.165,9.785-7.267.916-15.985,2.14-18.891,2.751s-16.71-.61-30.88-2.751c-17.8-2.445-25.793-4.891-26.519-8.255-.725-3.056,2.541-5.2,10.173-6.42,11.263-2.14,14.9-9.477,5.812-12.23a337.5,337.5,0,0,0-41.049-3.67c-32.7-1.835-67.206-6.42-139.131-18.956-14.9-2.445-34.146-5.81-42.865-7.336-19.609-3.365-36.327-13.146-39.217-23.237-3.631-12.23,4.706-29.963,20.707-44.028a212.892,212.892,0,0,0,19.981-19.567c7.993-10.392,7.267-34.853-1.455-48.919-6.9-11.006-7.628-11.617-7.992-4.28,0,12.536-14.169,32.713-47.225,66.651l-30.88,31.8V1542.7c.365,28.128,4,33.632,51.222,75.517,20.707,18.651,40.688,38.218,43.594,43.109,6.537,10.717,4.706,25.072-6.177,42.8-6.177,10.09-6.177,11.617-1.09,11.617,2.906,0,13.44-6.726,23.248-14.676,23.613-19.567,38.143-23.237,76.65-18.956a280.48,280.48,0,0,1,37.053,6.115c9.443,3.056,35.6,7.337,40.323,6.421a103.256,103.256,0,0,1,20.707,4.281c17.8,4.891,39.609,22.012,39.609,30.573,0,5.81,15.62,14.371,22.158,12.23,2.906-.916,7.267-5.81,9.443-10.7,4-8.866,4.706-9.171,30.88-9.785,14.53-.305,54.489-.305,88.274,0,34.146.305,77.376.61,96.631.61,25.064,0,36.327,1.224,41.774,4.586,6.9,4.586,6.537,4.891-3.271,12.23-21.432,15.913,7.267,19.567,35.6,4.28a205.139,205.139,0,0,1,26.519-12.23c9.8-3.056,86.823-9.785,107.165-9.171,10.173.305,17.8-1.835,29.413-8.866,12.714-7.95,18.526-9.477,31.605-8.561,14.169.916,15.985,1.835,14.9,7.645-1.451,9.477,7.267,10.717,44.68,5.5,22.158-3.056,37.052-3.365,47.225-1.53,7.993,1.53,25.064,4.28,38.143,6.421,27.609,4.28,32.7,6.115,54.489,20.785,27.97,18.346,39.958,28.738,39.958,34.548,0,16.816-23.978,35.467-57.034,43.719-26.519,6.726-34.146,16.816-12.714,16.816,14.9,0,21.432,4.585,15.62,10.392-8.718,8.866-35.962,12.536-172.917,24.766-27.97,2.446-63.924,5.81-80.282,7.645-36.692,3.975-95.541,3.975-127.507,0-23.978-2.751-142.037-9.785-168.2-10.09-56.308-.305-120.6-5.5-139.857-11.006-28.7-8.561-34.511-8.255-45.77,3.056l-9.443,9.785-30.515-2.751c-29.06-2.751-30.515-3.365-38.507-13.146-10.173-12.841-10.534-25.981-1.09-33.937,5.812-4.891,10.173-5.81,23.613-3.975,9.083.916,16.346.61,16.346-1.224,0-1.53,4.706-7.336,10.173-13.146l10.534-10.392,21.432,3.975c11.624,1.835,32.7,6.42,46.135,9.785,31.24,7.95,54.492,5.81,52.673-4.281-.725-4.891-4.706-7.031-15.62-8.866-41.049-7.031-51.947-9.785-64.661-16.816a232.709,232.709,0,0,0-29.06-11.925,211.786,211.786,0,0,1-27.609-10.717c-14.169-7.031-14.169-6.726-26.154,14.981-8.353,14.676-15.256,18.346-23.248,12.841-7.267-5.2-31.605-4.586-44.68,1.224-11.263,4.891-29.805,21.4-29.805,26.6,0,4.28-21.432,11.311-29.06,9.785-9.443-2.14-36.692-38.828-38.868-51.962a54.1,54.1,0,0,1,4-25.377c10.534-26.306-.726-17.121-29.413,23.237l-17.436,24.766-67.207,1.835c-37.052,1.224-176.913,2.14-310.6,2.14-220.868,0-244.48-.61-252.108-5.2-14.9-8.561-65.026-107.009-92.27-181.3-46.5-125.66-62.481-221.052-59.575-347.933,2.541-122.3,17.436-193.84,70.113-340.6,67.928-190.217,227.041-377.929,436.285-515.209,132.947-86.831,243.39-137.277,394.875-179.775,186.717-52.28,367.27-71.85,550.713-59.62ZM1018.955,1862.487c9.083,4.28,9.083,16.511,0,38.218l-6.9,16.511,19.981-9.477c23.613-11.311,39.217-11.925,77.376-4.28,14.9,3.056,38.507,6.726,51.947,8.255,34.872,3.361,37.417,4.585,47.951,19.567,9.8,14.676,17.436,16.816,35.962,10.717,7.628-2.445,11.259-1.224,24.707,8.255a204.615,204.615,0,0,0,35.6,18.651c17.8,6.726,23.248,7.34,49.041,5.5a241.506,241.506,0,0,1,63.211,4.281,389.852,389.852,0,0,0,49.767,6.115c13.44,0,15.256-.61,13.44-6.115-2.906-8.866,1.816-21.4,7.993-21.4a64.886,64.886,0,0,1,17.075,5.81,172.305,172.305,0,0,0,31.966,9.785,165.138,165.138,0,0,1,27.244,7.645c4,2.14,21.432,4.586,38.868,5.81,38.507,2.75,71.2-4.281,101.353-22.012,20.707-11.925,41.049-14.371,49.021-5.5,2.906,3.365,17.075,3.975,74.47,3.365l70.838-.916,30.515-11.006c35.962-12.536,57.76-15.589,84.278-11.311,25.064,3.975,39.217,15.286,39.217,30.878,0,25.981-26.154,38.218-113.7,53.2-74.121,12.536-100.624,19.567-105.71,27.822-2.181,3.056-6.538,9.477-10.173,14.065l-6.9,8.561h83.925l15.62-11.925c11.259-8.866,21.432-13.146,39.217-16.816q13.805-3.109,27.974-4.891c13.8,0-10.534,30.573-31.24,39.442-14.53,6.115-65.752,15.588-85,15.588-10.9,0-10.9.305-8.718,12.23s1.816,12.536-9.444,16.511a441.4,441.4,0,0,1-50.857,11.006c-38.143,6.42-39.217,6.726-52.672.916-18.161-7.645-21.8-13.146-15.62-25.377,6.962-12.558,21.836-20.825,38.507-21.4,11.989,0,21.8-6.726,17.8-12.23-5.1-7.031-107.891.919-120.24,9.477-7.628,5.2-6.538,8.255,7.628,22.012,15.62,15.286,15.985,18.956,1.816,25.071-11.263,4.891-77.74,10.393-127.142,10.7-25.429,0-28.335-.611-41.049-9.477-25.064-17.427-13.079-33.327,25.429-33.327,19.252,0,26.883-3.975,19.609-10.09-2.906-2.445-24.707-3.365-72.289-2.751-37.417.611-73.019-.305-79.556-2.14-8.718-2.14-12.714-1.835-15.62,1.53-6.9,6.726-2.906,10.392,17.8,17.427,53.037,18.04,22.887,32.1-70.838,32.408-29.413.305-37.782-2.14-37.782-11.925s-7.267-12.841-36.692-17.121c-73.38-10.392-102.8-21.11-126.056-45.249-20.342-21.109-26.519-30.268-29.413-42.5-1.816-7.031-8.718-12.23-34.872-25.682-46.861-23.847-63.21-38.523-63.924-56.561-.365-14.371-6.537,4.586-6.537,21.4-.365,12.231,1.455,18.651,7.267,24.458,4,4.585,13.079,14.676,19.981,22.626s29.06,25.682,49.041,39.439c39.958,27.212,49.414,38.828,50.131,63.289.365,17.427,11.624,38.523,23.613,44.944,19.252,10.717,159.838,42.8,199.8,45.859,8.357.61,29.805,3.056,47.59,5.81,63.924,9.477,125.327,11.617,232.856,7.95,78.827-2.445,111.522-4.891,147.488-10.392,90.815-14.371,169.281-38.523,185.631-57.158,4-4.891,7.992-16.816,10.173-32.1,4-27.517,2.541-26.306,56.308-59.009,66.477-40.664,81.372-57.483,81.372-90.807v-20.177l-23.248-18.956c-31.99-25.734-36.7-38.893-21.793-59.376l5.1-6.726h317.134c292.431.305,317.86.61,329.849,5.5,6.9,2.751,69.022,34.548,137.315,70.626,94.812,50.143,123.511,66.651,122.06,70.321-15.62,35.162-135.5,163.573-223.409,240-169.281,146.757-356.732,251.93-586.69,328.983-356,119.545-779.577,128.411-1153.38,24.766-142.037-39.439-263.371-90.193-406.86-169.993-91.906-51.364-153.3-93.557-232.492-160.513-92.635-77.657-157.3-144.006-221.578-226.553-15.985-20.785-28.7-39.748-28.334-42.193,1.09-4.585,257.559-136.055,270.635-138.806,14.169-3.056,619.009-2.14,626.276.916Z" transform="translate(293.96 254.989)"/><path d="M1296.59,156.089c-38.433,11.068-81.572,36.049-127.848,73.679l-30.589,25.3-10.2-10.753c-32.158-33.5-83.141-68.934-113.338-78.738-20.785-6.323-60-2.845-78.042,6.956-8.628,4.745-35.688,14.861-60.395,23.084S815,216.169,795,223.126c-35.3,12.341-36.08,12.649-43.923,28.777a306.046,306.046,0,0,0-14.511,38.578c-3.529,12.016-6.667,23.708-7.451,25.929-1.177,2.53-10.589,1.263-32.158-4.427-42.747-11.068-98.043-13.283-129.025-5.375-25.883,6.323-49.806,23.4-54.12,37.945-1.569,5.06-17.256,38.9-34.9,75.578-28.629,59.451-32.158,68.619-32.158,87.595,0,19.921,1.569,23.708,25.491,61.347,14.118,22.136,25.883,40.793,26.276,42.057.784.948-24.707,2.215-56.865,2.53C359.3,614.294,284,623.781,284,633.582c0,1.263,9.8,19.921,21.569,41.108a695.617,695.617,0,0,1,36.08,76.209c17.256,44.9,15.295,43.953,83.925,43.953h46.669v23.708c0,33.837,5.49,37.315,78.435,47.435,32.158,4.745,33.335,5.693,51.375,33.837,12.942,20.869,14.118,30.989,4.706,43.953-4.706,6.323-5.49,10.12-2.745,12.341,3.137,2.53,9.412,0,21.57-8.223,22.354-15.179,38.041-20.239,61.571-20.239,31.766,0,43.531,14.546,18.04,22.451-15.687,4.745-6.275,10.12,19.609,10.753a290.585,290.585,0,0,1,46.276,6.323c24.707,5.375,25.883,5.06,54.512-1.263,20-4.427,47.061-7.275,87.062-8.538,63.14-2.53,75.3-7.275,27.844-11.383-92.945-8.223-172.948-18.024-187.851-23.4-12.942-4.745-37.256-22.136-37.256-26.247,0-5.06,9.412-6.008,29.413-3.163,10.981,1.582,42.355,5.06,69.807,7.59s51.375,5.06,52.943,6.008a243.044,243.044,0,0,0,26.276,3.478q22.933,2.157,45.492,6.323a235.044,235.044,0,0,0,29.021,4.745c3.53,0,16.471,5.693,28.236,12.649,20.393,11.691,23.923,12.649,47.453,12.649a186.2,186.2,0,0,0,38.041-3.478c9.02-2.845,28.237-2.845,69.807-.633,47.845,2.215,58.434,3.793,65.493,8.853s16.471,6.641,50.2,7.9c44.708,2.215,54.512-.325,50.2-11.383a18.989,18.989,0,0,0-10.98-9.171c-5.1-1.9-9.02-5.375-9.02-7.9,0-6.956,30.589-7.9,60-1.582,20.393,4.427,35.3,5.06,86.278,3.793,33.727-1.263,67.454-2.845,74.513-4.111,7.844-1.263,12.55-.633,12.55,1.582,0,1.9-3.922,4.111-8.628,4.745-97.651,16.128-129.809,26.247-72.552,22.769,82.748-5.06,161.967-5.693,177.654-1.263l16.079,4.745-9.412-23.4c-10.589-27.2-10.981-35.1-3.53-49.646l5.49-10.753,54.512-1.263c83.533-1.9,98.435-9.8,102.357-53.758,1.961-21.187,1.961-21.5,14.118-23.4,7.059-.948,29.021-.325,49.021,1.582,19.609,1.582,38.433,2.53,41.178,1.582s10.981-12.649,18.04-25.929c7.451-13.283,29.805-44.271,49.806-68.3,20-24.357,36.472-46.168,36.472-48.389,0-12.341-96.867-34.152-177.262-39.845l-50.59-3.793,16.471-12.649c9.02-6.956,24.707-20.869,35.3-30.989,27.844-26.562,27.452-31.307-8.236-133.444-9.02-26.247-18.04-53.758-20-61.032-7.059-28.777-29.413-49.013-65.1-59.451-30.982-8.853-101.965-4.112-147.065,9.8-6.275,1.9-6.667-1.263-4.314-41.742,2.353-43,1.961-43.956-7.059-52.176s-159.222-70.834-192.557-80.32c-21.962-6.008-59.61-5.375-84.709,1.9Zm94.121,12.016c26.276,9.171,32.158,20.239,29.413,52.491a209.494,209.494,0,0,1-13.334,54.073l-11.374,28.459-16.079,1.9c-21.962,2.215-38.433,11.691-92.553,53.443-36.08,28.144-47.453,34.785-50.2,31.307-1.961-2.53-11.765-17.391-21.961-32.889-9.8-15.813-29.413-42.375-43.139-59.451l-24.707-30.989,7.451-8.538c10.2-11.383,48.237-40.793,76.082-58.818a294.472,294.472,0,0,1,79.219-35.724c20.785-5.375,58.826-3.478,81.18,4.745Zm-369.427,12.341c59.218,23.708,136.084,105.3,201.969,214.4,20,32.889,40.394,69.885,45.492,81.586l9.02,21.5-27.452,22.136c-14.9,12.341-51.767,38.578-81.964,58.184l-54.9,36.049-2.353-44.9c-3.922-67.041-16.864-105.934-55.689-168.226-19.609-31.307-28.628-42.057-51.767-60.73-21.177-17.076-31.374-23.084-42.355-24.666-16.471-2.53-36.08,2.53-41.57,10.753-6.275,8.538-8.236,2.53-12.942-35.415-3.53-27.51-3.53-41.108,0-56.288,12.157-53.124,60.787-75.893,114.514-54.391Zm473.745,29.092c33.727,13.6,65.1,27.829,69.022,31.622,6.667,6.008,7.059,10.12,4.706,43.638a343.725,343.725,0,0,1-4.706,44.271c-1.569,4.427-9.412,9.171-22.354,13.6-30.2,10.435-85.1,35.724-136.084,62.611a442.293,442.293,0,0,0-80.788,53.758c-19.609,16.443-36.864,28.459-37.648,27.2A82.35,82.35,0,0,1,1280.511,472c-4.314-10.753-3.922-11.691,13.726-26.877,70.2-60.73,105.887-110.679,130.986-184.672,7.844-22.769,11.373-65.774,5.883-72.747-1.177-1.582-1.569-3.163,0-3.163,1.177.01,29.8,11.078,63.924,24.99ZM907.555,198.795a61.337,61.337,0,0,1-6.667,12.016c-5.883,8.223-7.059,18.024-7.059,54.391.392,55.654,4.706,70.834,33.335,117.317,35.688,58.5,65.885,92.654,120.4,137.241l48.629,39.52-1.176,30.989-1.177,30.989-58.826-65.774c-59.61-66.407-83.925-89.806-141.182-134.078C840.1,379.979,784.02,343.93,754.607,331.6c-7.451-3.163-14.118-5.693-14.51-6.008-1.961-1.263,17.648-60.73,23.53-71.772,5.49-10.435,9.412-12.341,71.768-33.837,67.454-22.769,72.16-24.032,72.16-21.187ZM653.819,314.533c77.65,9.486,147.457,46.168,256.089,134.393,37.256,30.04,63.14,55.654,119.221,117.95,70.983,78.738,113.73,117.635,170.6,154.95,10.981,7.275,19.609,14.861,19.609,16.761,0,6.008-20.785,9.171-74.513,11.068-60,1.9-111.769-5.06-152.163-20.554-32.55-12.341-77.65-44.9-94.906-68.3-15.295-20.554-27.844-32.889-95.69-95.184-54.512-49.646-109.416-94.233-139.221-112.26-17.256-10.753-26.668-13.913-41.57-15.179-24.707-1.9-41.57,3.793-49.806,16.128l-5.883,9.486-7.843-7.59c-23.138-23.708-41.178-69.252-36.08-92.654,5.1-25.929,17.648-37.63,49.414-46.483,24.315-6.641,43.923-7.275,82.749-2.53Zm729.049,11.383c-14.51,25.3-24.707,38.578-47.061,62.929-26.276,28.459-58.826,58.184-63.532,58.184-3.53,0-23.53-33.2-23.53-39.527,0-4.745,82.356-69.567,105.495-83.165,9.412-5.693,21.177-10.12,26.276-10.12h9.02l-6.667,11.691Zm-419.232,2.215c42.747,14.546,97.651,87.91,120.789,162.537,18.432,57.869,16.864,58.817-30.2,20.869a498.832,498.832,0,0,1-65.493-63.244c-30.2-36.695-65.493-90.138-65.493-99.624,0-12.016,10.589-21.821,26.668-24.666a72.033,72.033,0,0,1,13.726,4.112Zm777.679,5.375a90.108,90.108,0,0,1,30.982,21.5c10.2,11.691,11.765,16.443,11.765,32.889-.392,21.821-8.235,37-34.119,64.826l-15.295,16.761-10.2-6.641c-18.824-12.016-43.924-8.223-105.495,16.128-41.57,16.443-72.552,34.467-113.338,66.089l-31.374,24.357-86.278,10.435c-102.75,12.016-185.5,30.359-237.264,52.494l-32.943,14.231L1110.7,639.3c-6.667-6.956-6.667-7.59,3.922-13.6a1461.4,1461.4,0,0,0,183.537-129.651c64.317-54.706,78.435-64.192,138.829-94.551,110.2-55.973,183.929-78.423,249.422-76.842,29.021.633,39.217,2.53,54.9,8.853ZM513.421,404.956c10.589,46.8,93.337,121.428,170.6,154,31.374,13.283,93.729,28.459,109.808,26.562,10.2-1.263,14.51,1.263,40.394,25.614,37.649,35.1,61.571,62.929,59.218,68.3-3.922,7.9-121.181,43.323-173.732,52.494-18.824,3.163-18.824,3.163-55.3-15.179l-36.472-18.658.784-26.562c.784-23.708,0-27.829-7.844-34.467-12.157-10.753-29.021-15.494-68.63-19.291-19.216-1.9-34.9-3.793-35.3-4.111s-10.981-16.443-24.315-35.415c-23.923-35.1-36.08-59.451-36.08-72.1,0-7.9,47.845-112.89,51.375-112.89,1.569,0,3.922,5.375,5.49,11.691Zm1309.465,90.755c11.373,34.152,12.55,47.435,5.1,57.869a513.434,513.434,0,0,1-38.825,35.1l-33.727,28.144-34.9,2.53c-52.551,3.478-60.395,8.853-65.493,44.271-1.569,8.538-3.922,16.443-5.49,18.024-1.569,1.263-23.138,10.435-47.845,20.239l-44.708,18.339-31.766-8.853c-17.256-4.745-49.414-15.179-71.375-22.769-78.826-27.511-156.084-37.315-259.618-32.57-33.335,1.582-61.571,1.9-62.748.948-3.529-2.53,10.2-9.8,40.786-21.821,45.884-17.709,129.809-35.1,222.362-45.853,118.436-13.913,147.849-19.291,201.185-37,56.081-18.339,95.3-36.373,122.358-55.973,24.315-17.709,61.179-55.973,70.2-73.049l6.667-12.649,9.02,26.877c4.706,14.861,13.334,40.793,18.824,58.184ZM645.191,456.184c9.412,4.745,32.158,20.239,50.2,33.837,34.9,26.247,99.612,83.483,97.259,85.695-3.137,2.215-44.315-6.323-74.513-15.494-30.982-9.8-76.474-33.837-111.769-59.756-24.707-18.024-30.2-26.881-24.707-38.578,7.844-16.761,37.256-19.606,63.532-5.693ZM1715.43,470.73c10.589,10.435-17.256,30.359-74.513,53.758-38.825,15.813-101.181,34.785-123.534,37.945l-15.687,2.215L1521.3,548.52a337.423,337.423,0,0,1,90.2-54.391C1668.762,469.149,1705.234,460.926,1715.43,470.73ZM545.971,627.265c44.316,4.427,60,9.171,67.454,19.921,5.49,8.223,5.49,9.171-2.745,14.546-4.706,3.163-22.354,9.486-39.217,14.231-50.2,13.913-78.827,24.032-89.415,31.937-9.412,7.275-9.8,9.171-9.8,40.793,0,18.339-1.177,33.837-2.745,34.467-1.961.948-25.491.633-52.943-.325l-49.806-1.582L352.63,744.572a687.9,687.9,0,0,0-34.119-72.422c-10.981-19.606-19.216-36.373-18.04-37a373.117,373.117,0,0,1,40.394-5.693c47.061-5.693,160.006-6.641,205.106-2.215Zm1331.034,8.223c51.375,7.59,109.024,21.5,109.024,26.247,0,1.263-14.9,20.239-33.335,42.375a697.159,697.159,0,0,0-47.061,64.192l-13.726,24.357-30.2-2.215c-16.471-.948-38.433-1.9-49.021-1.9h-18.824V752.5c0-35.724,0-36.373-10.981-43.638a465.672,465.672,0,0,0-47.453-23.084c-58.042-25.3-73.336-38.264-56.865-49.331,14.51-9.8,135.3-10.435,198.439-.948Zm-547.473,34.46c48.629,6.956,86.278,15.813,120.789,28.777,103.926,38.578,212.95,57.551,286.678,49.646a354.676,354.676,0,0,0,38.433-5.693c6.275-2.215,6.667,1.263,6.275,43-.392,76.208-5.1,80.32-97.651,80.32-51.375,0-60.395-.948-94.122-9.171-70.2-17.076-114.906-33.519-190.2-69.885-64.316-31.307-79.219-37-107.848-42.375a342.835,342.835,0,0,0-42.354-6.641c-5.883,0-24.707-11.068-54.12-32.57-24.315-17.709-44.708-33.2-44.708-34.467,0-6.641,133.339-7.275,178.831-.948Zm366.289,9.168c10.589,5.693,33.335,16.443,50.59,24.032,41.178,17.709,45.1,25.3,16.864,31.622-21.57,4.745-106.671,4.111-106.671-.948,0-4.427,6.667-43.323,9.8-58.5,1.176-5.693,3.922-9.486,6.275-8.223C1674.644,668.052,1685.233,673.427,1695.822,679.117Zm-1087.1,65.777c-7.844,3.793-70.591,3.163-85.886-1.263-19.609-5.06-34.9-14.861-34.9-21.5,0-8.853,14.118-15.179,71.768-31.622l51.767-14.546,1.177,33.2C613.425,733.511,612.249,743,608.719,744.894ZM930.3,706.63c25.883,18.973,45.1,29.407,69.807,37l18.04,5.693-50.982,29.092c-28.236,15.813-60.395,32.57-71.768,37-38.433,15.809-107.455,36.048-142.751,41.742-70.591,11.383-212.165,4.427-255.7-12.341-13.726-5.375-14.51-9.486-10.981-61.662l2.745-41.427,14.118,6.641c26.668,12.649,120,10.753,207.851-4.427,41.178-7.275,140.79-33.837,168.634-45.22a143.934,143.934,0,0,1,23.922-7.9c2.745,0,14.9,6.956,27.06,15.813Zm716.5,8.86c-1.569,10.753-3.922,19.921-5.1,20.554-2.745.948-49.414-6.008-59.61-9.486-3.922-.948,6.667-6.956,29.413-16.761,19.609-7.9,36.08-14.546,36.864-13.913C1649.153,696.209,1648.369,705.055,1646.8,715.49ZM655,724.343c24.315,12.964,23.138,14.861-9.02,18.339L625.19,744.9V728.769c0-8.853,1.961-16.128,3.922-16.128,2.353,0,13.726,5.375,25.883,11.691Zm711.4,61.029c9.8,3.793,32.55,14.231,50.982,23.084s53.335,23.4,78.042,32.255,45.492,17.709,46.276,19.606-11.373,4.111-31.766,5.693c-21.57,1.263-33.727,3.478-35.3,6.323-2.745,5.693,1.177,7.9,13.334,7.9,14.118,0,25.883,10.12,18.432,15.494-4.314,2.53-8.628,2.53-18.432-.325-10.2-2.845-27.06-2.53-71.768.325-37.648,2.53-110.593,3.793-203.145,3.163-127.456-.948-145.1-.325-151.379,4.111-11.373,7.9-31.374,15.179-41.963,15.179a88.252,88.252,0,0,1-23.923-5.375c-23.138-8.853-16.863-17.709,15.687-21.187,20-1.9,32.158-8.223,27.844-14.231-1.961-2.53-6.667-1.582-15.295,2.215-23.53,10.12-161.183,6.323-209.812-6.323-13.726-3.478-24.315-7.59-23.53-9.486.784-1.582,19.216-8.538,40.394-15.179,55.3-16.761,74.905-24.032,104.71-40.16l26.276-14.231,87.454,2.215,87.455,2.215,18.432-10.753,18.04-10.435,87.847.325c82.356.325,88.631.948,105.1,7.59ZM609.9,1931.357c-5.883,5.06-8.236,9.8-6.667,13.6,3.137,8.223,24.707,25.614,38.433,31.307,15.687,6.641,76.081,17.709,90.592,16.443,17.648-1.267,17.648-8.223,0-10.753-25.883-3.478-74.121-25.929-92.945-42.69a153.421,153.421,0,0,0-18.824-15.494,39.881,39.881,0,0,0-10.589,7.59Zm74.121,84.113c0,4.112,7.451,9.487,22.746,16.761,19.609,9.171,22.354,12.016,23.53,21.5,1.961,15.179,6.275,18.024,31.374,20.554a318.509,318.509,0,0,1,37.649,6.323c23.53,6.641,50.59,5.693,56.473-1.9,3.529-4.745,9.02-6.323,21.962-6.323,10.2,0,18.824-1.9,21.962-4.745a22.26,22.26,0,0,1,12.942-4.745c15.687,0,.784-5.693-18.824-7.275-10.589-.948-27.452-3.163-37.256-4.745-31.374-5.693-60.787-10.435-66.669-10.753-12.942-.633-65.493-16.127-79.219-23.4-17.648-9.171-26.668-9.8-26.668-1.267ZM540.873,2200.143c-6.275,7.59-4.706,15.494,5.1,24.666,4.314,4.112,5.1,9.486,3.53,19.606-2.745,15.809-78.042,189.1-87.062,199.852a34.675,34.675,0,0,1-17.648,9.171c-13.726,2.53-21.177,11.691-18.04,22.451,2.745,8.223,21.962,17.391,49.414,23.4,9.8,2.215,40.786,10.753,68.63,19.606,183.145,56.287,273.737,48.064,334.523-30.359,42.747-55.024,49.414-105.934,20.393-156.21-14.51-25.3-55.3-58.5-89.023-72.747-32.55-13.913-230.205-67.041-249.03-67.041-10.981,0-16.079,1.9-20.785,7.59Zm198.047,83.788c51.375,35.1,57.257,100.874,13.726,160.007-29.021,39.845-72.16,61.347-114.906,57.551-20-1.9-37.649-10.753-39.217-20.239-2.353-13.283,74.513-186.254,91.768-205.86,9.02-10.418,25.1-7.255,48.629,8.554Z" transform="translate(710.694 240.678)"/><path d="M1950.928,2174.363c-100.318,22.831-206.84,49.926-212.675,54.19-5.1,3.959-8.024,4.261-15.687,1.523-5.49-2.131-28.452-3.654-56.179-3.654-43.045,0-48.155.61-55.084,6.395-8.389,7-6.93,15.527,4.741,26.182,5.49,4.872,6.2,7.609,3.283,12.481-6.93,10.961-30.28,32.574-49.249,45.665-20.785,14.309-64.2,37.14-70.771,37.14-3.282,0-4.377-11.263-4.377-41.4v-41.4l12.769-9.437c8.753-6.395,12.769-11.873,12.769-17.657,0-14.916-6.2-16.439-79.525-17.352-37.209-.61-72.944-.305-79.89.913-24.8,3.654-28.452,26.484-5.836,35.616,9.487,3.654,10.2,5.479,13.134,29.833,1.459,14.309,2.188,63.329,1.824,108.681l-1.094,83.11-12.04,9.132c-9.851,7.307-12.04,10.961-10.945,18.875,1.823,16.439,9.851,17.963,91.2,17.047,78.8-.913,84.266-2.13,84.266-19.486,0-7.915-2.553-10.656-18.24-18.265-5.49-3.043-6.565-8.525-8.024-40.488-1.094-39.881,2.918-52.056,17.875-52.056,8.024,0,25.883,19.18,51.8,54.8,21.887,30.749,22.617,32.574,13.863,41.706a29.062,29.062,0,0,0-7.294,16.745c0,14.917,14.228,17.657,95.576,17.657,58.732,0,71.866-.913,78.8-4.872,13.134-7.612,9.852-21.918-7.294-31.661-8.753-4.872-19.334-15.832-29.55-30.443a843.136,843.136,0,0,0-78.062-94.976c-10.589-11.263-19.334-21.616-19.334-22.831,0-3.348,92.294-80.067,96.306-80.067a52.984,52.984,0,0,0,15.322-7.613c10.2-6.7,13.134-7,24.076-3.959a67.925,67.925,0,0,1,16.416,6.7c5.491,4.261,25.883,61.8,45.963,131.2,21.887,74.89,21.887,74.89,11.31,87.065-16.052,18.265-9.851,33.184,13.863,33.184,15.322,0,194.435-37.14,232.739-48.1,67.489-19.486,95.576-47.49,95.941-94.983.365-23.747-8.024-39.27-29.915-55.709-14.228-10.655-43.41-20.4-60.92-20.4-13.134,0-13.134-4.566.365-18.57,17.146-17.657,25.534-41.1,20.428-56.625-4.59-15.161-15.267-28.579-30.28-38.052-27.362-17.047-55.449-18.57-112.358-5.784Zm8.388,55.1c12.769,11.873,13.134,27.095.365,47.795-10.2,17.657-35.386,38.358-44.5,36.834-4.377-.611-8.753-9.743-16.052-32.879-11.675-38.357-12.4-46.272-3.282-52.972,17.875-13.7,47.786-13.091,63.473,1.218Zm48.52,115.989c25.883,16.745,33.927,43.518,19.7,66.67-9.644,16.461-28.764,27.709-50.708,29.833-15.322,1.218-18.24.305-23.711-5.784-8.388-10.045-21.177-46.883-21.887-63.329l-.365-13.4,25.534-11.568c14.228-6.395,28.091-11.873,31.374-11.873s12.4,4.261,20.064,9.438ZM456.009,148.08C331.247,242.758,323.952,248.847,323.952,257.067c0,6.089,7.294,9.132,17.146,7,6.565-1.523,65.3,45.97,129.868,105.028,25.883,23.747,28.087,26.79,28.087,38.971,0,10.961,1.094,13.091,7.294,13.091,8.024,0,12.4-3.043,101.047-70.931,34.656-26.79,63.473-50.536,63.473-53.261,1.459-14.916-14.593-37.14-25.883-37.14-8.024,0-10.2,3.348-20.064,31.661-5.49,15.829-9.851,21.311-32.468,39.27-32.468,26.182-41.221,30.443-52.9,25.266-10.589-4.871-62.379-52.972-62.379-58.457,0-7,54.72-46.272,68.948-49.013,17.875-3.654,18.24-10.35.729-25.877-16.416-14.916-23.711-14-31.009,2.741-4.012,9.743-54.355,49.624-62.748,49.624-4.741,0-36.845-27.7-46.692-40.186-6.2-8.22-6.2-8.525,1.459-17.657,17.51-20.7,60.555-43.843,87.188-47.49,12.4-1.523,14.957-3.043,14.957-8.827,0-7.609-22.252-25.877-31.374-25.877-2.918,0-13.134,5.784-22.617,13.091Zm2244.228,60.581a25.319,25.319,0,0,0-2.188,13.091c.729,8.525-3.282,13.091-34.656,38.358-19.7,15.829-55.814,42.622-80.254,59.974-40.127,28.007-45.962,31.05-59.1,31.05-17.146,0-20.785,3.348-14.228,13.4,7.294,11.873,57.649,54.19,62.379,52.667,2.553-.607,4.741-6.395,5.49-13.091,1.094-9.743,4.741-14.916,20.064-28.007a366.578,366.578,0,0,1,32.468-24.049l13.863-7.914,16.416,10.35c8.753,5.784,17.146,12.481,18.24,15.222,2.553,6.7-10.2,39.27-24.8,62.1-10.946,16.745-12.769,18.265-25.17,19.18-20.428,1.523-17.875,7.914,13.863,38.358,21.177,20.093,29.915,26.182,35.751,25.572,6.2-.607,7.659-3.043,8.024-11.568,0-5.784,5.835-20.4,12.4-31.966,6.93-11.873,17.51-32.879,23.711-47.188,10.946-24.964,11.675-25.877,21.887-24.964,37.939,3.043,55.085,1.825,67.489-4.261,28.091-13.4,36.845-44.142,20.428-70.629-11.31-18.265-117.828-119.337-125.856-119.337a8.806,8.806,0,0,0-6.2,3.654Zm60.92,74.585c42.315,29.833,43.774,64.54,2.918,78.238-13.863,4.566-16.781,4.566-32.1.305-18.6-5.177-58.732-29.833-58.732-36.227s62.379-50.536,71.5-50.536c2.537,0,9.843,3.654,16.4,8.22ZM272.519,296.337c-8.753,4.261-46.327,46.272-47.79,53.261-.729,5.177,1.094,6.089,11.675,6.395,9.487,0,20.428,4.566,44.868,19.18,17.51,10.655,31.739,21.311,31.739,23.747,0,6.089-71.866,83.11-77.7,83.11-2.553,0-17.51-8.827-33.562-19.486-23.711-15.829-29.55-21.311-31.009-29.531-3.647-20.093-17.146-13.4-51.8,24.964-19.7,21.918-18.6,28.615,3.647,27.095,10.589-.607,29.915,10.045,102.506,56.015,84.631,53.884,80.619,50.838,82.807,63.328,2.188,10.655,9.487,16.439,16.416,13.091,8.389-4.566,50.708-53.261,50.708-58.756,0-7.609-6.2-9.743-17.875-6.089-10.2,3.043-18.6-1.218-63.473-30.748l-28.456-18.875,6.2-8.22c12.4-16.439,68.583-74.279,72.944-75.8,2.553-.607,21.887,9.743,43.045,23.441,29.55,19.18,38.668,26.484,38.668,31.966,0,9.132,9.851,17.657,16.416,14.614,9.483-4.566,53.261-53.586,52.159-58.457-.729-3.348-5.49-4.871-15.687-4.871A54.492,54.492,0,0,1,451.6,418.4c-33.562-19.788-152.12-94.678-157.591-99.549a30.516,30.516,0,0,1-7.294-14.614c-1.094-10.045-5.49-12.179-14.228-7.914Zm2626.9,108.074a8.662,8.662,0,0,0-2.553,8.827c2.918,6.089-5.49,11.568-80.984,54.8-90.835,52.056-102.871,57.538-115.275,53.586-12.04-3.959-17.51-1.218-15.687,7.307,2.188,9.132,111.263,144,119.287,147.952,3.647,1.523,7.659,7.915,9.118,14.309,3.282,15.222,24.075,49.925,32.468,53.884,7.659,3.959,13.5-1.523,13.5-13.7a17,17,0,0,1,6.565-12.48c3.282-2.436,36.472-15.829,73.336-29.229,60.191-22.529,80.619-28.313,80.619-23.441,0,3.043-34.292,58.756-73.336,119.031-21.887,33.486-40.857,65.147-41.962,70.324-2.918,12.179,9.483,23.747,22.252,21.005,4.741-.913,39.033-13.4,75.877-27.4,126.95-48.389,137.527-51.754,151.379-47.49,23.346,7,24.075-7,1.459-41.1-11.306-17.352-23.346-21.005-25.534-7.612-2.553,14.614-10.589,18.57-96.671,50.841-16.052,5.784-29.55,9.743-30.28,9.132-1.094-.913,17.146-33.791,40.127-73.071,49.979-84.633,50.343-86.458,28.821-124.51-16.416-29.531-30.28-32.573-30.28-6.7,0,5.177-3.647,9.438-11.675,13.4-18.6,9.438-175.831,66.975-183.145,66.975-8.024,0-20.428-5.479-20.428-8.827,0-1.523,4.741-4.261,10.946-6.395a52.877,52.877,0,0,0,14.593-7.609c5.835-6.089-1.459-15.527-13.5-18.265-20.785-4.261-41.221-17.047-58-36.834-24.075-28.313-31.009-40.488-26.993-46.882,1.824-3.043,21.177-14.916,42.315-26.182l39.033-20.7,10.589,10.35c17.146,17.047,34.656,43.229,37.209,55.71,1.459,6.395,4.741,12.178,7.659,13.091,9.852,3.348,38.3-14,38.3-23.441,0-2.741-4.741-6.7-10.946-8.827-7.294-2.436-17.146-12.178-31.009-29.833-10.946-14.309-20.064-27.7-20.064-30.138,0-4.871,52.9-34.4,62.379-34.4,16.416,0,51.073,49.624,54.355,77.618,1.459,16.134,2.918,18.265,10.2,19.18,11.31,1.523,33.562-12.786,33.562-21.613,0-7.307-97.4-130.6-110.169-140.037-9.122-6.395-11.675-6.395-17.51-.607Z" transform="translate(303.935 301.789)"/><path d="M277.964,270.814c-15.42,8.444-46.276,38-57.685,55.534-27.562,42.219-28.3,101.65-1.471,139.323,16.212,20.221,38.17,36.837,63.948,48.389,18.742,7.794,25.358,8.769,61.375,8.769,37.119,0,42.264-.65,61.006-9.418,58.864-26.227,94.208-78.2,90.776-133.477-2.2-33.126-22.417-56.833-35.648-42.544-3.675,3.9-3.306,9.418,1.839,27.929,5.145,18.836,5.514,25.981,1.839,41.245-14.7,64.952-83.423,90.608-156.559,57.807-32.342-14.29-58.434-34.1-68.724-51.637-12.495-20.46-11.393-50.663,2.2-72.747,16.907-26.955,39.692-39.946,75.689-42.544,20.581-1.624,23.887-2.923,23.887-8.444,0-4.222-5.883-9.093-20.213-15.264C296.357,263.019,292.314,262.695,277.964,270.814ZM155.606,518.282C138.7,521.2,126.942,532.246,114.82,555.3c-26.829,50.338-23.53,94.83,9.553,122.435C155.61,704.045,210,702.1,237.2,673.842c5.514-5.846,18.377-25.331,28.3-43.193,10.291-17.537,22.785-35.724,27.931-39.946,12.111-10.2,30.692-12.938,46.308-6.82,18.742,7.145,26.091,21.109,23.887,46.116-3.675,38.647-30.872,66.576-72.03,74.7-19.844,3.572-25.358,20.46-9.922,29.553,8.087,4.871,10.291,4.871,27.2-.325,26.829-7.794,49.245-26.955,65.418-56.184,13.232-23.708,13.965-25.981,13.965-57.483,0-30.852-.733-33.775-11.024-48.714-17.256-24.682-37.119-35.4-67.991-36.7-43-2.273-58.065,9.093-93.729,70.148-15.8,26.955-34.178,42.869-48.88,42.869-13.965-.325-39.692-11.042-44.468-18.836-7.349-12.016-4.412-31.177,7.349-51.962,11.393-20.46,23.887-31.177,41.178-34.75,11.765-2.6,18.377-9.093,16.538-16.563-1.471-7.145-15.8-10.392-31.605-7.469Zm3226.358,91.583A25.8,25.8,0,0,1,3368,621.231c-12.495,4.547-151.414,34.425-184.49,39.621-22.052,3.572-24.256,3.248-34.547-3.248-9.189-6.17-11.373-6.5-15.8-2.6-4.777,4.222-4.408,8.769,2.2,35.4,12.863,50.663,29.413,107.171,35.3,119.512,11.765,25.007,44.1,45.791,70.928,45.791,32.707,0,56.23-16.238,70.2-48.714,7.349-17.212,8.82-17.537,26.091-7.794,32.343,18.187,73.87,12.666,88.568-11.691,12.126-20.135,6.985-69.5-15.8-151.014-8.82-31.827-21.315-43.518-28.668-26.63Zm13.6,78.268c2.941,4.871,5.883,17.537,6.985,28.254,2.2,18.187,1.839,19.161-11.024,30.527-18.009,15.913-37.119,15.913-56.963.325-15.436-12.341-35.648-44.817-32.707-51.962,1.1-2.6,14.334-6.82,30.872-9.743,15.8-3.248,30.5-6.17,32.343-6.82a60.33,60.33,0,0,1,14.7-.65c8.075.325,12.119,3.247,15.793,10.068Zm-118.338,30.2a136.449,136.449,0,0,1,11.393,33.775c3.675,28.579-17.648,48.389-52.551,48.389-15.8,0-20.581-1.624-33.444-11.367a59.9,59.9,0,0,1-20.95-26.63c-6.985-18.187-7.718-38-1.1-42.544,5.146-3.9,66.885-19.486,79.015-19.81,6.616-.325,9.922,3.248,17.648,18.187ZM90.188,698.849a33.64,33.64,0,0,0-17.648,7.145c-7.349,7.47-32.707,130.554-33.076,162.706L39.1,892.731l14.7,7.469c16.907,8.444,34.178,9.743,37.119,2.6,1.471-2.923-2.2-11.042-8.087-18.187-8.451-11.042-10.291-16.563-9.922-31.177.733-27.28-.369-27.28,66.152-18.187,68.724,8.769,139.284,20.135,151.045,24.032a22.982,22.982,0,0,1,11.765,11.042c2.2,4.871,6.247,8.119,10.659,8.119,5.514,0,8.087-4.547,13.232-22.084a301.634,301.634,0,0,0,8.087-43.518c1.839-18.836,1.1-22.084-4.043-24.032-4.043-1.3-9.922.974-16.907,6.82L302.236,804.4l-43.366-5.2C217.691,794,120.687,780.039,99,775.817c-8.451-1.3-10.291-3.572-10.291-11.042,0-14.939,5.883-24.357,24.625-40.27,15.067-12.99,16.907-15.589,12.126-19.486-6.616-5.2-19.844-7.794-35.3-6.17ZM3434.519,867.075l-9.922,8.119-87.1-.65c-83.423-.65-87.455-.325-104,6.82-19.479,8.444-31.605,20.135-45.939,43.843-9.189,15.589-9.922,19.161-9.922,60.406,0,41.569.733,44.817,10.291,62.354a108.594,108.594,0,0,0,24.99,29.553c27.562,20.785,56.963,24.357,149.943,16.888l70.921-5.846,8.087,9.093c5.514,6.171,10.291,8.444,14.334,7.145,5.146-1.624,6.247-7.145,6.247-31.177,0-42.544-5.514-49.039-23.138-28.254-9.189,10.392-10.659,10.717-46.669,14.614-20.212,1.949-60.638,3.572-89.305,3.572-47.061,0-54.022-.65-68.724-7.469-23.138-10.068-33.076-28.254-33.076-59.431,0-12.99,1.839-27.6,4.043-32.8,4.777-11.367,20.212-25.981,34.547-32.476,15.436-7.145,66.52-9.093,130.464-4.547,52.187,3.572,53.657,3.9,63.579,13.315,11.373,10.717,13.965,11.367,20.213,5.846,5.514-4.871,5.883-71.772.733-80.865-5.145-8.119-8.451-7.794-20.581,1.948ZM35.056,924.558c-1.471,2.273-2.573,16.238-2.2,31.5.369,20.135,2.2,28.9,6.616,32.8,5.145,4.222,6.247,4.222,11.024-1.624A73.866,73.866,0,0,0,58.944,976.2c4.777-7.145,31.974-10.392,110.62-12.016,74.6-1.949,75.689-1.949,91.878,5.846,22.785,11.042,33.444,30.2,34.178,60.081.369,30.2-9.922,49.688-33.444,62.029-16.538,8.444-19.111,8.769-70.564,8.769-29.413,0-67.991-1.3-85.631-2.6-28.664-2.6-34.178-4.222-45.2-12.666-6.985-5.521-14.7-9.093-17.648-8.119-11.024,3.9-12.126,75.994-1.1,85.737,5.883,5.2,6.985,4.871,16.907-3.572l11.024-9.093,79.015,2.273c99.22,2.923,109.887,1.3,136.711-22.409,26.091-23.383,35.3-45.467,35.648-86.386.369-37.023-7.349-62.029-24.256-81.84C272.09,933.327,233.5,924.558,160,930.4,53.791,938.848,61.5,938.848,54.5,929.1c-6.985-9.093-15.067-11.042-19.479-4.547ZM3187.18,1114.543c-5.146,8.769-15.067,59.107-12.495,64.3,2.941,7.145,9.557,5.846,19.479-3.248,5.186-5.484,13.286-8.517,21.683-8.119,15.436,0,137.817,21.434,151.045,26.306l9.189,3.572-9.189,6.5c-5.145,3.572-54.759,26.306-110.251,50.663-55.492,24.032-104.741,46.766-109.15,50.338-5.225,4.183-8.26,9.9-8.451,15.913-.188,5.445,3,10.591,8.451,13.64,4.412,2.273,44.837,10.392,89.671,17.862,119.809,19.486,147.371,25.656,149.943,32.8,3.306,9.418,12.126,14.29,18.008,10.068,9.553-7.145,17.648-62.354,9.553-66.9-2.2-1.3-8.82,1.624-15.067,6.5-10.291,7.469-13.6,8.119-28.668,6.171-41.527-5.521-112.091-19.486-113.193-22.409-.733-1.948,11.765-8.769,27.2-15.589,15.8-6.82,55.861-25.981,88.937-42.219,68.724-33.775,70.2-35.4,79.384-78.592,4.777-22.084,4.777-26.306.369-30.2s-6.616-3.248-15.436,5.521c-6.985,6.82-13.232,10.068-20.581,10.068-13.6,0-193.678-32.151-201.761-36.048-3.306-1.3-6.981-7.145-8.087-12.666C3205.188,1107.723,3193.063,1105.125,3187.18,1114.543ZM277.258,1160.984c-12.495,4.547-10.291,11.367,8.087,27.929,20.95,18.836,25.358,26.306,32.707,57.807,8.087,34.425,7.718,46.441-1.471,50.663-3.675,1.948-25.727,6.171-48.512,9.743-32.342,4.871-42.629,5.2-45.939,2.273-8.09-6.82-16.55-50.987-14.346-72.746,2.2-19.486,1.839-20.46-6.247-22.084-11.393-2.6-37.853,3.572-40.425,9.418-1.1,2.273,1.839,9.418,6.616,15.264,10.291,12.666,23.53,72.747,17.648,77.943-2.2,1.948-19.111,5.521-37.853,8.119-40.425,5.846-41.178,5.521-49.614-23.058-7.349-25.331-6.985-54.885.733-74.046,5.514-13.64,5.514-15.913,1.1-18.836-5.883-3.248-26.829-.974-37.488,3.9-9.553,4.547-8.451,14.614,10.291,101,12.126,54.56,19.111,79.566,23.887,84.763l6.985,7.145,9.922-10.392c9.553-9.743,14.334-11.042,72.768-21.759,34.546-6.5,82.321-14.614,106.208-18.511l43.735-6.82,10.291,6.82c13.232,8.769,17.256,8.444,19.844-.65,2.941-10.717-36.382-183.49-43-189.661-6.985-5.846-34.547-8.769-45.939-4.222Zm2845.605,205.249c-8.087,11.042-38.221,93.531-43,118.213-5.883,29.553-2.2,53.585,11.024,77.618,14.4,25.33,38.942,45.755,69.457,57.808,21.315,8.769,28.668,10.067,55.862,10.392,28.3,0,33.809-.974,55.861-10.717,30.135-12.99,53.657-35.4,70.56-66.9,14.7-26.955,42.629-103.6,42.629-116.589,0-11.042-8.82-14.614-18.009-7.469a32.51,32.51,0,0,1-17.648,5.2c-11.765,0-178.976-45.791-196.251-53.586a23.923,23.923,0,0,1-12.126-12.99c-2.941-10.068-11.393-10.392-18.377-.974Zm110.62,93.206c48.88,14.29,92.243,27.6,96.655,29.553,25.727,12.016-18.742,74.046-60.638,84.438-26.829,6.5-73.132,2.923-97.388-7.794-52.92-23.708-75.689-63.328-62.108-107.5,5.145-16.563,13.232-24.357,24.989-24.357,5.145,0,49.614,11.691,98.49,25.656ZM235.715,1396.761c-23.887,7.794-52.92,25.656-63.579,39.621-29.413,37.348-33.444,76.644-13.965,130.554,15.067,41.245,34.546,83.464,42.264,91.258,7.718,8.119,14.334,6.5,16.907-3.573a28.857,28.857,0,0,1,11.393-13.64c9.188-6.171,87.847-32.476,162.806-54.56,35.3-10.392,36.75-10.392,46.669-5.2,23.138,12.016,22.785-.325-2.941-63-29.021-70.8-49.245-97.1-90.039-115.615-16.538-7.794-24.625-9.093-56.23-10.068-27.2-.65-41.178.325-53.288,4.222ZM322.08,1440.6c38.221,6.171,58.434,19.486,75.34,48.714,9.189,15.264,9.189,29.553,1.1,36.048-8.82,6.82-184.121,61.7-193.31,60.406-20.95-2.923-32.342-51.637-19.479-82.165,12.495-28.254,49.614-53.586,91.141-61.7,12.495-2.273,23.138-4.547,23.53-4.547,0-.325,9.922,1.3,21.683,3.248Z" transform="translate(92.995 518.531)"/></g></g><g transform="translate(31.291 1021.493)"><path d="M449.511-989.015c-61.852,3.684-124.664,20.358-181.042,47.987-76.162,37.42-142.336,96.169-190.07,168.683a423.563,423.563,0,0,0-29.677,51.477C22.982-669,7.615-614.229,1.853-553.735.124-535.8.412-485.874,2.333-466.583,13.474-354.418,59.287-255.729,138.715-172.938,238.024-69.4,394-15.4,539.312-34.114a481.622,481.622,0,0,0,255-114.006c14.31-12.409,43.124-41.492,55.129-55.646,23.915-28.211,41.107-54.483,58.3-88.7,27.564-55.064,44.084-112.455,50.423-174.5,2.305-22.685,2.305-66.795,0-88.219-11.813-109.256-58.395-211.92-130.235-286.858C747.438-925.9,637.66-977.867,519.143-987.949,502.239-989.4,465.55-989.984,449.511-989.015Zm51.191,6.786c102,5.429,196.025,40.135,273.916,101.21,30.542,23.945,62.812,57,85,87.25a490.467,490.467,0,0,1,65.79,125.252,511.662,511.662,0,0,1,26.508,119.629c1.441,15.511,1.441,59.912,0,75.617-9.124,97.235-45.236,188.847-101.326,257.1C765.11-112.251,650.338-50.692,519.623-38.865c-16.712,1.551-60.123,1.551-76.835,0C351.547-47.1,262.8-80.744,193.556-133.288c-47.541-36.16-93.162-88.8-124.376-143.671C8.672-383.21-8.52-509.723,21.638-627.9a384.135,384.135,0,0,1,16.9-52.835C61.784-740.547,97.7-795.417,145.054-843.4c86.727-88.025,203.8-137.758,328.468-139.6C478.516-983.1,490.81-982.714,500.7-982.229Z" transform="translate(0 0)"/><path d="M442.756-976.92c-90.185,7.757-173.935,39.757-244.911,93.477C157.8-853,119.282-812.269,90.853-769.992,45.52-702.7,19.973-629.874,12.962-548.421c-1.441,17.066-1.153,60.411.48,78.156C23.815-361.371,70.588-261.4,150.208-177.811c54.169,56.92,129.082,99.586,211.1,120.434,44.468,11.248,86.055,16,129.947,14.836,12.39-.388,27.084-1.067,32.655-1.648,87.5-8.727,167.5-39.854,237.707-92.6,34.864-26.084,74.53-66.035,99.4-99.877,67.326-91.537,99.885-215.365,85.863-326.3-10.949-86.786-46.2-172.505-97.868-238.055C779.2-889.553,678.542-949.381,564.731-970.133c-29.389-5.333-47.734-6.982-81.157-7.37C466.959-977.7,448.615-977.405,442.756-976.92Zm64.349,6.691c134.269,8.727,255.187,70.98,336.344,173.281,11.333,14.254,30.542,43.247,39.762,59.926C918.267-673.509,939.3-600.3,942.662-530.288c4.994,106.47-30.926,219.146-96.043,300.793-37.073,46.447-79.524,84.071-128.7,114.034-17.1,10.376-49.654,26.666-67.711,33.745C563-47.293,468.976-40.118,376.966-60.675c-88.936-19.878-169.8-65.259-226.855-127.318C75.966-268.573,33.419-359.141,21.029-462.12c-2.113-17.745-2.881-62.738-1.441-82.228C24.1-603.208,38.605-657.607,63.673-708.9c23.819-48.581,50.711-86.4,89.512-125.67C177-858.62,196.4-874.91,222.336-892.365c63.389-42.666,134.845-68.847,208.894-76.313A462.354,462.354,0,0,1,507.1-970.229Z" transform="translate(-0.448 -0.472)"/><path d="M490.1-956.307c-2.113.768-1.345,2.593,2.209,5.57l3.458,2.977-1.537,21.994c-2.4,34.576-2.113,33.039-6.051,35.248-6.819,4.034-1.825,6.819,11.525,6.339,6.435-.192,7.875-.576,8.164-1.921.192-.961-.768-2.209-2.5-3.073a6.829,6.829,0,0,1-3.362-3.458c-.48-1.921.768-24.4,2.017-36.4.384-3.362,1.152-6.339,1.825-6.531,1.345-.48,5.571,5.186,22.57,30.446,16.712,24.587,19.4,27.276,24.2,23.723,1.441-1.057,1.921-4.13,2.977-22.858,2.5-40.338,2.3-39.378,5.571-42.451,3.457-3.266,2.881-4.994-1.921-5.763-4.706-.864-13.158-.864-15.079-.1-2.113.768-1.921,2.977.384,4.226a8.321,8.321,0,0,1,2.785,2.689c1.153,2.113-.576,33.807-1.825,35.152-.48.384-1.921-1.057-3.458-3.362-3.938-6.339-26.7-36.689-28.813-38.417a17.4,17.4,0,0,0-5.186-2.593C504.406-955.923,492.017-956.883,490.1-956.307Z" transform="translate(-19.167 -1.306)"/><path d="M430.1-954.27a42.41,42.41,0,0,0-24.4,22.954c-1.633,3.553-2.113,6.435-2.209,12.774,0,7.2.384,8.932,3.073,14.6,14.791,31.31,57.818,31.5,72.417.384,8.74-18.633.576-39.762-19.113-49.174C452.482-956.286,437.98-957.055,430.1-954.27Zm19.5,5.859c9.892,4.61,16.135,18.056,16.039,34.768,0,9.508-2.017,15.751-6.723,20.457-4.514,4.706-8.932,6.627-15.271,6.627-10.853,0-20.073-9.6-23.339-24.4-1.825-8.068-.864-19.4,2.113-25.932C427.511-948.027,439.516-953.117,449.6-948.411Z" transform="translate(-15.937 -1.327)"/><path d="M574.661-946.65c-1.153,1.345-.961,1.921,1.345,4.034,3.169,2.881,3.169,2.593-2.017,30.446-4.994,27.372-4.994,27.18-7.683,28.333A3.849,3.849,0,0,0,564-880.86c0,2.209,1.537,2.689,17.768,5.859,15.559,3.073,27.853,3.554,34.191,1.441,20.553-6.627,31.31-29.966,22.666-48.886-5.474-11.813-16.039-18.44-35.728-22.282C585.514-948.09,576.39-948.763,574.661-946.65ZM610.677-935.7A30.056,30.056,0,0,1,622.2-923.984c2.881,5.282,2.593,21.8-.48,28.525-2.785,6.243-10.949,14.118-16.039,15.559-4.61,1.249-12.87,1.345-16.135.1-4.61-1.729-4.706-3.266-1.056-23.243,4.322-23.915,5.859-31.6,6.723-33.807.672-1.537,1.537-1.729,6.243-1.249A28.829,28.829,0,0,1,610.677-935.7Z" transform="translate(-22.287 -1.647)"/><path d="M373.468-939.209c-5.859,2.017-7.78,3.073-7.972,4.61-.192,1.441.576,2.3,2.785,3.169,2.785,1.152,2.977,1.537,2.4,4.9-1.056,6.435-12.87,29.677-15.175,29.677-.672,0-4.034-10.181-6.723-20.361-.96-3.65-.864-4.994.1-6.915,1.633-2.977.768-5.378-2.017-5.378-2.881,0-18.056,4.61-20.649,6.339-3.169,2.017-2.689,4.13,1.249,5.763,4.034,1.729,4.9,3.554,12.2,26.028,8.452,25.932,8.74,27.372,7.107,30.638-3.073,6.051.672,6.723,13.35,2.113,4.706-1.633,9.124-3.554,9.892-4.226,1.825-1.633.672-4.034-2.017-4.418-2.4-.288-5.667-5.955-7.683-13.542-1.056-4.13-.96-4.418,2.209-8.932,1.825-2.5,3.746-4.706,4.322-4.9,1.345-.48,9.7,5.282,16.9,11.429,4.8,4.13,5.474,5.186,5.763,8.74.288,3.458.576,4.034,2.689,4.322,1.345.1,6.723-1.153,12.005-2.881,7.972-2.689,9.7-3.554,9.893-5.282.288-1.633-.48-2.4-2.977-3.458-1.729-.768-7.683-5.186-13.158-9.7a198.426,198.426,0,0,0-17.1-12.87c-5.667-3.554-7.011-4.8-6.627-6.435.864-3.554,9.6-22.09,12.005-25.163C391.044-942.474,386.338-943.627,373.468-939.209Z" transform="translate(-12.797 -1.885)"/><path d="M657.531-928.036c-.288.576-.1,2.4.576,4.13,1.345,3.842.672,6.147-10.565,35.056-7.107,18.152-9.316,22.186-12.294,22.282-.672,0-1.249.768-1.249,1.825a3.756,3.756,0,0,0,1.249,2.689c1.537,1.345,16.712,7.107,20.073,7.683,3.362.672,4.418-1.729,2.305-4.994a9.436,9.436,0,0,1-1.537-4.322c0-2.5,11.429-33.327,16.327-43.8,3.073-6.723,4.226-8.356,6.723-9.124,6.243-2.209,2.881-5.378-10.949-10.085C660.892-929.188,658.4-929.477,657.531-928.036Z" transform="translate(-25.057 -2.397)"/><path d="M685.116-912.343c-1.921,2.017-3.554,4.514-3.554,5.667,0,2.209,2.4,3.265,5.282,2.113,4.9-1.921,15.079.384,17.288,3.938.576.864-13.158,27.564-21.129,41.2-4.514,7.588-6.531,9.7-9.6,9.7-4.034,0-2.977,3.265,2.209,6.531,8.068,5.187,16.423,9.124,17.864,8.548,1.729-.672,2.113-4.034.576-4.994-1.921-1.153-.864-4.8,4.226-14.887,7.587-14.983,19.881-36.881,21.033-37.649,2.689-1.729,9.124,4.13,12.1,10.949,3.169,7.4,7.4,5.378,9.124-4.13.864-4.9-.768-6.435-14.791-13.926-6.627-3.458-16.327-8.74-21.706-11.525C692.319-917.145,689.918-917.241,685.116-912.343Z" transform="translate(-26.518 -2.915)"/><path d="M267.2-894.128c-4.13,1.345-8.644,3.842-25.067,14.118-8.74,5.474-16.615,10.757-17.576,11.813-2.113,2.4-1.249,3.938,2.209,3.938a7.491,7.491,0,0,1,5.09,2.593c3.842,4.034,15.751,21.514,23.723,34.672,6.531,10.757,7.011,12.005,5.955,14.214-1.441,3.265.192,5.57,3.169,4.61,2.4-.768,18.44-11.429,19.3-12.87,1.056-1.729-1.441-3.842-3.842-3.265-1.633.384-2.881-.384-5.667-3.65-5.09-5.955-10.277-14.695-9.6-16.423.768-2.017,7.683-7.4,9.508-7.4,2.305,0,10.757,4.514,17.48,9.22,5.667,4.034,5.955,4.514,5.763,7.876-.192,3.17,0,3.554,2.017,3.362,2.593-.288,18.536-10.277,19.689-12.294s0-3.361-2.881-3.361c-1.345,0-6.147-2.5-11.141-5.859-4.8-3.169-11.333-7.107-14.5-8.74-3.265-1.633-6.051-3.073-6.147-3.169-.192-.192.48-2.785,1.633-5.763,2.5-6.531,2.5-10.373.192-15.463C283.524-892.495,274.3-896.432,267.2-894.128Zm2.977,11.621c2.593,1.441,4.706,6.051,4.706,10.373,0,5.859-7.2,15.271-15.079,19.785-1.153.672-10.949-13.35-12.774-18.248-1.153-2.881,1.633-6.339,8.068-9.988C260.281-883.563,266.62-884.427,270.174-882.506Z" transform="translate(-8.811 -3.747)"/><path d="M740.936-874.456c-14.887,3.938-24.971,17.192-25.74,34.1-.288,6.147,0,9.7,1.248,13.446,10.757,33.327,56.185,38.514,72.609,8.356,3.169-5.859,3.265-6.339,3.265-17.1,0-10.661-.1-11.237-3.265-17.576-3.554-7.011-10.949-14.695-17.48-18.056A44.956,44.956,0,0,0,740.936-874.456Zm29.677,9.893c4.9,2.5,9.412,7.875,10.661,12.678,4.418,16.327-17.864,44.084-35.44,44.084-4.9,0-12.774-3.938-15.751-7.876-8.068-10.565-3.842-27.757,10.085-40.626C750.54-866,761.777-868.982,770.613-864.564Z" transform="translate(-28.265 -4.498)"/><path d="M470.789-865.313c-40.05,2.137-89.512,13.6-128.026,29.62-41.2,17.092-84.23,47.1-118.325,82.451-34,35.253-61.18,78.469-76.162,120.812-4.514,12.722-13.926,48.266-16.9,64.1-11.237,58.852-6.627,117.9,13.83,178.5,8.548,25.444,18.825,48.363,22.954,51.083,2.209,1.36,10.853,1.651,85.959,2.039l83.558.486.576,2.428c.384,1.36.96,3.593,1.345,5.05l.576,2.719H259.59c-54.361,0-81.541.291-83.366,1.068-1.441.486-18.536,10.586-37.937,22.337-39.858,24.182-38.994,23.5-34.768,31.563,6.435,12.237,25.452,38.652,41.779,57.784,33.231,39.235,68.959,68.758,116.116,96.144,55.513,32.145,108.721,49.043,180.562,57.4,16.616,1.845,68.479,1.554,87.88-.583,31.886-3.5,63.965-10.1,90.761-18.646,41.3-13.208,91.241-38.361,124.856-63.028,39.57-28.94,77.315-67.4,106.416-108.478,12.678-17.869,16.135-25.056,13.83-28.552-.384-.583-16.9-11.265-36.689-23.793l-36.016-22.725-83.75-.291c-46.1-.1-83.846-.486-83.846-.777a17.294,17.294,0,0,1,2.305-3.593,23.879,23.879,0,0,0,2.977-5.341l.576-2.136h82.309c94.6,0,86.823.777,92.106-9.226,12.87-24.279,27.757-70.8,33.327-104.594,6.147-36.71,5.667-76.43-1.345-117.8-3.65-21.365-11.909-51.665-19.3-70.6-23.915-61.086-69.535-119.355-122.84-156.745-61.948-43.6-120.15-64.388-191.607-68.369C487.309-865.9,482.218-865.993,470.789-865.313Zm44.18,6.118c33.039,2.719,67.518,10.391,96.043,21.56,25.355,9.906,58.2,28.26,84.038,46.81,42.451,30.689,79.14,73.614,104.975,122.948,18.921,36.127,31.886,81.383,36.785,128.678,1.825,17.578,1.633,57.492-.384,72.351-5.378,38.846-17.48,80.8-31.886,110.129-4.034,8.158-6.531,12.14-8.164,12.916-1.825.971-20.457,1.165-83.078.971l-80.581-.194-.576-2.913c-.96-4.467-5.186-10.586-10.661-15.15-7.684-6.6-11.429-12.042-11.429-16.8,0-5.536,3.746-12.916,9.028-17.966,4.994-4.759,9.22-12.237,9.22-16.315,0-5.147-4.418-12.431-12.39-20.588-8.836-9.226-10.469-12.916-8.644-19.812,1.441-5.633,3.073-8.643,9.6-17.772,10.469-14.762,12.2-20.394,8.644-28.746-2.209-5.147-12.2-18.355-17.96-23.6-4.994-4.467-6.435-8.935-5.57-16.51.768-6.41,2.977-9.809,10.661-16.607,12.678-11.265,12.678-17.481,0-31.854-2.4-2.622-2.593-2.719-1.537-.583a23.923,23.923,0,0,0,3.265,4.856c2.017,2.234,3.073,7.963,2.5,13.3-.1,1.457-5.763,8.061-6.915,8.061-.384,0-1.825-2.04-3.073-4.662-1.249-2.525-2.977-4.662-3.842-4.856-1.441-.291-1.633.291-1.056,4.953.768,6.312-.576,11.168-4.8,17.092-5.282,7.575-8.548,10.2-15.559,12.528-9.22,3.011-17.288,3.885-37.745,3.982-9.7.1-17.96.292-18.344.583s-2.209-.1-3.938-.874c-5.955-2.525-14.6-3.593-33.519-4.37-19.593-.777-25.163-1.845-23.05-4.467,1.633-2.039,6.339-3.108,20.937-4.856,12.966-1.457,31.5-1.942,35.536-.874,2.689.777,2.689,3.01.1,5.827-2.4,2.622-1.729,4.273,1.825,4.273,7.107,0,34.864-4.467,46.293-7.478,19.785-5.244,22.474-6.216,22.858-8.838.384-2.816-1.633-2.816-9.893.291-5.57,2.136-8.548,2.525-22.954,3.108-17.192.583-23.627.1-23.627-1.942,0-.68,3.458-2.816,7.683-4.759,4.9-2.234,7.683-4.079,7.683-5.05,0-1.748-4.322-2.234-5.282-.68-.288.486-2.977,1.651-6.051,2.525-5.955,1.748-14.5,1.942-77.507,1.651-30.734-.1-64.733-1.554-69.632-2.913-1.249-.388-3.554-2.525-5.09-4.856-1.921-2.913-3.362-4.079-4.994-4.079-2.977,0-4.61,3.108-3.842,6.9.96,4.176-1.537,4.564-6.435,1.068a24.266,24.266,0,0,0-7.972-3.69c-6.435-1.068-12.774-3.4-14.5-5.341-2.689-3.01-2.4-10.78.576-14.179,1.249-1.457.384-.777-2.113,1.554-3.554,3.4-4.706,5.341-5.474,9.032-1.345,6.313.192,10,7.876,18.355,12.005,13.111,16.519,20.686,16.135,27.29-.1,1.942.288,3.788.768,4.079,1.537.971,3.938-2.331,3.938-5.341,0-3.982,2.689-10.294,4.706-10.877.864-.194,4.8.194,8.74.874a111.4,111.4,0,0,0,11.717,1.36c5.955,0,7.491.777,7.491,3.5,0,4.273,3.938,13.111,6.147,13.985a66.408,66.408,0,0,1,8.356,4.564c6.243,3.885,20.265,9.032,24.395,9.032,3.746,0,3.746-1.845.1-3.4a11.664,11.664,0,0,1-3.842-2.331c-.384-.486-3.362-1.845-6.723-3.011-8.068-2.719-14.983-8.643-14.983-12.819v-3.011l10.853.68c23.723,1.36,30.254,2.719,26.22,5.73-1.441,1.068-1.537,1.748-.672,3.3,1.921,3.788,14.983,3.885,34,.194,4.8-.874,13.254-.1,25.355,2.622,7.684,1.748,9.124,1.36,14.311-3.69l2.977-2.816,24.875-.388c13.734-.194,26.6-.777,28.717-1.359,7.876-2.137,9.316-1.651,17.1,5.73a72.64,72.64,0,0,1,11.141,13.5c5.955,10.1,6.147,11.168,3.938,15.733-2.977,5.827-4.034,5.244-11.525-5.633-2.881-4.176-7.491-6.118-11.045-4.759-2.3.874-2.881,3.593-1.056,5.05,1.249.874,1.537,1.942,1.056,4.661a10.616,10.616,0,0,1-2.017,4.564c-.96.777-7.4,1.263-20.073,1.457-14.022.194-19.5.68-22.09,1.845-4.514,1.845-7.3,1.845-9.7,0a6.953,6.953,0,0,0-3.554-1.457c-2.689,0-9.316,4.273-14.118,9.226l-4.226,4.37-15.463-.1c-8.452,0-16.135-.388-17.192-.777-.96-.388-2.881-2.428-4.322-4.467-2.977-4.467-6.627-5.827-12.1-4.37a40.4,40.4,0,0,1-16.423.486c-4.8-.874-7.107.971-7.107,5.827a10.412,10.412,0,0,1-1.729,5.438l-1.825,2.137-9.7-2.04c-5.282-1.068-10.469-1.748-11.429-1.554-2.017.583-4.8-3.5-3.746-5.244.288-.583,3.746-1.554,7.588-2.137,9.6-1.651,9.6-1.651,8.452-3.593-.768-1.554-2.689-1.748-16.615-1.845a246.705,246.705,0,0,1-38.706-2.913,12.65,12.65,0,0,1-5.763-2.331,12.972,12.972,0,0,0-4.706-2.525,27.4,27.4,0,0,1-5.186-1.942c-2.785-1.457-4.61-.971-7.972,2.234-1.345,1.262-2.689,1.942-3.073,1.554-1.441-1.36-.672-9.323,1.056-11.265,1.633-1.845,1.633-1.942-1.441-.291-4.322,2.234-9.7,7.187-11.429,10.391-3.362,6.7-.1,15.733,9.028,24.473l4.9,4.662-.576-3.5c-.48-2.913-.288-3.4,1.345-3.4,2.4,0,4.226,2.039,7.4,8.546,1.441,2.816,3.169,5.341,3.938,5.633,1.921.777,5.282-1.36,5.282-3.5,0-2.816,1.345-3.108,5.955-1.457,11.045,4.176,14.31,4.661,27.66,3.982a168.714,168.714,0,0,0,20.169-2.039,121.1,121.1,0,0,1,14.118-2.137c5.955-.388,7.107-.874,8.452-2.816,2.689-4.176,5.667-4.856,18.728-4.273,10.853.388,12.294.68,15.175,2.913,3.073,2.331,3.458,2.331,17.288,1.942,22.186-.777,49.27-.583,53.784.388l4.226.777-.384-4.176-.288-4.273,8.164.291c10.085.388,12.582,1.942,8.356,5.438-1.441,1.165-5.09,3.593-8.068,5.439-6.435,3.982,1.345,3.5-68.479,3.787l-48.406.194-3.938,3.2c-8.068,6.7-8.932,6.9-26.988,6.9H400.005l-5.955-3.108c-6.435-3.4-9.7-3.2-9.7.68,0,4.759,10.757,8.061,34.1,10.586,17.384,1.845,20.553,1.942,22.09.388a4.757,4.757,0,0,0,1.441-2.234c0-3.885,12.774-4.856,67.038-5.341l48.406-.486,3.073-2.719c3.65-3.2,20.553-8.546,30.158-9.517l5.955-.68v3.4a27.05,27.05,0,0,0,1.057,6.7c1.633,4.759,7.972,12.916,11.717,14.956,6.531,3.5,10.181,17,7.107,26.124-1.921,5.633-9.22,15.15-14.214,18.452a41.8,41.8,0,0,1-21.514,7.089c-10.565.583-11.909.971-13.158,3.69-1.537,3.4-2.881,3.5-7.491.388-4.994-3.4-5.859-3.5-9.316-.583-2.113,1.845-4.706,2.525-12.2,3.5-5.667.68-9.893.777-10.565.194-.576-.486-10.757-1.36-22.666-1.942s-24.2-1.263-27.372-1.554a29.916,29.916,0,0,0-10.757.971c-8.164,2.428-13.158,2.816-34.384,2.525l-20.169-.194-13.926-4.759c-7.683-2.525-15.175-4.856-16.808-5.05-2.305-.194-2.881-.777-2.881-2.719,0-2.428.1-2.428,8.068-2.428,7.491,0,8.164-.194,9.028-2.234,1.345-3.011,5.09-2.622,4.8.583-.48,3.69,3.169,4.273,22.474,3.885,14.791-.389,17.864-.68,19.4-2.137,1.537-1.36,2.4-1.457,5.955-.583,8.836,2.331,9.508,2.331,12.2-.194a48.62,48.62,0,0,1,7.2-5.147c2.5-1.457,4.322-2.913,4.034-3.3-.384-.291-4.61-.583-9.412-.583-7.683-.1-9.6-.486-14.407-2.816-5.282-2.525-5.763-2.622-9.124-1.263a10.449,10.449,0,0,0-4.8,3.885c-.864,1.845-2.209,2.719-4.8,3.108-1.921.291-4.226.68-4.994.874s-4.418-.194-8.164-.874c-4.706-.777-6.819-1.554-7.011-2.622-.192-.971.672-1.651,2.689-2.039,2.977-.68,3.938-3.011,1.537-3.885a74.684,74.684,0,0,0-10.853-1.165c-8.644-.583-17.768-2.039-36.785-6.021-3.938-.777-9.028-1.845-11.333-2.331-5.186-1.068-9.6-4.176-10.373-7.381-.96-3.885,1.249-9.517,5.475-13.985a62.885,62.885,0,0,0,5.282-6.215c2.113-3.3,1.921-11.071-.384-15.538-1.825-3.5-2.017-3.69-2.113-1.36,0,3.982-3.746,10.391-12.486,21.171l-8.164,10.1v6.9c.1,8.935,1.057,10.683,13.542,23.987,5.474,5.924,10.757,12.14,11.525,13.693,1.729,3.4,1.249,7.964-1.633,13.6-1.633,3.2-1.633,3.69-.288,3.69.768,0,3.554-2.137,6.147-4.662,6.243-6.215,10.085-7.381,20.265-6.021a62.856,62.856,0,0,1,9.8,1.942c2.5.971,9.412,2.331,10.661,2.039a23.377,23.377,0,0,1,5.475,1.36c4.706,1.554,10.469,6.992,10.469,9.712,0,1.845,4.13,4.564,5.859,3.885.768-.291,1.921-1.845,2.5-3.4,1.056-2.816,1.249-2.914,8.164-3.108,3.842-.1,14.406-.1,23.339,0,9.028.1,20.457.194,25.548.194,6.627,0,9.6.388,11.045,1.457,1.825,1.457,1.729,1.554-.864,3.885-5.667,5.05,1.921,6.215,9.412,1.36a50.54,50.54,0,0,1,7.011-3.885c2.593-.971,22.954-3.108,28.333-2.913,2.689.1,4.706-.583,7.779-2.816,3.362-2.525,4.9-3.011,8.356-2.719,3.746.291,4.226.583,3.938,2.428-.384,3.011,1.921,3.4,11.813,1.748,5.859-.971,9.8-1.068,12.486-.486,2.113.486,6.627,1.36,10.085,2.039,7.3,1.36,8.644,1.942,14.407,6.6,7.4,5.827,10.565,9.129,10.565,10.974,0,5.341-6.339,11.265-15.079,13.888-7.011,2.137-9.028,5.341-3.361,5.341,3.938,0,5.667,1.457,4.13,3.3-2.305,2.816-9.508,3.982-45.717,7.866-7.4.777-16.9,1.845-21.226,2.428-9.7,1.263-25.259,1.263-33.711,0-6.339-.874-37.553-3.108-44.468-3.2-14.887-.1-31.886-1.748-36.977-3.5-7.587-2.719-9.124-2.622-12.1.971l-2.5,3.108-8.068-.874c-7.683-.874-8.068-1.068-10.181-4.176-2.689-4.079-2.785-8.255-.288-10.78,1.537-1.554,2.689-1.845,6.243-1.262,2.4.291,4.322.194,4.322-.388,0-.486,1.249-2.331,2.689-4.176l2.785-3.3L409.9-340.7c3.073.583,8.644,2.039,12.2,3.108,8.26,2.525,14.407,1.845,13.926-1.36-.192-1.554-1.249-2.234-4.13-2.816-10.853-2.234-13.734-3.108-17.1-5.341a56.222,56.222,0,0,0-7.683-3.787,50.756,50.756,0,0,1-7.3-3.4c-3.746-2.234-3.746-2.137-6.915,4.759-2.209,4.662-4.034,5.827-6.147,4.079-1.921-1.651-8.356-1.457-11.813.389-2.977,1.554-7.876,6.8-7.876,8.449,0,1.36-5.667,3.593-7.683,3.108-2.5-.68-9.7-12.334-10.277-16.51a20.326,20.326,0,0,1,1.056-8.061c2.785-8.352-.192-5.439-7.78,7.381l-4.61,7.866L320-342.249c-9.8.388-46.773.68-82.117.68-58.394,0-64.637-.194-66.654-1.651-3.938-2.719-17.192-33.99-24.4-57.59-12.294-39.914-16.519-70.215-15.751-110.517.672-38.846,4.61-61.571,18.536-108.187,17.96-60.406,60.027-120.035,115.348-163.64,35.152-27.581,64.349-43.6,104.4-57.1C418.734-856.864,466.467-863.08,514.969-859.2ZM344.108-320.2c2.4,1.36,2.4,5.244,0,12.139l-1.825,5.244,5.282-3.011c6.243-3.593,10.373-3.788,20.457-1.36,3.938.971,10.181,2.137,13.734,2.622,9.22,1.068,9.892,1.457,12.678,6.215,2.593,4.662,4.61,5.341,9.508,3.4,2.017-.777,2.977-.388,6.531,2.622a51.672,51.672,0,0,0,9.412,5.924c4.706,2.137,6.147,2.331,12.966,1.748a53.406,53.406,0,0,1,16.712,1.36,86.678,86.678,0,0,0,13.158,1.942c3.554,0,4.034-.194,3.554-1.942-.768-2.816.48-6.8,2.113-6.8a15.3,15.3,0,0,1,4.514,1.845,40.133,40.133,0,0,0,8.452,3.108,38.154,38.154,0,0,1,7.2,2.428c1.057.68,5.667,1.457,10.277,1.845,10.181.874,18.824-1.36,26.8-6.992,5.474-3.787,10.853-4.564,12.966-1.748.768,1.068,4.514,1.262,19.689,1.068l18.728-.291,8.068-3.5c9.508-3.982,15.271-4.953,22.282-3.593,6.627,1.262,10.373,4.856,10.373,9.809,0,8.255-6.915,12.139-30.062,16.9-19.593,3.982-26.6,6.215-27.949,8.837-.576.971-1.729,3.011-2.689,4.467l-1.825,2.719H577.4l4.13-3.788c2.977-2.816,5.667-4.176,10.373-5.341a66.041,66.041,0,0,1,7.4-1.554c3.65,0-2.785,9.712-8.26,12.528-3.842,1.942-17.384,4.953-22.474,4.953-2.881,0-2.881.1-2.305,3.885s.48,3.982-2.5,5.244c-1.729.777-7.78,2.331-13.446,3.5-10.085,2.039-10.373,2.137-13.926.291-4.8-2.428-5.763-4.176-4.13-8.061a11.744,11.744,0,0,1,10.181-6.8c3.169,0,5.763-2.137,4.706-3.885-1.345-2.234-28.525.291-31.79,3.011-2.017,1.651-1.729,2.622,2.017,6.992,4.13,4.856,4.226,6.021.48,7.963-2.977,1.554-20.553,3.3-33.615,3.4-6.723,0-7.491-.194-10.853-3.011-6.627-5.536-3.458-10.586,6.723-10.586,5.09,0,7.107-1.263,5.186-3.2-.768-.777-6.531-1.068-19.113-.874-9.892.194-19.3-.1-21.033-.68-2.305-.68-3.362-.583-4.13.486-1.825,2.137-.768,3.3,4.706,5.536,14.022,5.73,6.051,10.2-18.728,10.294-7.779.1-9.988-.68-9.988-3.788s-1.921-4.079-9.7-5.439c-19.4-3.3-27.18-6.7-33.327-14.373-5.378-6.7-7.011-9.614-7.78-13.5-.48-2.234-2.305-3.885-9.22-8.158-12.39-7.575-16.712-12.237-16.9-17.966-.1-4.564-1.729,1.457-1.729,6.8-.1,3.885.384,5.924,1.921,7.769,1.056,1.457,3.458,4.662,5.282,7.187s7.684,8.158,12.966,12.528c10.565,8.643,13.062,12.334,13.254,20.1.1,5.536,3.073,12.237,6.243,14.276,5.09,3.4,42.259,13.6,52.824,14.567,2.209.194,7.876.971,12.582,1.845,16.9,3.011,33.135,3.69,61.564,2.525,20.841-.777,29.485-1.554,38.994-3.3,24.011-4.564,44.756-12.236,49.078-18.161,1.057-1.554,2.113-5.341,2.689-10.2,1.056-8.74.672-8.352,14.887-18.743,17.576-12.916,21.514-18.258,21.514-28.843v-6.41L626-300.2c-8.452-8.158-9.7-12.334-5.763-18.84l1.345-2.137h83.846c77.315.1,84.038.194,87.207,1.748,1.825.874,18.248,10.974,36.3,22.434,25.067,15.927,32.655,21.171,32.27,22.337-4.13,11.168-35.824,51.957-59.067,76.236-44.756,46.615-94.315,80.023-155.11,104.5C552.906-55.952,440.92-53.136,342.091-86.058c-37.553-12.528-69.631-28.649-107.569-54-24.3-16.315-40.53-29.717-61.468-50.986-24.491-24.667-41.587-45.741-58.586-71.963-4.226-6.6-7.587-12.625-7.491-13.4.288-1.457,68.095-43.216,71.552-44.09C182.275-321.466,342.187-321.175,344.108-320.2Z" transform="translate(-3.99 -4.896)"/><path d="M531.984-838.075c-9.412,3.362-19.977,10.949-31.31,22.378l-7.491,7.683-2.5-3.266c-7.876-10.18-20.361-20.937-27.757-23.915-5.09-1.921-14.695-.864-19.113,2.113-2.113,1.441-8.74,4.514-14.791,7.011s-14.983,6.243-19.881,8.356c-8.644,3.746-8.836,3.842-10.757,8.74a107.809,107.809,0,0,0-3.554,11.717c-.864,3.65-1.633,7.2-1.825,7.876-.288.768-2.593.384-7.876-1.345-10.469-3.362-24.011-4.034-31.6-1.633-6.339,1.921-12.2,7.107-13.254,11.525-.384,1.537-4.226,11.813-8.548,22.954-7.011,18.056-7.876,20.841-7.876,26.6,0,6.051.384,7.2,6.243,18.632,3.458,6.723,6.339,12.39,6.435,12.774.192.288-6.051.672-13.926.768-20.169.192-38.609,3.073-38.609,6.051,0,.384,2.4,6.051,5.282,12.486a237.235,237.235,0,0,1,8.836,23.146c4.226,13.638,3.746,13.35,20.553,13.35H330.1v7.2c0,10.277,1.345,11.333,19.209,14.407,7.876,1.441,8.164,1.729,12.582,10.277,3.169,6.339,3.458,9.412,1.152,13.35-1.152,1.921-1.345,3.073-.672,3.746.768.768,2.305,0,5.282-2.5,5.475-4.61,9.316-6.147,15.079-6.147,7.779,0,10.661,4.418,4.418,6.819-3.842,1.441-1.537,3.073,4.8,3.266a58.28,58.28,0,0,1,11.333,1.921c6.051,1.633,6.339,1.537,13.35-.384,4.9-1.345,11.525-2.209,21.322-2.593,15.463-.768,18.44-2.209,6.819-3.458-22.762-2.5-42.355-5.474-46-7.107-3.169-1.441-9.124-6.723-9.124-7.971,0-1.537,2.305-1.825,7.2-.96,2.689.48,10.373,1.537,17.1,2.305s12.582,1.537,12.966,1.825a48.674,48.674,0,0,0,6.435,1.057,103.663,103.663,0,0,1,11.141,1.921,47.423,47.423,0,0,0,7.107,1.441c.864,0,4.034,1.729,6.915,3.842,4.994,3.554,5.859,3.842,11.621,3.842a37.066,37.066,0,0,0,9.316-1.057c2.209-.864,6.915-.864,17.1-.192,11.717.672,14.311,1.153,16.039,2.689s4.034,2.017,12.294,2.4c10.949.672,13.35-.1,12.294-3.458a5.074,5.074,0,0,0-2.689-2.785c-1.249-.576-2.209-1.633-2.209-2.4,0-2.113,7.491-2.4,14.695-.48,4.994,1.345,8.644,1.537,21.13,1.152,8.26-.384,16.519-.864,18.248-1.249,1.921-.384,3.073-.192,3.073.48,0,.576-.96,1.249-2.113,1.441-23.915,4.9-31.79,7.972-17.768,6.915,20.265-1.537,39.666-1.729,43.508-.384l3.938,1.441-2.305-7.107c-2.593-8.26-2.689-10.661-.864-15.079l1.345-3.265,13.35-.384c20.457-.576,24.107-2.977,25.067-16.327.48-6.435.48-6.531,3.458-7.107,1.729-.288,7.107-.1,12.005.48,4.8.48,9.412.768,10.085.48s2.689-3.842,4.418-7.875a190.752,190.752,0,0,1,12.2-20.745c4.9-7.4,8.932-14.022,8.932-14.695,0-3.746-23.723-10.373-43.412-12.1l-12.39-1.153,4.034-3.842c2.209-2.113,6.051-6.339,8.644-9.412,6.819-8.068,6.723-9.508-2.017-40.53-2.209-7.972-4.418-16.327-4.9-18.536-1.729-8.74-7.2-14.887-15.943-18.056-7.587-2.689-24.971-1.249-36.016,2.977-1.537.576-1.633-.384-1.056-12.678.576-13.062.48-13.35-1.729-15.847s-38.994-21.514-47.157-24.4C547.351-840.476,538.131-840.284,531.984-838.075Zm23.05,3.65c6.435,2.785,7.876,6.147,7.2,15.943a76.437,76.437,0,0,1-3.265,16.423l-2.785,8.644-3.938.576c-5.378.672-9.412,3.554-22.666,16.231-8.836,8.548-11.621,10.565-12.294,9.508-.48-.768-2.881-5.282-5.378-9.989-2.4-4.8-7.2-12.87-10.565-18.056l-6.051-9.412,1.825-2.593c2.5-3.458,11.813-12.39,18.632-17.864a66.366,66.366,0,0,1,19.4-10.853C540.244-837.5,549.56-836.922,555.035-834.425Zm-90.473,3.746c14.5,7.2,33.327,31.982,49.462,65.117,4.9,9.989,9.892,21.226,11.141,24.779l2.209,6.531-6.723,6.723c-3.65,3.746-12.678,11.717-20.073,17.672l-13.446,10.949-.576-13.638c-.96-20.361-4.13-32.175-13.638-51.1-4.8-9.508-7.011-12.774-12.678-18.44-5.186-5.186-7.683-7.011-10.373-7.491-4.034-.768-8.836.768-10.181,3.265-1.537,2.593-2.017.768-3.169-10.757-.864-8.356-.864-12.486,0-17.1C439.494-830.3,451.4-837.21,464.562-830.679Zm116.02,8.836c8.26,4.13,15.943,8.452,16.9,9.6,1.633,1.825,1.729,3.073,1.152,13.254a128.668,128.668,0,0,1-1.152,13.446c-.384,1.345-2.305,2.785-5.475,4.13-7.4,3.169-20.841,10.853-33.327,19.017A109.9,109.9,0,0,0,538.9-746.065c-4.8,4.994-9.028,8.644-9.22,8.26a28.1,28.1,0,0,1-1.633-4.322c-1.057-3.266-.96-3.554,3.362-8.164,17.192-18.44,25.932-33.615,32.078-56.089,1.921-6.915,2.785-19.977,1.441-22.09-.288-.48-.384-.96,0-.96C565.215-829.431,572.226-826.069,580.582-821.844Zm-143.873-3.265a20.314,20.314,0,0,1-1.633,3.65c-1.441,2.5-1.729,5.474-1.729,16.519.1,16.9,1.153,21.514,8.164,35.632,8.74,17.768,16.135,28.141,29.485,41.683l11.909,12.005-.288,9.412-.288,9.412-14.407-19.977c-14.6-20.169-20.553-27.276-34.576-40.722-13.158-12.582-26.892-23.531-34.1-27.276-1.825-.96-3.458-1.729-3.554-1.825-.48-.384,4.322-18.44,5.763-21.8,1.345-3.169,2.305-3.746,17.576-10.277C435.556-825.589,436.709-825.973,436.709-825.109Zm-62.14,35.152c19.017,2.881,36.112,14.022,62.716,40.818,9.124,9.124,15.463,16.9,29.2,35.824,17.384,23.915,27.853,35.728,41.779,47.061,2.689,2.209,4.8,4.514,4.8,5.09,0,1.825-5.09,2.785-18.248,3.361-14.695.576-27.372-1.537-37.265-6.243-7.972-3.746-19.017-13.638-23.242-20.745-3.746-6.243-6.819-9.989-23.435-28.909-13.35-15.079-26.8-28.621-34.1-34.1-4.226-3.266-6.531-4.226-10.181-4.61-6.051-.576-10.181,1.153-12.2,4.9l-1.441,2.881-1.921-2.305c-5.667-7.2-10.085-21.033-8.836-28.141,1.249-7.876,4.322-11.429,12.1-14.118C360.258-791.206,365.061-791.4,374.569-789.957ZM553.114-786.5a92.849,92.849,0,0,1-11.525,19.113c-6.435,8.644-14.407,17.672-15.559,17.672-.864,0-5.763-10.085-5.763-12.005,0-1.441,20.169-21.13,25.836-25.259,2.3-1.729,5.186-3.073,6.435-3.073h2.209Zm-102.67.672c10.469,4.418,23.915,26.7,29.581,49.366,4.514,17.576,4.13,17.864-7.4,6.339a139.279,139.279,0,0,1-16.039-19.209c-7.4-11.141-16.039-27.372-16.039-30.254,0-3.65,2.593-6.627,6.531-7.491A15.184,15.184,0,0,1,450.443-785.827ZM640.9-784.194a22.7,22.7,0,0,1,7.587,6.531c2.5,3.554,2.881,4.994,2.881,9.989-.1,6.627-2.017,11.237-8.356,19.689l-3.746,5.09-2.5-2.017c-4.61-3.65-10.757-2.5-25.836,4.9-10.181,4.994-17.768,10.469-27.757,20.073l-7.683,7.4-21.13,3.169c-25.163,3.65-45.429,9.22-58.106,15.943l-8.068,4.322-1.729-2.209c-1.633-2.113-1.633-2.305.96-4.13a369.578,369.578,0,0,0,44.948-39.378c15.751-16.615,19.209-19.5,34-28.717,26.988-17,45.044-23.819,61.084-23.339C634.558-786.692,637.056-786.115,640.9-784.194ZM340.185-762.489c2.593,14.214,22.858,36.881,41.779,46.773,7.683,4.034,22.954,8.644,26.892,8.068,2.5-.384,3.554.384,9.893,7.779,9.22,10.661,15.079,19.113,14.5,20.745-.96,2.4-29.677,13.158-42.547,15.943-4.61.961-4.61.961-13.542-4.61l-8.932-5.667.192-8.068c.192-7.2,0-8.452-1.921-10.469-2.977-3.265-7.107-4.706-16.808-5.859-4.706-.576-8.548-1.153-8.644-1.248s-2.689-4.994-5.955-10.757c-5.859-10.661-8.836-18.056-8.836-21.9,0-2.4,11.717-34.287,12.582-34.287C339.225-766.042,339.8-764.409,340.185-762.489Zm320.689,27.564c2.785,10.373,3.073,14.407,1.249,17.576a140.414,140.414,0,0,1-9.508,10.661l-8.26,8.548-8.548.768c-12.87,1.057-14.791,2.689-16.039,13.446-.384,2.593-.96,4.994-1.345,5.474-.384.384-5.667,3.169-11.717,6.147l-10.949,5.57-7.78-2.689c-4.226-1.441-12.1-4.61-17.48-6.915-19.3-8.356-38.225-11.333-63.581-9.892-8.164.48-15.079.576-15.367.288-.864-.768,2.5-2.977,9.989-6.627,11.237-5.378,31.79-10.661,54.457-13.926,29.005-4.226,36.208-5.859,49.27-11.237,13.734-5.571,23.339-11.045,29.966-17,5.955-5.378,14.983-17,17.192-22.186l1.633-3.842,2.209,8.164C657.417-748.082,659.53-740.207,660.874-734.924ZM372.456-746.93c2.305,1.441,7.876,6.147,12.294,10.277,8.548,7.972,24.4,25.356,23.819,26.028-.768.672-10.853-1.921-18.248-4.706-7.587-2.977-18.728-10.277-27.372-18.152-6.051-5.474-7.4-8.164-6.051-11.717C358.818-750.291,366.021-751.156,372.456-746.93Zm262.1,4.418c2.593,3.169-4.226,9.22-18.248,16.327-9.508,4.8-24.779,10.565-30.254,11.525l-3.842.672,4.8-4.9a81.585,81.585,0,0,1,22.09-16.519C623.129-742.992,632.061-745.489,634.558-742.512Zm-286.4,47.542c10.853,1.344,14.695,2.785,16.519,6.051,1.345,2.5,1.345,2.785-.672,4.418-1.153.96-5.475,2.881-9.6,4.322-12.294,4.226-19.3,7.3-21.9,9.7-2.305,2.209-2.4,2.785-2.4,12.39,0,5.571-.288,10.277-.672,10.469-.48.288-6.243.192-12.966-.1l-12.2-.48-3.458-11.141a234.721,234.721,0,0,0-8.356-21.994c-2.689-5.955-4.706-11.045-4.418-11.237a74.869,74.869,0,0,1,9.892-1.729C309.452-696.027,337.112-696.315,348.157-694.97Zm325.971,2.5c12.582,2.305,26.7,6.531,26.7,7.972,0,.384-3.65,6.147-8.164,12.87a215.958,215.958,0,0,0-11.525,19.5l-3.362,7.4-7.4-.672c-4.034-.288-9.412-.576-12.005-.576h-4.61v-10.949c0-10.853,0-11.045-2.689-13.254a106.57,106.57,0,0,0-11.621-7.011c-14.214-7.683-17.96-11.621-13.926-14.983C629.084-695.162,658.665-695.354,674.128-692.473ZM540.052-682c11.909,2.113,21.13,4.8,29.581,8.74,25.452,11.717,52.152,17.48,70.208,15.079a71.313,71.313,0,0,0,9.412-1.729c1.537-.672,1.633.384,1.537,13.062-.1,23.147-1.249,24.4-23.915,24.4-12.582,0-14.791-.288-23.05-2.785-17.192-5.186-28.141-10.181-46.581-21.226-15.751-9.508-19.4-11.237-26.412-12.87a69.03,69.03,0,0,0-10.373-2.017c-1.441,0-6.051-3.362-13.254-9.892-5.955-5.378-10.949-10.085-10.949-10.469C496.256-683.733,528.911-683.925,540.052-682Zm89.7,2.785c2.593,1.729,8.164,4.994,12.39,7.3,10.085,5.378,11.045,7.684,4.13,9.6-5.282,1.441-26.124,1.249-26.124-.288,0-1.345,1.633-13.158,2.4-17.768.288-1.729.96-2.881,1.537-2.5C624.57-682.581,627.163-680.948,629.756-679.219ZM363.524-659.242c-1.921,1.152-17.288.96-21.034-.384-4.8-1.537-8.548-4.514-8.548-6.531,0-2.689,3.458-4.61,17.576-9.6L364.2-680.18l.288,10.085C364.676-662.7,364.388-659.818,363.524-659.242Zm78.756-11.621c6.339,5.763,11.045,8.932,17.1,11.237l4.418,1.729-12.486,8.836c-6.915,4.8-14.791,9.892-17.576,11.237-9.412,4.8-26.316,10.949-34.96,12.678-17.288,3.458-51.959,1.345-62.62-3.746-3.362-1.633-3.554-2.881-2.689-18.728l.672-12.582,3.458,2.017c6.531,3.842,29.389,3.265,50.9-1.345,10.085-2.209,34.48-10.277,41.3-13.734a30.727,30.727,0,0,1,5.859-2.4C436.325-675.665,439.3-673.552,442.28-670.863Zm175.471,2.689c-.384,3.266-.961,6.051-1.249,6.243-.672.288-12.1-1.825-14.6-2.881-.96-.288,1.633-2.113,7.2-5.09,4.8-2.4,8.836-4.418,9.028-4.226C618.327-674.033,618.135-671.343,617.751-668.174Zm-242.894,2.689c5.955,3.938,5.667,4.514-2.209,5.571l-5.09.672v-4.9c0-2.689.48-4.9.96-4.9C369.094-669.038,371.88-667.406,374.857-665.485ZM549.08-646.948c2.4,1.153,7.972,4.322,12.486,7.011s13.062,7.107,19.113,9.8,11.141,5.378,11.333,5.955-2.785,1.249-7.779,1.729c-5.282.384-8.26,1.056-8.644,1.921-.672,1.729.288,2.4,3.265,2.4,3.458,0,6.339,3.073,4.514,4.706-1.057.768-2.113.768-4.514-.1-2.5-.864-6.627-.768-17.576.1-9.22.768-27.084,1.153-49.751.96-31.214-.288-35.536-.1-37.073,1.249-2.785,2.4-7.683,4.61-10.277,4.61a18.144,18.144,0,0,1-5.859-1.633c-5.667-2.689-4.13-5.378,3.842-6.435,4.9-.576,7.876-2.5,6.819-4.322-.48-.768-1.633-.48-3.746.672-5.763,3.073-39.474,1.921-51.383-1.921-3.361-1.056-5.955-2.305-5.763-2.881.192-.48,4.706-2.593,9.892-4.61,13.542-5.09,18.344-7.3,25.644-12.2l6.435-4.322,21.418.672,21.418.672,4.514-3.265,4.418-3.169,21.514.1C543.509-649.157,545.046-648.965,549.08-646.948Z" transform="translate(-11.209 -4.092)"/><path d="M367.028-276.695c-1.441,1.537-2.017,2.977-1.633,4.13.768,2.5,6.051,7.78,9.412,9.508,3.842,2.017,18.632,5.378,22.186,4.994,4.322-.384,4.322-2.5,0-3.265-6.339-1.056-18.152-7.876-22.762-12.966a40.653,40.653,0,0,0-4.61-4.706A10.124,10.124,0,0,0,367.028-276.695Z" transform="translate(-14.425 -21.566)"/><path d="M386-250.075c0,1.249,1.825,2.881,5.571,5.09,4.8,2.785,5.474,3.65,5.763,6.531.48,4.61,1.537,5.474,7.683,6.243a64.341,64.341,0,0,1,9.22,1.921c5.763,2.017,12.39,1.729,13.83-.576.864-1.441,2.209-1.921,5.378-1.921,2.5,0,4.61-.576,5.378-1.441a4.867,4.867,0,0,1,3.169-1.441c3.842,0,.192-1.729-4.61-2.209-2.593-.288-6.723-.96-9.124-1.441-7.683-1.729-14.887-3.169-16.327-3.265-3.169-.192-16.039-4.9-19.4-7.107C388.209-252.477,386-252.669,386-250.075Z" transform="translate(-15.244 -22.374)"/><path d="M348.341-191.695c-1.537,2.305-1.153,4.706,1.249,7.491,1.056,1.249,1.249,2.881.864,5.955-.672,4.8-19.113,57.434-21.322,60.7a8.1,8.1,0,0,1-4.322,2.785,5.466,5.466,0,0,0-4.418,6.819c.672,2.5,5.378,5.282,12.1,7.107,2.4.672,9.988,3.265,16.808,5.955,44.852,17.1,67.038,14.6,81.925-9.22,10.469-16.712,12.1-32.175,4.994-47.445-3.554-7.683-13.542-17.768-21.8-22.09C406.448-177.865,358.042-194,353.432-194,350.743-194,349.494-193.424,348.341-191.695Zm48.5,25.451c12.582,10.661,14.022,30.638,3.362,48.6-7.107,12.1-17.672,18.632-28.141,17.48-4.9-.576-9.22-3.265-9.6-6.147-.576-4.034,18.248-56.57,22.474-62.524C387.143-172.006,391.081-171.046,396.843-166.243Z" transform="translate(-12.642 -22.563)"/><path d="M604.376-185.21c-26.412,7.2-54.457,15.751-55.993,17.1-1.345,1.249-2.113,1.345-4.13.48-1.441-.672-7.491-1.153-14.791-1.153-11.333,0-12.678.192-14.5,2.017-2.209,2.209-1.825,4.9,1.249,8.26,1.441,1.537,1.633,2.4.864,3.938-1.825,3.458-7.972,10.277-12.966,14.406-5.474,4.514-16.9,11.717-18.632,11.717-.864,0-1.152-3.554-1.152-13.062v-13.062l3.361-2.977c2.305-2.017,3.362-3.746,3.362-5.571,0-4.706-1.633-5.186-20.937-5.474-9.8-.192-19.209-.1-21.033.288-6.531,1.153-7.491,8.356-1.537,11.237,2.5,1.153,2.689,1.729,3.458,9.412.384,4.514.576,19.977.48,34.287l-.288,26.22-3.169,2.881c-2.593,2.305-3.169,3.458-2.881,5.955.48,5.186,2.593,5.667,24.011,5.378,20.745-.288,22.186-.672,22.186-6.147,0-2.5-.672-3.362-4.8-5.763-1.441-.96-1.729-2.689-2.113-12.774-.288-12.582.768-16.423,4.706-16.423,2.113,0,6.819,6.051,13.638,17.288,5.763,9.7,5.955,10.277,3.65,13.158a10.142,10.142,0,0,0-1.921,5.282c0,4.706,3.746,5.571,25.163,5.571,15.463,0,18.92-.288,20.745-1.537,3.458-2.4,2.593-6.915-1.921-9.989-2.3-1.537-5.09-4.994-7.78-9.6a262.026,262.026,0,0,0-20.553-29.966c-2.785-3.554-5.09-6.819-5.09-7.2,0-1.056,24.3-25.259,25.355-25.259a13.2,13.2,0,0,0,4.034-2.4c2.689-2.113,3.458-2.209,6.339-1.249a16.352,16.352,0,0,1,4.322,2.113c1.441,1.345,6.819,19.5,12.1,41.395,5.763,23.627,5.763,23.627,2.977,27.468-4.226,5.763-2.593,10.469,3.65,10.469,4.034,0,51.191-11.717,61.276-15.175,17.768-6.147,25.163-14.983,25.259-29.966.1-7.491-2.113-12.39-7.876-17.576-3.746-3.362-11.429-6.435-16.039-6.435-3.458,0-3.458-1.441.1-5.859,4.514-5.571,6.723-12.966,5.378-17.864a21.73,21.73,0,0,0-7.972-12.005C626.754-188.764,619.359-189.244,604.376-185.21Zm2.209,17.384c3.362,3.746,3.458,8.548.1,15.079-2.689,5.571-9.316,12.1-11.717,11.621-1.153-.192-2.3-3.073-4.226-10.373-3.073-12.1-3.265-14.6-.864-16.712C594.579-172.532,602.455-172.34,606.585-167.826Zm12.774,36.593c6.819,5.282,8.932,13.734,5.186,21.034a17.031,17.031,0,0,1-13.35,9.412c-4.034.384-4.8.1-6.243-1.825-2.209-3.169-5.571-14.791-5.763-19.977l-.1-4.226,6.723-3.65c3.746-2.017,7.4-3.746,8.26-3.746S617.342-132.866,619.359-131.234Z" transform="translate(-17.523 -22.805)"/><path d="M199.768-850.87C166.921-821,165-819.08,165-816.487c0,1.921,1.921,2.881,4.514,2.209,1.729-.48,17.192,14.5,34.191,33.135,6.819,7.492,7.4,8.452,7.4,12.294,0,3.457.288,4.13,1.921,4.13,2.113,0,3.265-.96,26.6-22.378,9.124-8.452,16.712-15.943,16.712-16.808.384-4.706-3.842-11.717-6.819-11.717-2.113,0-2.689,1.057-5.282,9.988-1.441,4.994-2.593,6.723-8.548,12.39-8.548,8.26-10.853,9.6-13.926,7.972-2.785-1.537-16.423-16.712-16.423-18.44,0-2.209,14.407-14.6,18.152-15.463,4.706-1.153,4.8-3.266.192-8.164-4.322-4.706-6.243-4.418-8.164.864C214.462-823.4,201.208-810.82,199-810.82c-1.249,0-9.7-8.74-12.294-12.678-1.633-2.593-1.633-2.689.384-5.57,4.61-6.531,15.943-13.83,22.954-14.983,3.265-.48,3.938-.96,3.938-2.785,0-2.4-5.859-8.164-8.26-8.164C204.954-855,202.265-853.175,199.768-850.87Z" transform="translate(-6.5 -5.321)"/><path d="M814.3-830.848a9.406,9.406,0,0,0-.576,4.13c.192,2.689-.864,4.13-9.124,12.1-5.186,4.994-14.695,13.446-21.129,18.921-10.565,8.836-12.1,9.8-15.559,9.8-4.514,0-5.474,1.056-3.746,4.226,1.921,3.746,15.175,17.1,16.423,16.616.672-.192,1.249-2.017,1.441-4.13.288-3.073,1.249-4.706,5.282-8.836a99.939,99.939,0,0,1,8.548-7.588l3.649-2.5,4.322,3.265c2.305,1.825,4.514,3.938,4.8,4.8.672,2.113-2.689,12.39-6.531,19.593-2.881,5.282-3.362,5.763-6.627,6.051-5.378.48-4.706,2.5,3.65,12.1,5.57,6.339,7.876,8.26,9.412,8.068,1.633-.192,2.017-.96,2.113-3.65,0-1.825,1.537-6.435,3.265-10.085,1.825-3.746,4.61-10.373,6.243-14.887,2.881-7.876,3.073-8.164,5.763-7.876,9.989.96,14.5.576,17.768-1.345,7.4-4.226,9.7-13.926,5.378-22.282C846.092-800.114,818.047-832,815.934-832A2.288,2.288,0,0,0,814.3-830.848Zm16.039,23.531c11.141,9.412,11.525,20.361.768,24.683-3.65,1.441-4.418,1.441-8.452.1-4.9-1.633-15.463-9.412-15.463-11.429s16.423-15.943,18.825-15.943C826.691-809.91,828.612-808.758,830.341-807.317Z" transform="translate(-30.175 -4.65)"/><path d="M149.083-802.027c-2.305,1.344-12.2,14.6-12.582,16.808-.192,1.633.288,1.921,3.073,2.017,2.5,0,5.378,1.441,11.813,6.051,4.61,3.362,8.356,6.723,8.356,7.491,0,1.921-18.921,26.22-20.457,26.22-.672,0-4.61-2.785-8.836-6.147-6.243-4.994-7.78-6.723-8.164-9.316-.96-6.339-4.514-4.226-13.638,7.876-5.186,6.915-4.9,9.028.96,8.548,2.785-.192,7.876,3.169,26.988,17.672,22.282,17,21.226,16.039,21.8,19.977.576,3.362,2.5,5.186,4.322,4.13,2.209-1.441,13.35-16.808,13.35-18.536,0-2.4-1.633-3.073-4.706-1.921-2.689.961-4.9-.384-16.712-9.7l-7.491-5.955,1.633-2.593c3.265-5.186,18.056-23.435,19.209-23.915.672-.192,5.763,3.073,11.333,7.4,7.779,6.051,10.181,8.356,10.181,10.085,0,2.881,2.593,5.571,4.322,4.61,2.5-1.441,14.022-16.9,13.734-18.44-.192-1.056-1.441-1.537-4.13-1.537a12.577,12.577,0,0,1-7.2-2.305c-8.836-6.243-40.05-29.869-41.491-31.406a10.468,10.468,0,0,1-1.921-4.61C152.54-802.7,151.388-803.372,149.083-802.027Z" transform="translate(-4.125 -5.505)"/><path d="M868.67-766.555A3.1,3.1,0,0,0,868-763.77c.768,1.921-1.441,3.65-21.321,17.288-23.915,16.423-27.084,18.152-30.35,16.9-3.17-1.249-4.61-.384-4.13,2.3.576,2.881,29.293,45.429,31.406,46.677.961.48,2.017,2.5,2.4,4.514.864,4.8,6.339,15.751,8.548,17,2.017,1.249,3.554-.48,3.554-4.322a5.754,5.754,0,0,1,1.729-3.938c.864-.768,9.6-4.994,19.3-9.22,15.847-7.107,21.226-8.932,21.226-7.4,0,.961-9.028,18.536-19.3,37.553-5.763,10.565-10.757,20.553-11.045,22.186-.768,3.842,2.5,7.491,5.859,6.627,1.248-.288,10.277-4.226,19.977-8.644,33.423-15.271,36.208-16.327,39.858-14.983,6.147,2.209,6.339-2.209.384-12.966-2.977-5.474-6.147-6.627-6.723-2.4-.672,4.61-2.785,5.859-25.451,16.039-4.226,1.825-7.78,3.073-7.972,2.881-.288-.288,4.514-10.661,10.565-23.05,13.158-26.7,13.254-27.276,7.587-39.282-4.322-9.316-7.971-10.277-7.971-2.113,0,1.633-.96,2.977-3.073,4.226-4.9,2.977-46.293,21.13-48.214,21.13-2.113,0-5.378-1.729-5.378-2.785,0-.48,1.248-1.345,2.881-2.017a13.293,13.293,0,0,0,3.842-2.4c1.537-1.921-.384-4.9-3.554-5.763-5.474-1.345-10.853-5.379-15.271-11.621-6.339-8.932-8.164-12.774-7.107-14.791.48-.96,5.57-4.706,11.141-8.26l10.277-6.531,2.785,3.266c4.514,5.379,9.124,13.638,9.8,17.576.384,2.017,1.249,3.842,2.017,4.13,2.593,1.057,10.085-4.418,10.085-7.4,0-.864-1.249-2.113-2.881-2.785-1.921-.768-4.514-3.842-8.164-9.412-2.881-4.514-5.282-8.74-5.282-9.508,0-1.537,13.926-10.853,16.424-10.853,4.322,0,13.446,15.655,14.31,24.491.384,5.09.768,5.763,2.689,6.051,2.977.48,8.836-4.034,8.836-6.819,0-2.305-25.643-41.2-29.005-44.18C870.879-768.38,870.207-768.38,868.67-766.555Z" transform="translate(-32.104 -6.396)"/><path d="M98.651-723.169c-4.034,2.5-12.1,11.237-15.079,16.423-7.2,12.486-7.4,30.062-.384,41.2,3.362,5.186,10.661,11.525,16.712,14.31,4.9,2.3,6.627,2.593,16.039,2.593,9.7,0,11.045-.192,15.943-2.785,15.367-7.779,24.779-23.338,23.723-39.474-.576-9.8-5.859-16.807-9.316-12.582-.96,1.153-.864,2.785.48,8.26,1.345,5.57,1.441,7.683.48,12.2-3.842,19.209-21.8,26.8-40.914,17.1-8.452-4.226-15.271-10.084-17.96-15.271-3.265-6.051-2.977-14.983.576-21.514,4.418-7.972,10.373-11.813,19.785-12.582,5.378-.48,6.243-.864,6.243-2.5,0-1.248-1.537-2.689-5.282-4.514C103.453-725.474,102.4-725.57,98.651-723.169Z" transform="translate(-3.06 -7.879)"/><path d="M65.568-646.913c-4.418.864-7.491,4.13-10.661,10.949-7.011,14.887-6.147,28.045,2.5,36.208,8.164,7.779,22.378,7.2,29.485-1.153,1.441-1.729,4.8-7.491,7.4-12.774,2.689-5.187,5.955-10.565,7.3-11.813a11.136,11.136,0,0,1,12.1-2.017c4.9,2.113,6.819,6.243,6.243,13.638-.96,11.429-8.068,19.689-18.825,22.09-5.186,1.056-6.627,6.051-2.593,8.74,2.113,1.441,2.689,1.441,7.107-.1,7.011-2.305,12.87-7.972,17.1-16.616,3.458-7.011,3.65-7.683,3.65-17,0-9.124-.192-9.988-2.881-14.406-4.514-7.3-9.7-10.469-17.768-10.853-11.237-.672-15.175,2.689-24.491,20.745-4.13,7.972-8.932,12.678-12.774,12.678-3.65-.1-10.373-3.266-11.621-5.57-1.921-3.554-1.153-9.22,1.921-15.367,2.977-6.051,6.243-9.22,10.757-10.277,3.073-.768,4.8-2.689,4.322-4.9C73.443-646.817,69.7-647.777,65.568-646.913Z" transform="translate(-1.959 -10.231)"/><path d="M941.387-618.794a6.993,6.993,0,0,1-3.65,3.362c-3.265,1.345-39.57,10.181-48.214,11.717-5.763,1.056-6.339.96-9.028-.96-2.4-1.825-2.977-1.921-4.13-.768-1.249,1.249-1.153,2.593.576,10.469,3.362,14.983,7.683,31.694,9.22,35.344,3.073,7.4,11.525,13.542,18.536,13.542,8.548,0,14.695-4.8,18.344-14.406,1.921-5.09,2.305-5.186,6.819-2.3,8.452,5.378,19.3,3.746,23.146-3.458,3.169-5.955,1.825-20.553-4.13-44.66C946.573-620.331,943.308-623.788,941.387-618.794Zm3.553,23.146c.768,1.441,1.537,5.186,1.825,8.356.576,5.378.48,5.667-2.881,9.028-4.706,4.706-9.7,4.706-14.887.1-4.034-3.65-9.316-13.254-8.548-15.367.288-.768,3.746-2.017,8.068-2.881,4.13-.961,7.972-1.825,8.452-2.017a13.952,13.952,0,0,1,3.842-.192C942.924-598.529,943.98-597.665,944.94-595.648Zm-30.926,8.932a44.09,44.09,0,0,1,2.977,9.988c.96,8.452-4.61,14.31-13.734,14.31-4.13,0-5.378-.48-8.74-3.362a17.56,17.56,0,0,1-5.474-7.876c-1.825-5.378-2.017-11.237-.288-12.582,1.344-1.153,17.48-5.763,20.649-5.859C911.133-592.19,912-591.134,914.014-586.716Z" transform="translate(-34.613 -10.973)"/><path d="M47.85-591.306a8.259,8.259,0,0,0-4.61,2.113c-1.921,2.209-8.548,38.609-8.644,48.118l-.1,7.107,3.842,2.209c4.418,2.5,8.932,2.881,9.7.768.384-.864-.576-3.266-2.113-5.378-2.209-3.265-2.689-4.9-2.593-9.22.192-8.068-.1-8.068,17.288-5.378,17.96,2.593,36.4,5.955,39.474,7.107a6.394,6.394,0,0,1,3.073,3.266,3.32,3.32,0,0,0,2.785,2.4c1.441,0,2.113-1.345,3.458-6.531a99.815,99.815,0,0,0,2.113-12.87c.48-5.57.288-6.531-1.056-7.107-1.056-.384-2.593.288-4.418,2.017l-2.785,2.593-11.333-1.537c-10.757-1.537-36.112-5.667-41.779-6.915-2.209-.384-2.689-1.056-2.689-3.265,0-4.418,1.537-7.2,6.435-11.909,3.938-3.842,4.418-4.61,3.169-5.763C55.341-591.018,51.884-591.786,47.85-591.306Z" transform="translate(-1.337 -11.914)"/><path d="M955.635-539.594l-2.593,2.4-22.762-.192c-21.8-.192-22.859-.1-27.18,2.017-5.09,2.5-8.26,5.955-12.005,12.966-2.4,4.61-2.593,5.667-2.593,17.864,0,12.294.192,13.254,2.689,18.44a31.492,31.492,0,0,0,6.531,8.74c7.2,6.147,14.887,7.2,39.186,4.994l18.536-1.729,2.113,2.689c1.441,1.825,2.689,2.5,3.746,2.113,1.344-.48,1.633-2.113,1.633-9.22,0-12.582-1.441-14.5-6.051-8.356-2.4,3.073-2.785,3.169-12.2,4.322-5.282.576-15.847,1.057-23.339,1.057-12.294,0-14.118-.192-17.96-2.209-6.051-2.977-8.644-8.356-8.644-17.576,0-3.842.48-8.164,1.056-9.7,1.249-3.361,5.282-7.683,9.028-9.6,4.034-2.113,17.384-2.689,34.1-1.345,13.638,1.056,14.023,1.153,16.616,3.938,2.977,3.169,3.65,3.361,5.282,1.729,1.441-1.441,1.537-21.226.192-23.915C959.668-542.571,958.8-542.475,955.635-539.594Z" transform="translate(-35.126 -13.344)"/><path d="M33.375-521.847c-.384.672-.672,4.8-.576,9.316.1,5.955.576,8.548,1.729,9.7,1.345,1.249,1.633,1.249,2.881-.48a21.768,21.768,0,0,0,2.209-3.265c1.249-2.113,8.356-3.073,28.909-3.554,19.5-.576,19.785-.576,24.011,1.729,5.955,3.265,8.74,8.932,8.932,17.768.1,8.932-2.593,14.695-8.74,18.344-4.322,2.5-4.994,2.593-18.44,2.593-7.683,0-17.768-.384-22.378-.768-7.491-.768-8.932-1.249-11.813-3.746-1.825-1.633-3.842-2.689-4.61-2.4-2.881,1.153-3.169,22.474-.288,25.355,1.537,1.537,1.825,1.441,4.418-1.056L42.5-455l20.649.672c25.932.864,28.717.384,35.728-6.627,6.819-6.915,9.22-13.446,9.316-25.547.1-10.949-1.921-18.344-6.339-24.2-6.531-8.548-16.616-11.141-35.824-9.412-27.757,2.5-25.74,2.5-27.564-.384C36.641-523.191,34.528-523.768,33.375-521.847Z" transform="translate(-1.269 -13.907)"/><path d="M890.582-463.37c-1.345,2.593-3.938,17.48-3.265,19.017.768,2.113,2.5,1.729,5.09-.96a6.905,6.905,0,0,1,5.667-2.4c4.034,0,36.016,6.339,39.474,7.78l2.4,1.056-2.4,1.921c-1.345,1.057-14.311,7.78-28.813,14.983-14.5,7.107-27.372,13.83-28.525,14.887A6.6,6.6,0,0,0,878-402.383a4.625,4.625,0,0,0,2.209,4.034c1.153.672,11.717,3.073,23.435,5.282,31.31,5.763,38.513,7.587,39.186,9.7.864,2.785,3.169,4.226,4.706,2.977,2.5-2.113,4.61-18.44,2.5-19.785-.576-.384-2.305.48-3.938,1.921-2.689,2.209-3.554,2.4-7.491,1.825-10.853-1.633-29.293-5.763-29.581-6.627-.192-.576,3.073-2.593,7.107-4.61,4.13-2.017,14.6-7.684,23.242-12.486,17.96-9.989,18.344-10.469,20.745-23.242,1.249-6.531,1.249-7.78.1-8.932s-1.729-.96-4.034,1.633c-1.825,2.017-3.458,2.977-5.378,2.977-3.554,0-50.615-9.508-52.728-10.661-.864-.384-1.825-2.113-2.113-3.746C895.288-465.387,892.119-466.156,890.582-463.37Z" transform="translate(-34.711 -15.56)"/><path d="M96.922-449.027c-3.265,1.345-2.689,3.362,2.113,8.26,5.474,5.57,6.627,7.78,8.548,17.1,2.113,10.181,2.017,13.734-.384,14.983-.96.576-6.723,1.825-12.678,2.881-8.452,1.441-11.141,1.537-12.005.672-2.113-2.017-4.322-15.079-3.746-21.514.576-5.763.48-6.051-1.633-6.531-2.977-.768-9.892,1.056-10.565,2.785-.288.672.48,2.785,1.729,4.514,2.689,3.746,6.147,21.514,4.61,23.05-.576.576-4.994,1.633-9.892,2.4-10.565,1.729-10.757,1.633-12.966-6.819-1.921-7.491-1.825-16.231.192-21.9,1.441-4.034,1.441-4.706.288-5.571-1.537-.96-7.011-.288-9.8,1.153-2.5,1.345-2.209,4.322,2.689,29.869,3.169,16.135,4.994,23.531,6.243,25.067l1.825,2.113,2.593-3.073c2.5-2.881,3.746-3.265,19.017-6.435,9.028-1.921,21.514-4.322,27.757-5.475l11.429-2.017,2.689,2.017c3.458,2.593,4.514,2.5,5.186-.192.768-3.169-9.508-54.265-11.237-56.089C107.1-449.507,99.9-450.372,96.922-449.027Z" transform="translate(-1.523 -16.089)"/><path d="M873.108-385.883c-2.113,3.266-9.989,27.661-11.237,34.96-1.537,8.74-.576,15.847,2.881,22.954,3.65,7.4,9.8,13.158,18.152,17.1,5.571,2.593,7.492,2.977,14.6,3.073,7.4,0,8.836-.288,14.6-3.169,7.876-3.842,14.022-10.469,18.44-19.785,3.842-7.972,11.141-30.638,11.141-34.48,0-3.265-2.3-4.322-4.706-2.209a7.793,7.793,0,0,1-4.61,1.537c-3.073,0-46.773-13.542-51.287-15.847a6.808,6.808,0,0,1-3.169-3.842C877.142-388.572,874.933-388.668,873.108-385.883Zm28.909,27.564c12.774,4.226,24.107,8.164,25.259,8.74,6.723,3.554-4.9,21.9-15.847,24.971-7.011,1.921-19.113.864-25.451-2.305-13.83-7.011-19.785-18.728-16.231-31.79,1.345-4.9,3.458-7.2,6.531-7.2C877.622-365.906,889.243-362.449,902.017-358.319Z" transform="translate(-34.045 -17.884)"/><path d="M87.036-376.454c-6.243,2.3-13.83,7.587-16.616,11.717-7.683,11.045-8.74,22.666-3.65,38.609,3.938,12.2,9.028,24.683,11.045,26.988,2.017,2.4,3.746,1.921,4.418-1.056a8.37,8.37,0,0,1,2.977-4.034c2.4-1.825,22.954-9.6,42.547-16.135,9.22-3.073,9.6-3.073,12.2-1.537,6.051,3.554,5.955-.1-.768-18.632-7.587-20.937-12.87-28.717-23.531-34.191-4.322-2.305-6.435-2.689-14.695-2.977C93.855-377.894,90.206-377.606,87.036-376.454Zm22.57,12.966c9.989,1.825,15.271,5.763,19.689,14.407,2.4,4.514,2.4,8.74.288,10.661-2.305,2.017-48.118,18.248-50.519,17.864-5.474-.864-8.452-15.271-5.09-24.3C77.24-353.211,86.94-360.7,97.793-363.1c3.265-.672,6.051-1.345,6.147-1.345C103.94-364.544,106.533-364.064,109.606-363.488Z" transform="translate(-2.49 -18.185)"/></g></g></svg>