<svg id="Layer_1" data-name="Layer 1" xmlns="http://www.w3.org/2000/svg" viewBox="0 0 1024 1024"><defs><style>.cls-1{fill:#fff;}</style></defs><path id="Path_2008" data-name="Path 2008" class="cls-1" d="M0,512C0,229.23,229.23,0,512,0s512,229.23,512,512-229.23,512-512,512S0,794.77,0,512"/><path id="Path_2009" data-name="Path 2009" class="cls-1" d="M644.27,691.68c0,30.82-59.23,55.8-132.26,55.8s-132.26-25-132.26-55.8c0-63.59,59.21-55.8,132.26-55.8s132.27-15.46,132.27,55.8"/><path id="Path_2010" data-name="Path 2010" d="M512,750.2c-75.69,0-135-25.7-135-58.52,0-18,4.58-31.25,14-40.56,19.2-19,56.32-18.61,99.35-18.12,18,.19,37.39,0,55-.6,37.12-1.28,69.23-2.4,86.91,14.68,9.88,9.56,14.72,24.14,14.72,44.59,0,32.82-59.3,58.52-135,58.52m-41-111.9c-33.43,0-61.37,2-76.2,16.69-8.32,8.25-12.37,20.24-12.37,36.69,0,29.27,58.1,53.07,129.54,53.07s129.5-23.8,129.5-53.06c0-18.91-4.27-32.2-13-40.67-16-15.48-47-14.4-82.93-13.18-10.8.38-22,.76-33.58.76-7.39,0-14.63-.07-21.7-.15-6.58-.08-13-.14-19.27-.14"/><path id="Path_2011" data-name="Path 2011" class="cls-1" d="M644.27,631.23C644.27,662.05,585,687,512,687s-132.26-25-132.26-55.8c0-63.59,59.21-55.79,132.26-55.79S644.28,560,644.28,631.23"/><path id="Path_2012" data-name="Path 2012" d="M512,689.75c-75.7,0-135-25.7-135-58.53,0-18,4.59-31.24,14-40.55,19.2-19,56.32-18.56,99.34-18.12,18,.18,37.4,0,55-.6,37.16-1.28,69.24-2.38,86.91,14.69,9.88,9.54,14.69,24.13,14.69,44.57,0,32.83-59.29,58.53-135,58.53m-41-111.9c-33.42,0-61.37,2-76.16,16.69-8.32,8.25-12.37,20.24-12.37,36.68,0,29.28,58.1,53.08,129.54,53.08s129.54-23.8,129.54-53.08c0-18.89-4.26-32.19-13-40.66-16-15.46-47-14.38-82.94-13.17-10.8.38-22,.76-33.58.76-7.39,0-14.65-.07-21.71-.15-6.59-.08-13-.15-19.28-.15"/><path id="Path_2013" data-name="Path 2013" class="cls-1" d="M644.27,570.78c0,30.82-59.23,55.8-132.26,55.8s-132.26-25-132.26-55.8C379.75,507.19,439,515,512,515s132.27-15.46,132.27,55.79"/><path id="Path_2014" data-name="Path 2014" d="M512,629.31c-75.7,0-135-25.71-135-58.49,0-18,4.59-31.26,14-40.57,19.2-19,56.32-18.6,99.34-18.12,18.05.18,37.39,0,55-.6,37.12-1.28,69.22-2.39,86.92,14.69,9.88,9.56,14.68,24.14,14.68,44.59,0,32.82-59.29,58.53-135,58.53m-41-111.91c-33.43,0-61.39,2-76.21,16.7-8.32,8.24-12.37,20.23-12.37,36.69,0,29.26,58.11,53.06,129.54,53.06s129.54-23.8,129.54-53.06c0-18.91-4.26-32.21-13-40.68-16-15.48-47-14.4-82.94-13.17-10.79.38-22,.76-33.58.76-7.39,0-14.63-.07-21.69-.15-6.58-.08-13-.15-19.26-.15"/><path id="Path_2015" data-name="Path 2015" class="cls-1" d="M644.27,510.32c0,30.82-59.23,55.8-132.26,55.8s-132.26-25-132.26-55.8c0-63.59,59.21-55.79,132.26-55.79s132.27-15.46,132.27,55.79"/><path id="Path_2016" data-name="Path 2016" d="M512,568.87c-75.7,0-135-25.72-135-58.53,0-18,4.59-31.26,14-40.57,19.2-19,56.32-18.59,99.34-18.12,18.05.18,37.39,0,55-.6,37.12-1.28,69.22-2.39,86.92,14.69,9.88,9.56,14.68,24.14,14.68,44.59,0,32.82-59.29,58.51-135,58.51M471.07,457c-33.43,0-61.39,2-76.21,16.7-8.32,8.24-12.37,20.23-12.37,36.69,0,29.26,58.11,53.06,129.54,53.06s129.54-23.8,129.54-53.06c0-18.91-4.26-32.21-13-40.68-16-15.47-47-14.4-82.94-13.17-10.79.38-22,.76-33.58.76-7.39,0-14.63-.07-21.69-.15-6.58-.08-13-.15-19.26-.15"/><path id="Path_2017" data-name="Path 2017" class="cls-1" d="M644.27,449.88c0,30.81-59.23,55.79-132.26,55.79s-132.26-25-132.26-55.79c0-63.6,59.21-55.8,132.26-55.8s132.27-15.46,132.27,55.8"/><path id="Path_2018" data-name="Path 2018" d="M512,508.4c-75.7,0-135-25.69-135-58.52,0-18,4.59-31.24,14-40.56,19.2-19,56.32-18.56,99.34-18.11,18,.18,37.4,0,55-.61,37.16-1.28,69.24-2.39,86.91,14.69,9.88,9.55,14.69,24.14,14.69,44.58,0,32.83-59.29,58.53-135,58.53m-41-111.9c-33.42,0-61.37,2-76.16,16.68-8.32,8.25-12.37,20.25-12.37,36.69,0,29.28,58.1,53.08,129.54,53.08S641.6,479.14,641.6,449.87c0-18.89-4.26-32.19-13-40.66-16-15.48-47-14.4-82.94-13.18-10.8.39-22,.76-33.58.76-7.39,0-14.65-.07-21.71-.14-6.59-.09-13-.15-19.28-.15"/><path id="Path_2019" data-name="Path 2019" class="cls-1" d="M644.27,389.43c0,30.81-59.23,55.79-132.26,55.79s-132.26-25-132.26-55.79c0-63.59,59.21-55.8,132.26-55.8s132.27-15.46,132.27,55.8"/><path id="Path_2020" data-name="Path 2020" d="M512,448c-75.7,0-135-25.71-135-58.53,0-18,4.59-31.25,14-40.57,19.2-19,56.32-18.6,99.34-18.11,18.05.17,37.39,0,55-.61,37.12-1.28,69.22-2.4,86.92,14.69C642.21,354.39,647,369,647,389.42,647,422.24,587.72,448,512,448M471.07,336c-33.43,0-61.39,2-76.21,16.7-8.32,8.24-12.37,20.23-12.37,36.69,0,29.26,58.11,53.07,129.54,53.07s129.54-23.81,129.54-53.07c0-18.91-4.26-32.21-13-40.67-16-15.49-47-14.4-82.94-13.18-10.79.38-22,.76-33.58.76-7.39,0-14.63-.07-21.69-.15-6.58-.08-13-.15-19.26-.15"/><path id="Path_2021" data-name="Path 2021" class="cls-1" d="M542,278.6c-.53,29.84-32.07,79-32.07,79s-29.74-50.32-29.21-80.16S495.18,233.68,512.1,234s30.38,14.79,29.85,44.62"/><path id="Path_2022" data-name="Path 2022" d="M509.86,360.38h0a2.77,2.77,0,0,1-2.3-1.35c-1.22-2.08-30.14-51.33-29.6-81.59.64-34.49,18-46.28,34.21-46.2,16.13.31,33.15,12.91,32.52,47.4-.54,30.26-31.18,78.44-32.49,80.48a2.76,2.76,0,0,1-2.3,1.28m1.69-123.68c-16.93,0-27.71,15.59-28.16,40.84-.45,24,19.71,62.4,26.57,74.77,7.29-12.12,28.8-49.81,29.24-73.76.47-25.51-10-41.55-27.16-41.86h-.5"/><path id="Path_2023" data-name="Path 2023" class="cls-1" d="M620.41,304v49l-.33,1.2a51.58,51.58,0,0,1-24.53,27.36c-25.48,15.52-83.93,15.25-83.93,15.25V346.1"/><path id="Path_2024" data-name="Path 2024" d="M512,399.54h-3.07V346.1a2.73,2.73,0,0,1,5.45,0h0v48c11.71-.19,58.33-1.77,79.8-14.85a49.49,49.49,0,0,0,23.32-25.81l.21-.76V304a2.73,2.73,0,1,1,5.46,0l-.42,50.9a54.73,54.73,0,0,1-25.74,29c-25.08,15.27-79.55,15.67-85,15.67"/><path id="Path_2025" data-name="Path 2025" class="cls-1" d="M595.55,330.83c-25.48,15.53-83.95,15.27-83.95,15.27s26.57-52.08,52-67.61,44.8-11.21,53.59,3.24,3.78,33.57-21.69,49.09"/><path id="Path_2026" data-name="Path 2026" d="M512,348.82h-.36a2.73,2.73,0,0,1-2.71-2.73,2.9,2.9,0,0,1,.3-1.23c1.09-2.15,27.21-52.95,53.05-68.7,29.44-17.92,48.92-9.6,57.33,4.14a29,29,0,0,1,2.22,26.57A57.51,57.51,0,0,1,597,333.15c-25.08,15.27-79.55,15.67-85,15.67m81.33-77.38a56,56,0,0,0-28.23,9.36c-20.48,12.47-42.12,50.07-48.89,62.49,14.14-.33,57.49-2.34,78-14.81a52.34,52.34,0,0,0,22.58-23.62,23.79,23.79,0,0,0-1.81-21.76,24,24,0,0,0-21.61-11.66"/><path id="Path_2027" data-name="Path 2027" class="cls-1" d="M403.58,303V353l.32,1.2a51.65,51.65,0,0,0,24.53,27.34c25.48,15.54,83.93,15.27,83.93,15.27v-50.7"/><path id="Path_2028" data-name="Path 2028" d="M512,399.54c-5.46,0-59.94-.4-85-15.67A54.59,54.59,0,0,1,401.31,355l-.45-2V303a2.72,2.72,0,1,1,5.44,0h0l.23,50.52a49.49,49.49,0,0,0,23.32,25.75c21.47,13.08,68.08,14.66,79.8,14.84v-48a2.73,2.73,0,0,1,5.45,0v53.43H512Z"/><path id="Path_2029" data-name="Path 2029" class="cls-1" d="M428.4,330.83c25.48,15.53,84,15.27,84,15.27s-26.55-52.06-52-67.6-44.8-11.22-53.59,3.23-3.78,33.57,21.7,49.1"/><path id="Path_2030" data-name="Path 2030" d="M512,348.82c-5.46,0-59.94-.4-85-15.67a57.48,57.48,0,0,1-24.82-26.28,29.07,29.07,0,0,1,2.22-26.57c8.41-13.76,27.85-22.1,57.33-4.14,25.84,15.75,52,66.56,53.06,68.7a2.75,2.75,0,0,1-.11,2.65,2.71,2.71,0,0,1-2.32,1.28Zm-81.34-77.39A24,24,0,0,0,409,283.13a23.73,23.73,0,0,0-1.8,21.76,52.29,52.29,0,0,0,22.58,23.62C450.29,341,493.62,343,507.76,343.32c-6.77-12.42-28.43-50-48.89-62.49a56,56,0,0,0-28.19-9.4"/><path id="Path_2031" data-name="Path 2031" class="cls-1" d="M511.8,392l-82.37,20.52V364.69l82.36-20.52Z"/><path id="Path_2032" data-name="Path 2032" d="M429.44,415.23a2.71,2.71,0,0,1-2.72-2.71h0V364.69a2.71,2.71,0,0,1,2-2.64l82.37-20.51a2.73,2.73,0,0,1,3.29,2,2.59,2.59,0,0,1,.08.63V392a2.71,2.71,0,0,1-2.07,2.64l-82.35,20.5a2.74,2.74,0,0,1-.64.09m2.72-48.42v42.24l76.9-19.19V347.62ZM511.8,392"/><path id="Path_2033" data-name="Path 2033" class="cls-1" d="M511.94,392l82.36,20.52V364.69l-82.36-20.52Z"/><path id="Path_2034" data-name="Path 2034" d="M594.3,415.23a2.8,2.8,0,0,1-.64-.08l-82.39-20.53a2.7,2.7,0,0,1-2-2.64v-47.8a2.67,2.67,0,0,1,1-2.15,2.63,2.63,0,0,1,2.33-.49L595,362.06a2.7,2.7,0,0,1,2.06,2.62V412.5a2.71,2.71,0,0,1-2.72,2.72m-79.64-25.36L591.56,409V366.83l-76.9-19.2Z"/><path id="Path_2035" data-name="Path 2035" class="cls-1" d="M521.38,396.82H501.72a15.31,15.31,0,0,1-15.31-15.32h0V360.22a15.31,15.31,0,0,1,15.31-15.33h19.66a15.32,15.32,0,0,1,15.36,15.28V381.5a15.32,15.32,0,0,1-15.33,15.32h0"/><path id="Path_2036" data-name="Path 2036" d="M521.4,399.52H501.72a18.06,18.06,0,0,1-18-18V360.2a18.06,18.06,0,0,1,18-18H521.4a18.05,18.05,0,0,1,18,18v21.28a18.05,18.05,0,0,1-18,18M501.72,347.6a12.61,12.61,0,0,0-12.59,12.59v21.29a12.59,12.59,0,0,0,12.59,12.59H521.4A12.6,12.6,0,0,0,534,381.51V360.2a12.6,12.6,0,0,0-12.59-12.59Z"/><path id="Path_2037" data-name="Path 2037" d="M161,766.41l-10.6-16.52A21.28,21.28,0,0,1,147.32,729a31,31,0,0,1,12.47-13.83c14.44-9.28,28.47-7.12,36.75,5.76l10.28,16Zm30.72-40.55c-6.68-10.4-15.54-11.79-27.38-4.18a24.44,24.44,0,0,0-10.14,10.7,15.51,15.51,0,0,0,2.79,15.2l5.52,8.62L197,734.05Z"/><path id="Path_2038" data-name="Path 2038" d="M111,654.77,122.42,683l15.21-6.13-10.38-25.82,5.91-2.38,10.39,25.83,16.81-6.75-11.75-29.25L154.9,636l14.63,36.42L119,692.75l-14.22-35.44Z"/><path id="Path_2039" data-name="Path 2039" d="M85,576.65l35-6.82a18.66,18.66,0,0,1,15,2,26.84,26.84,0,0,1,6.34,32.48,18.79,18.79,0,0,1-13.2,7.49l-35,6.83L91.71,611l36-7a11.91,11.91,0,0,0,10-13.6,11.09,11.09,0,0,0-.54-2.13,11.91,11.91,0,0,0-12.5-11.28,11.79,11.79,0,0,0-2.12.31l-36,7Z"/><path id="Path_2040" data-name="Path 2040" d="M135.76,514.4l.05,7.76-47.69.27.11,17-6.78,0-.25-41.74,6.79,0,.09,17Z"/><path id="Path_2041" data-name="Path 2041" d="M106.64,431.83a11.73,11.73,0,0,0-13.27,10,10.87,10.87,0,0,0-.12,1.4c-1.28,7.17,1,12.31,5.66,13.12,3.93.69,6.76-1.7,9.49-8.26l3.47-8.32a25.44,25.44,0,0,1,7.3-11.25A13.6,13.6,0,0,1,130.23,426c10.14,1.8,15,11.09,12.65,24.13-2.46,13.93-11,21-24.08,19.87l1.4-8a14.21,14.21,0,0,0,16-12.23c0-.36.08-.73.1-1.09,1.36-7.73-1.44-13.87-6.84-14.83-4-.71-7.18,1.72-9.55,7.11l-5,11.56c-4.08,9.39-9.21,13.05-16.43,11.77-9.42-1.7-14-10.57-11.86-22.87a18.66,18.66,0,0,1,19.65-17.62A15.64,15.64,0,0,1,108,424Z"/><path id="Path_2042" data-name="Path 2042" d="M132,351.91a14.22,14.22,0,0,0-16,9.52c-3.74,9.76,1.72,19.2,13.7,23.81,12.25,4.73,23,1.53,26.69-8a15.51,15.51,0,0,0-8.56-20l2.8-7.32a24.27,24.27,0,0,1,10.14,8.9,21.92,21.92,0,0,1,1.92,21,22.54,22.54,0,0,1-15.56,14.5,32.09,32.09,0,0,1-20.2-1.38C111.44,387,104.33,373,109.68,359a21.32,21.32,0,0,1,24.38-14.42Z"/><path id="Path_2043" data-name="Path 2043" d="M166.52,311.55,187.6,325l-4.18,6.53-45.94-29.27,4.18-6.54,19.14,12.21,14.72-23-19.14-12.27,4.18-6.54,45.94,29.32-4.18,6.53-21.07-13.44Z"/><path id="Path_2044" data-name="Path 2044" d="M218.2,209.45l-20.91,22.14,11.93,11.27,19.12-20.24L233,227l-19.12,20.23L227,259.68l21.65-22.91,4.94,4.67-27,28.53-39.57-37.4,26.24-27.78Z"/><path id="Path_2045" data-name="Path 2045" d="M281.92,217.86l-6.29,4.54-31.89-44.12,18-13a20.36,20.36,0,0,1,13.66-5.33,14,14,0,0,1,10.78,6.4,13.71,13.71,0,0,1,1,15.71c4.64-1,7.85.56,12,5.55l2.94,3.51a17.78,17.78,0,0,0,8,6.44l-7.68,5.52a40,40,0,0,1-6.77-7.28l-2.69-3a8.23,8.23,0,0,0-11.41-2.29c-.22.15-.44.31-.65.48l-12,8.7Zm-6.4-31a14.94,14.94,0,0,0,6.07-7.2,9.47,9.47,0,0,0-1.52-8.27,8.88,8.88,0,0,0-12.34-2.26,9.25,9.25,0,0,0-1.19,1L254,179.24,265,194.53Z"/><path id="Path_2046" data-name="Path 2046" d="M420.79,149.82l-9.08,3-27.71-20-5.63,10.88,5.91,18.09-7.38,2.42L360,112.38l7.38-2.43,8.18,25,16.78-33.15,9.39-3.09-14.4,27.76Z"/><path id="Path_2047" data-name="Path 2047" d="M490.12,112.38a26.38,26.38,0,1,1-51.87,9.68,27.23,27.23,0,0,1-.43-3.82,26.37,26.37,0,0,1,20.67-31c.66-.13,1.32-.24,2-.32C476,85,488.08,95.41,490.12,112.37m-44.43,4.92c1.54,12.8,10,20.7,20.84,19.38,10.7-1.28,17.2-10.93,15.7-23.43-1.58-13.15-9.92-20.95-20.87-19.63s-17.19,10.94-15.67,23.68"/><path id="Path_2048" data-name="Path 2048" d="M557.85,142.05l-19.27-36.21c-2.32-4.48-3.7-7.29-4.82-9.85,0,2.45-.41,7.59-.64,10.28l-2.9,33.4L522.9,139l4.68-54.33,7.91.68L554,120.29a127.52,127.52,0,0,1,5.46,11.81c.11-3,.31-6.4.64-10.24L563,88.06l7.34.64-4.66,54Z"/><path id="Path_2049" data-name="Path 2049" d="M612.37,96.41l18.81,5.47a21.27,21.27,0,0,1,16,13.74,30.79,30.79,0,0,1-.31,18.61c-4.76,16.46-16.76,24-31.42,19.78l-18.27-5.31Zm3.49,50.67c11.83,3.44,19.42-1.32,23.34-14.81a24.66,24.66,0,0,0,.64-14.72,15.57,15.57,0,0,0-12.09-9.64l-9.8-2.84-11.42,39.28Z"/><rect id="Rectangle_723" data-name="Rectangle 723" x="655.45" y="146.25" width="54.55" height="7.77" transform="translate(258.6 705.81) rotate(-65.05)"/><path id="Path_2050" data-name="Path 2050" d="M720.86,202.71l-6.53-4.23,26-40-14.24-9.27,3.69-5.69,35,22.79-3.69,5.71-14.25-9.28Z"/><path id="Path_2051" data-name="Path 2051" d="M809.93,242.67a26.37,26.37,0,1,1-40.37-33.94,25.61,25.61,0,0,1,2.61-2.7,26.38,26.38,0,0,1,37.11-3.74c.51.42,1,.85,1.48,1.3,11.34,10.88,10.94,26.73-.85,39.08m-32-31.17c-9,9.34-9.65,20.85-1.72,28.39,7.78,7.46,19.38,6.33,28.06-2.76,9.15-9.56,9.87-21,1.92-28.57s-19.39-6.33-28.23,2.93"/><path id="Path_2052" data-name="Path 2052" d="M814.49,291.42l-4.42-6.4,44.8-31L867.5,272.3a20.48,20.48,0,0,1,5.06,13.77,14.08,14.08,0,0,1-6.64,10.66,13.68,13.68,0,0,1-15.74.64c.85,4.68-.71,7.85-5.8,11.85l-3.57,2.89a17.61,17.61,0,0,0-6.6,7.83l-5.38-7.79a40,40,0,0,1,7.42-6.63l3.08-2.61a8.33,8.33,0,0,0,2.48-11.51c-.13-.19-.26-.38-.4-.56L833,278.61Zm31.12-5.7a14.9,14.9,0,0,0,7,6.22,9.46,9.46,0,0,0,8.32-1.37,8.87,8.87,0,0,0,1.58-13.5l-8.82-12.8L838.2,275.05Z"/><path id="Path_2053" data-name="Path 2053" d="M907.62,361.93l-12.36-27.84-15,6.66,11.29,25.45-5.81,2.56-11.33-25.45-16.55,7.38,12.8,28.8-6.2,2.74-15.92-35.88,49.77-22.11,15.5,34.93Z"/><path id="Path_2054" data-name="Path 2054" d="M881.8,444l28.46-29.56c3.53-3.59,5.76-5.8,7.86-7.63-2.34.7-7.33,2-10,2.56L875.52,417l-1.68-7.16L927,397.47l1.81,7.72L901.31,433.6a129.71,129.71,0,0,1-9.53,8.84c2.91-.84,6.16-1.68,9.89-2.56l33.06-7.68,1.68,7.18L883.6,451.7Z"/><path id="Path_2055" data-name="Path 2055" d="M942.05,481.45l.71,21.06a22.53,22.53,0,0,1-2.56,14.08,12.55,12.55,0,0,1-10.82,6,12.25,12.25,0,0,1-12.09-7.29A12.53,12.53,0,0,1,904.7,525a14.49,14.49,0,0,1-12.7-5.87,27.1,27.1,0,0,1-3.7-15.88l-.64-20Zm-46.89,24.76c.23,6.95,3.79,11.07,9.43,10.88s8.78-4,8.56-10.65l-.55-16.64-18,.6Zm24.28-2a11.87,11.87,0,0,0,2.39,7.92,7.88,7.88,0,0,0,6.29,2.56,8.12,8.12,0,0,0,6-3,11.83,11.83,0,0,0,1.85-8.08l-.45-14.6-16.58.55Z"/><path id="Path_2056" data-name="Path 2056" d="M933.91,606.38l-35.2-5.76a18.64,18.64,0,0,1-13.41-7.08,26.84,26.84,0,0,1,5.35-32.7,18.81,18.81,0,0,1,15-2.42l35.2,5.76-1.28,7.68-36.22-6a12,12,0,0,0-14.08,9.32,11.58,11.58,0,0,0-.24,2.2,11.92,11.92,0,0,0,7.85,14.92,11.11,11.11,0,0,0,2.06.44l36.23,6Z"/><path id="Path_2057" data-name="Path 2057" d="M859.49,661.09l40-8.73c4.94-1,8-1.61,10.77-2-2.34-.72-7.2-2.45-9.72-3.4l-31.32-11.81,2.56-6.87,51,19.2L920,654.94l-38.57,8.32c-3.64.83-9.21,1.69-12.8,2.08,2.88.89,6,2,9.63,3.36L910,680.65l-2.56,6.86-50.69-19.07Z"/><path id="Path_2058" data-name="Path 2058" d="M888.86,725.72l-10.31,16.69A21.34,21.34,0,0,1,861,754.11a30.94,30.94,0,0,1-17.83-5.32c-14.58-9-18.66-22.59-10.6-35.58l10-16.17Zm-49.73-10.27c-6.51,10.48-4,19.07,8,26.48a24.65,24.65,0,0,0,14,4.54,15.49,15.49,0,0,0,12.54-9l5.39-8.67-34.77-21.55Z"/><path id="Path_2059" data-name="Path 2059" d="M322.64,874.39a2.71,2.71,0,0,1-1.28-.33A405.72,405.72,0,0,1,210.2,786.69a2.72,2.72,0,0,1,4.05-3.62,401.11,401.11,0,0,0,109.67,86.2,2.7,2.7,0,0,1,1.13,3.64l0,0a2.72,2.72,0,0,1-2.39,1.44"/><path id="Path_2060" data-name="Path 2060" d="M701.37,874.39A2.74,2.74,0,0,1,699,873a2.7,2.7,0,0,1,1.07-3.66l0,0a400.68,400.68,0,0,0,109.65-86.2,2.72,2.72,0,0,1,4.12,3.55l-.06.07a405.86,405.86,0,0,1-111.15,87.37,2.71,2.71,0,0,1-1.28.33"/><path id="Path_2061" data-name="Path 2061" d="M374.52,838.9h30.32c18.1,0,27.63,3.2,35.68,12.34a47.81,47.81,0,0,1,11,31.93,49.82,49.82,0,0,1-11.68,33.42c-7.77,8.32-17.71,11.8-34.34,11.8h-31Zm33.67,72.32a18.91,18.91,0,0,0,18.39-8.72A36.39,36.39,0,0,0,431,883.58a35.64,35.64,0,0,0-4.3-18.51,17.75,17.75,0,0,0-17.16-9H394.65v55.14Z"/><path id="Path_2062" data-name="Path 2062" d="M556.88,928.4H532.71l-27.12-40.52-8.32,8.45V928.4H477.56V838.9h19.71v33l30.21-33h26.41L519,874.2Z"/><path id="Path_2063" data-name="Path 2063" d="M577.29,838.9h36.35a43.82,43.82,0,0,1,23.49,4.56,21.23,21.23,0,0,1,10.24,18.25,19.58,19.58,0,0,1-12.62,18.78,22.21,22.21,0,0,1,14.75,21.88,24.49,24.49,0,0,1-9.26,20.11c-5.76,4.43-12.09,5.91-24.82,5.91H577.29Zm38.91,34.75c7.24,0,11-3,11-8.86s-3.75-8.71-11-8.71H597v17.57Zm-.28,37.57c8.46,0,13-3.76,13-10.88s-4.55-10.88-13-10.88H597v21.76Z"/></svg>