<?xml version="1.0" encoding="utf-8"?>
<!-- Generator: Adobe Illustrator 25.2.3, SVG Export Plug-In . SVG Version: 6.00 Build 0)  -->
<svg version="1.1" id="Ebene_1" xmlns="http://www.w3.org/2000/svg" xmlns:xlink="http://www.w3.org/1999/xlink" x="0px" y="0px"
	 viewBox="0 0 300 300" style="enable-background:new 0 0 300 300;" xml:space="preserve">
<style type="text/css">
	.st0{fill:#FFD400;}
	.st1{fill:#662482;}
</style>
<g>
	<rect class="st0" width="300" height="300"/>
	<g>
		<path class="st1" d="M247.62,109.09c-2.07-1.84-5.25-1.65-7.09,0.42l-12.75,14.37c-8.16-6.96-18.7-11.19-30.24-11.19
			c-25.73,0-46.66,20.93-46.66,46.66s20.93,46.66,46.66,46.66s46.66-20.93,46.66-46.66c0-10.57-3.57-20.3-9.52-28.14l13.35-15.05
			C249.88,114.1,249.69,110.93,247.62,109.09z M224.13,159.36c0,14.65-11.93,26.58-26.58,26.58c-14.65,0-26.58-11.93-26.58-26.58
			c0-14.65,11.93-26.58,26.58-26.58c6.43,0,12.32,2.29,16.92,6.1l-17.21,19.39l-6.15-6.79c-1.86-2.06-5.04-2.2-7.09-0.35
			c-2.05,1.86-2.2,5.04-0.35,7.09l13.66,15.08l23.59-26.58C222.96,150.49,224.13,154.79,224.13,159.36z"/>
		<path class="st1" d="M125.46,81.18c-6.02,0-10.89,4.87-10.89,10.89v31.73c-6.42-3.71-13.83-5.89-21.76-5.89
			c-24.01,0-43.54,19.53-43.54,43.54s19.53,43.54,43.54,43.54c23.09,0,42-18.09,43.41-40.84c0.06-0.45,0.13-0.89,0.13-1.36V92.07
			C136.34,86.05,131.46,81.18,125.46,81.18z M92.79,183.21c-12,0-21.76-9.77-21.76-21.76c0-12,9.77-21.76,21.76-21.76
			s21.76,9.77,21.76,21.76C114.57,173.45,104.8,183.21,92.79,183.21z"/>
	</g>
</g>
</svg>
